<svg xmlns="http://www.w3.org/2000/svg" xmlns:xlink="http://www.w3.org/1999/xlink" width="1320" height="507" viewBox="0 0 1320 507"><defs><style>.a{fill:url(#a);}.b{clip-path:url(#c);}.c{fill:#5bbf02;}.d{fill:#60cc00;}.e{fill:#469500;}.f{fill:#8ad24a;}.g{fill:#93ff33;}</style><linearGradient id="a" x1="0.5" x2="0.5" y2="1" gradientUnits="objectBoundingBox"><stop offset="0" stop-color="#62d100"/><stop offset="1" stop-color="#93ff33"/></linearGradient><clipPath id="c"><rect class="a" width="1320" height="507" transform="translate(-11361 -9260) rotate(180)"/></clipPath></defs><g transform="translate(12684 9479)"><rect class="a" width="1320" height="507" transform="translate(-11364 -8972) rotate(180)"/><g class="b" transform="translate(-3 288)"><path class="c" d="M294.647,868.257l-.224-.129-476.6,275.168-.671.387L294.2,1419.112l.223.128,476.607-275.168.67-.386ZM747.23,1130.588l-21.792,12.581-21.791-12.581,21.791-12.581Zm-451.912,0,21.792-12.582,21.791,12.581-21.792,12.582Zm20.9,13.1-21.791,12.581-21.79-12.581,21.79-12.581Zm-21.791-13.614-21.791-12.58,21.791-12.581,21.792,12.581Zm-.894.517-21.79,12.58-21.792-12.581,21.791-12.581Zm-22.684,13.1-21.791,12.581-21.792-12.581,21.791-12.581Zm.894.516,21.79,12.581-21.79,12.581-21.791-12.581Zm22.684,13.1,21.792,12.581-21.792,12.582-21.791-12.582Zm.894-.515,21.791-12.581,21.792,12.581-21.791,12.581Zm22.685-13.1L339.8,1131.1l21.791,12.581L339.8,1156.265Zm22.685-13.1,21.791-12.581,21.792,12.581-21.792,12.581Zm-.893-.516L318,1117.49l21.791-12.581,21.791,12.581Zm-22.685-13.1-21.792-12.58,21.792-12.581,21.791,12.581Zm-22.686-13.1-21.791-12.58,21.791-12.581,21.791,12.581Zm-.894.517-21.791,12.58-21.791-12.58,21.791-12.581Zm-22.685,13.1-21.791,12.58-21.791-12.581,21.791-12.58Zm-22.684,13.1-21.792,12.581-21.791-12.581,21.791-12.581Zm-22.686,13.1-21.791,12.581-21.791-12.581,21.791-12.581Zm.894.516,21.792,12.581-21.791,12.581-21.792-12.581Zm22.686,13.1,21.791,12.58-21.792,12.582-21.791-12.581Zm22.685,13.1,21.79,12.581-21.79,12.581-21.792-12.581Zm22.684,13.1,21.792,12.581-21.791,12.581-21.792-12.581Zm.894-.516,21.792-12.581,21.791,12.581-21.791,12.581Zm22.686-13.1L339.8,1157.3l21.791,12.581L339.8,1182.46Zm22.684-13.1L362.48,1144.2l21.791,12.581-21.792,12.581Zm22.686-13.1,21.791-12.581,21.791,12.581-21.791,12.581Zm22.685-13.1,21.791-12.581,21.792,12.581-21.792,12.582Zm-.894-.516-21.791-12.58,21.791-12.581,21.791,12.581Zm-22.686-13.1-21.791-12.58,21.792-12.581,21.791,12.581Zm-22.684-13.1L318,1091.3l21.791-12.581,21.791,12.581Zm-22.686-13.1-21.791-12.58,21.791-12.581L338.9,1078.2Zm-22.685-13.1L272.634,1065.1l21.791-12.581,21.791,12.581Zm-.894.516-21.791,12.58-21.791-12.58,21.791-12.581Zm-22.685,13.1-21.791,12.58-21.791-12.58,21.791-12.581Zm-22.685,13.1-21.791,12.58-21.791-12.58,21.791-12.581Zm-22.685,13.1-21.791,12.581-21.791-12.581,21.791-12.581Zm-22.685,13.1L181,1143.168l-21.791-12.581L181,1118.006Zm-22.684,13.1-21.792,12.581-21.791-12.581,21.791-12.581Zm.893.516,21.792,12.581L181,1169.363l-21.791-12.581Zm22.685,13.1,21.792,12.582-21.792,12.581-21.791-12.581Zm22.686,13.1,21.791,12.581-21.792,12.581-21.791-12.581Zm22.684,13.1,21.792,12.581-21.792,12.581-21.791-12.581Zm22.686,13.1,21.791,12.581-21.791,12.581-21.792-12.581Zm22.685,13.1,21.791,12.582-21.792,12.581-21.791-12.581Zm.894-.515,21.791-12.581L338.9,1209.17l-21.792,12.581Zm22.685-13.1,21.791-12.581,21.791,12.581L339.8,1208.654Zm22.684-13.1,21.791-12.58,21.792,12.581-21.791,12.581Zm22.685-13.1,21.792-12.581,21.792,12.581-21.792,12.581Zm22.686-13.1L407.85,1144.2l21.792,12.581-21.792,12.581Zm22.684-13.1,21.792-12.581,21.791,12.581-21.791,12.581Zm22.686-13.1,21.791-12.58,21.791,12.581-21.791,12.581Zm-.894-.516-21.791-12.58,21.79-12.581,21.792,12.581Zm-22.685-13.1-21.791-12.58,21.791-12.581,21.791,12.581Zm-22.685-13.1-21.791-12.58,21.791-12.581,21.791,12.581Zm-22.685-13.1L340.688,1078.2l21.791-12.581L384.27,1078.2Zm-22.685-13.1L318,1065.1l21.79-12.58,21.792,12.581Zm-22.686-13.1L295.319,1052l21.791-12.581L338.9,1052Zm-22.685-13.1-21.791-12.581,21.791-12.58,21.791,12.581Zm-.894.516-21.791,12.581L249.949,1052l21.791-12.581Zm-22.685,13.1-21.791,12.581L227.264,1065.1l21.791-12.581Zm-22.684,13.1-21.792,12.58-21.792-12.58,21.792-12.581Zm-22.686,13.1-21.791,12.58-21.791-12.58,21.791-12.581Zm-22.685,13.1L181,1116.973l-21.791-12.581L181,1091.811Zm-22.684,13.1-21.791,12.581-21.792-12.581,21.791-12.581Zm-22.686,13.1-21.791,12.581-21.792-12.581,21.791-12.581Zm-22.685,13.1-21.791,12.581-21.792-12.581,21.791-12.581Zm.893.516,21.792,12.581-21.791,12.581-21.791-12.582Zm22.686,13.1,21.791,12.582-21.79,12.58-21.792-12.581Zm22.685,13.1,21.792,12.582L181,1195.557l-21.792-12.581Zm22.685,13.1,21.791,12.581-21.791,12.581-21.791-12.581Zm22.685,13.1,21.792,12.581-21.791,12.581-21.792-12.582Zm22.685,13.1,21.792,12.582-21.791,12.581-21.792-12.582Zm22.686,13.1,21.79,12.582-21.79,12.58-21.791-12.581Zm22.684,13.1,21.792,12.581-21.791,12.581-21.791-12.581Zm.894-.515,21.792-12.582,21.792,12.581-21.792,12.582Zm22.686-13.1,21.791-12.582,21.791,12.582L339.8,1234.849Zm22.684-13.1,21.792-12.581,21.791,12.581-21.791,12.581Zm22.686-13.1,21.791-12.581,21.791,12.582-21.791,12.58Zm22.685-13.1,21.792-12.582,21.791,12.581-21.792,12.582Zm22.685-13.1,21.791-12.581,21.791,12.581-21.791,12.581Zm22.685-13.1,21.792-12.581,21.791,12.581-21.792,12.581Zm22.685-13.1,21.792-12.581,21.791,12.582-21.791,12.58Zm22.684-13.1,21.792-12.581,21.791,12.581-21.792,12.581Zm-.893-.517-21.791-12.58,21.791-12.581L497.7,1117.49Zm-22.685-13.1-21.792-12.58,21.792-12.581,21.791,12.581Zm-22.686-13.1L408.743,1091.3l21.791-12.581,21.792,12.581Zm-22.684-13.1-21.791-12.58,21.791-12.581,21.791,12.58Zm-22.686-13.1-21.791-12.58,21.791-12.581,21.792,12.581Zm-22.685-13.1L340.688,1052l21.791-12.581L384.27,1052Zm-22.685-13.1L318,1038.907l21.792-12.581,21.791,12.58Zm-22.685-13.1-21.791-12.581,21.791-12.581L338.9,1025.81Zm-22.685-13.1-21.791-12.581,21.791-12.581,21.791,12.581Zm-.894.516-21.791,12.581-21.791-12.582,21.791-12.58Zm-22.685,13.1-21.791,12.581-21.792-12.581,21.792-12.581ZM248.161,1052l-21.791,12.581L204.579,1052l21.791-12.581Zm-22.685,13.1-21.791,12.581L181.894,1065.1l21.791-12.581Zm-22.685,13.1L181,1090.779l-21.791-12.58L181,1065.617Zm-22.685,13.1-21.791,12.58-21.792-12.58,21.792-12.582Zm-22.685,13.1-21.791,12.579-21.791-12.58,21.79-12.581Zm-22.685,13.1-21.792,12.581L91.154,1117.49l21.791-12.581Zm-22.685,13.1-21.791,12.581-21.792-12.581,21.791-12.581Zm-22.685,13.1-21.791,12.581-21.792-12.581L67.575,1131.1Zm.894.515,21.792,12.582-21.792,12.581-21.792-12.582Zm22.685,13.1,21.792,12.581-21.792,12.581-21.791-12.581Zm22.685,13.1,21.792,12.581-21.792,12.581-21.791-12.581Zm22.685,13.1,21.792,12.581-21.791,12.581-21.792-12.581Zm22.686,13.1,21.791,12.581L181,1221.751l-21.791-12.581Zm22.684,13.1,21.792,12.581-21.792,12.582-21.791-12.582Zm22.686,13.1,21.791,12.581-21.791,12.581-21.792-12.581Zm22.685,13.1,21.792,12.581-21.792,12.581-21.792-12.581Zm22.685,13.1,21.791,12.582-21.791,12.581-21.791-12.581Zm22.685,13.1,21.792,12.582-21.791,12.581-21.792-12.581Zm.894-.515,21.791-12.581,21.792,12.581-21.791,12.581Zm22.685-13.1L339.8,1235.88l21.792,12.581L339.8,1261.044Zm22.684-13.1,21.792-12.581,21.792,12.582-21.792,12.581Zm22.686-13.1,21.791-12.582,21.792,12.582-21.791,12.581Zm22.685-13.1,21.791-12.581,21.792,12.581-21.791,12.581Zm22.684-13.1,21.792-12.582,21.792,12.582-21.792,12.581Zm22.686-13.1,21.792-12.582,21.791,12.582-21.791,12.581Zm22.685-13.1,21.792-12.581,21.791,12.581-21.791,12.581Zm22.685-13.1L498.59,1144.2l21.792,12.582-21.791,12.58Zm22.685-13.1,21.791-12.582,21.792,12.582-21.792,12.581Zm22.685-13.1,21.792-12.581,21.791,12.581-21.791,12.581Zm-.894-.517-21.791-12.58,21.791-12.581,21.791,12.581Zm-22.686-13.1-21.791-12.58,21.792-12.581,21.791,12.581Zm-22.684-13.1L454.114,1091.3l21.791-12.581L497.7,1091.3Zm-22.685-13.1L431.428,1078.2l21.792-12.581,21.791,12.581Zm-22.686-13.1-21.791-12.58,21.791-12.581,21.791,12.581Zm-22.684-13.1L386.059,1052l21.791-12.581L429.641,1052Zm-22.686-13.1-21.791-12.581,21.791-12.58,21.791,12.58Zm-22.685-13.1-21.791-12.581,21.791-12.581,21.791,12.581Zm-22.684-13.1L318,1012.713l21.791-12.58,21.792,12.58Zm-22.686-13.1-21.791-12.581,21.791-12.581L338.9,999.615Zm-22.685-13.1-21.792-12.581,21.791-12.581,21.791,12.582Zm-.894.516L271.74,1012.2l-21.791-12.581,21.791-12.581Zm-22.685,13.1-21.791,12.581-21.792-12.581,21.791-12.581Zm-22.685,13.1-21.791,12.58-21.792-12.581,21.792-12.58Zm-22.685,13.1-21.791,12.581-21.791-12.581,21.791-12.581ZM202.791,1052,181,1064.585,159.208,1052,181,1039.423Zm-22.685,13.1-21.791,12.58-21.791-12.58,21.79-12.581Zm-22.685,13.1-21.791,12.58L113.84,1078.2l21.79-12.581Zm-22.685,13.1-21.791,12.58L91.155,1091.3l21.79-12.581Zm-22.685,13.1-21.791,12.581-21.792-12.58,21.792-12.582Zm-22.686,13.1-21.79,12.581L45.784,1117.49l21.791-12.58Zm-22.684,13.1L44.89,1143.168,23.1,1130.587l21.792-12.581ZM44,1143.683l-21.792,12.582L.414,1143.684,22.206,1131.1Zm.894.516,21.791,12.581L44.89,1169.362,23.1,1156.781Zm22.685,13.1,21.792,12.581L67.576,1182.46l-21.792-12.582Zm22.685,13.1,21.792,12.581-21.792,12.581L68.47,1182.976Zm22.685,13.1,21.792,12.581-21.792,12.581-21.791-12.581Zm22.685,13.1,21.792,12.582-21.792,12.581L113.84,1209.17Zm22.686,13.1,21.791,12.581-21.792,12.582-21.791-12.582Zm22.685,13.1,21.791,12.581L181,1247.945l-21.791-12.581Zm22.685,13.1,21.791,12.582-21.792,12.581-21.791-12.581Zm22.685,13.1,21.792,12.582-21.792,12.581-21.792-12.581Zm22.685,13.1,21.792,12.581-21.792,12.582-21.792-12.581Zm22.685,13.1,21.792,12.581-21.792,12.582-21.791-12.582Zm22.686,13.1,21.791,12.581-21.791,12.582-21.792-12.582Zm.893-.516,21.792-12.581,21.792,12.581-21.792,12.582Zm22.686-13.1,21.79-12.581,21.792,12.581L339.8,1287.237Zm22.683-13.1,21.792-12.581,21.792,12.581-21.792,12.582Zm22.686-13.1,21.791-12.581,21.792,12.581-21.791,12.582Zm22.685-13.1,21.792-12.582,21.791,12.582-21.791,12.581Zm22.685-13.1,21.791-12.581,21.792,12.581-21.791,12.581Zm22.685-13.1,21.792-12.581,21.791,12.581-21.792,12.582Zm22.685-13.1,21.792-12.581,21.791,12.582-21.791,12.581Zm22.685-13.1,21.791-12.582,21.792,12.582-21.791,12.581Zm22.685-13.1,21.791-12.581,21.792,12.581-21.791,12.581Zm22.685-13.1L543.96,1144.2l21.792,12.582-21.792,12.581Zm22.685-13.1,21.791-12.582,21.792,12.582-21.792,12.581Zm22.685-13.1,21.792-12.581,21.791,12.581-21.791,12.581Zm-.894-.517-21.791-12.58,21.791-12.581,21.792,12.581Zm-22.684-13.1-21.792-12.58,21.792-12.581,21.791,12.581Zm-22.686-13.1-21.791-12.58,21.791-12.582,21.791,12.581Zm-22.686-13.1L476.8,1078.2l21.792-12.582L520.38,1078.2Zm-22.684-13.1-21.791-12.58,21.791-12.581L497.7,1065.1Zm-22.686-13.1L431.429,1052l21.791-12.581L475.011,1052Zm-22.685-13.1-21.791-12.581,21.791-12.581,21.792,12.581Zm-22.685-13.1-21.791-12.581,21.791-12.581,21.792,12.581Zm-22.685-13.1-21.791-12.581,21.791-12.58,21.791,12.58Zm-22.685-13.1-21.791-12.581,21.791-12.581,21.791,12.581Zm-22.685-13.1L318,986.519l21.791-12.581,21.791,12.581ZM317.109,986l-21.792-12.581,21.791-12.581L338.9,973.421Zm-22.686-13.1-21.791-12.581,21.791-12.581,21.791,12.581Zm-.893.516L271.74,986l-21.791-12.58L271.74,960.84Zm-22.686,13.1L249.054,999.1l-21.791-12.581,21.791-12.58Zm-22.685,13.1L226.37,1012.2l-21.791-12.581,21.79-12.581Zm-22.684,13.1-21.791,12.581-21.791-12.581,21.791-12.581Zm-22.685,13.1L181,1038.39l-21.791-12.581,21.79-12.58Zm-22.685,13.1-21.791,12.581-21.791-12.581,21.791-12.581ZM157.42,1052l-21.79,12.581L113.84,1052l21.79-12.581Zm-22.684,13.1-21.791,12.581L91.155,1065.1l21.791-12.581Zm-22.685,13.1-21.791,12.58L68.47,1078.2l21.791-12.581Zm-22.685,13.1-21.792,12.58L45.784,1091.3l21.792-12.581Zm-22.685,13.1-21.791,12.58L23.1,1104.392l21.791-12.58ZM44,1117.49l-21.791,12.581L.415,1117.49l21.791-12.581Zm-22.685,13.1L-.479,1143.168l-21.792-12.581,21.792-12.581Zm-22.685,13.1-21.791,12.581-21.792-12.581,21.792-12.582Zm.894.515,21.791,12.581L-.48,1169.362l-21.791-12.58Zm22.685,13.1L44,1169.878l-21.792,12.581L.414,1169.878Zm22.685,13.1,21.792,12.581-21.792,12.581L23.1,1182.976Zm22.685,13.1,21.792,12.581-21.792,12.581-21.792-12.581Zm22.685,13.1,21.792,12.582-21.792,12.581L68.47,1209.17Zm22.685,13.1,21.792,12.581-21.792,12.582-21.791-12.582Zm22.686,13.1,21.791,12.581-21.792,12.581-21.791-12.581Zm22.685,13.1,21.791,12.582-21.792,12.581-21.791-12.581Zm22.685,13.1,21.791,12.582L181,1274.14l-21.791-12.581Zm22.684,13.1,21.792,12.581-21.792,12.582-21.791-12.582Zm22.686,13.1,21.792,12.581-21.792,12.582-21.792-12.582Zm22.685,13.1,21.792,12.581-21.792,12.582-21.792-12.582Zm22.685,13.1,21.792,12.581-21.792,12.581-21.791-12.581Zm22.686,13.1,21.791,12.58-21.792,12.582-21.791-12.581Zm.893-.516,21.792-12.581,21.791,12.581-21.792,12.581Zm22.686-13.1,21.79-12.581,21.792,12.581L339.8,1313.431Zm22.684-13.1,21.791-12.58,21.791,12.581-21.791,12.58Zm22.685-13.1,21.792-12.581,21.791,12.581-21.792,12.581Zm22.685-13.1,21.792-12.581,21.791,12.581-21.791,12.581Zm22.685-13.1,21.792-12.581,21.791,12.581-21.792,12.582Zm22.685-13.1,21.791-12.581,21.792,12.581-21.791,12.581Zm22.685-13.1,21.792-12.581,21.791,12.581-21.791,12.581Zm22.685-13.1,21.792-12.581,21.791,12.581-21.792,12.581Zm22.685-13.1,21.792-12.581,21.792,12.581-21.792,12.582Zm22.686-13.1L543.96,1170.4l21.791,12.581-21.791,12.581Zm22.684-13.1,21.791-12.581,21.792,12.581-21.792,12.581Zm22.685-13.1L589.33,1144.2l21.791,12.581-21.791,12.582Zm22.685-13.1,21.792-12.582,21.792,12.582-21.792,12.581Zm22.685-13.1,21.791-12.581,21.792,12.581L634.7,1143.169Zm-.893-.517-21.792-12.58,21.791-12.581,21.792,12.582Zm-22.685-13.1-21.792-12.581,21.791-12.58,21.792,12.581Zm-22.686-13.1-21.791-12.58,21.791-12.581,21.791,12.581Zm-22.685-13.1-21.791-12.58,21.791-12.581L565.75,1078.2Zm-22.685-13.1-21.791-12.58,21.791-12.581,21.791,12.581Zm-22.686-13.1L476.8,1052l21.791-12.58L520.379,1052Zm-22.684-13.1-21.791-12.581,21.791-12.58,21.791,12.58Zm-22.685-13.1-21.792-12.581,21.791-12.58,21.792,12.58Zm-22.686-13.1-21.791-12.581,21.791-12.58,21.791,12.58Zm-22.685-13.1-21.79-12.581,21.79-12.58,21.791,12.58Zm-22.685-13.1-21.791-12.581,21.791-12.581,21.791,12.581ZM362.479,986l-21.791-12.581,21.79-12.581,21.791,12.581Zm-22.685-13.1L318,960.324l21.79-12.581,21.792,12.581Zm-22.686-13.1-21.79-12.581,21.79-12.58,21.791,12.58Zm-22.685-13.1-21.791-12.581,21.791-12.58,21.791,12.581Zm-.893.516L271.74,959.808l-21.792-12.581,21.791-12.581Zm-22.686,13.1-21.79,12.581-21.792-12.581,21.791-12.581Zm-22.684,13.1L226.369,986l-21.791-12.581,21.791-12.581Zm-22.685,13.1L203.685,999.1l-21.791-12.581,21.79-12.581Zm-22.685,13.1L181,1012.2l-21.792-12.581L181,987.034Zm-22.685,13.1-21.791,12.581-21.792-12.582,21.791-12.58Zm-22.685,13.1-21.792,12.581-21.791-12.582,21.791-12.58Zm-22.685,13.1-21.791,12.581-21.792-12.581,21.791-12.581ZM112.051,1052l-21.791,12.581L68.469,1052l21.791-12.581Zm-22.685,13.1-21.791,12.58L45.784,1065.1l21.791-12.581Zm-22.685,13.1-21.791,12.58L23.1,1078.2l21.791-12.581ZM44,1091.3l-21.791,12.58L.414,1091.295l21.791-12.58Zm-22.685,13.1-21.791,12.58-21.792-12.581L-.48,1091.811Zm-22.685,13.1-21.791,12.581-21.792-12.581,21.792-12.581Zm-22.684,13.1-21.792,12.581-21.792-12.581,21.791-12.582Zm-22.686,13.1-21.792,12.581-21.791-12.581,21.791-12.582Zm.894.515,21.792,12.581-21.792,12.582-21.792-12.582Zm22.685,13.1,21.791,12.581-21.792,12.581-21.791-12.581Zm22.684,13.1,21.792,12.582L-.48,1195.557l-21.792-12.581Zm22.686,13.1L44,1196.073l-21.792,12.581L.414,1196.072Zm22.685,13.1,21.792,12.582-21.792,12.581L23.1,1209.169Zm22.685,13.1,21.792,12.581-21.792,12.582-21.792-12.582Zm22.685,13.1,21.792,12.581-21.791,12.581L68.47,1235.364Zm22.685,13.1,21.792,12.581-21.792,12.581-21.791-12.581Zm22.685,13.1,21.792,12.582L135.63,1274.14l-21.791-12.582Zm22.686,13.1,21.791,12.581-21.791,12.581-21.792-12.581Zm22.685,13.1,21.791,12.581L181,1300.334l-21.792-12.581Zm22.684,13.1,21.792,12.581-21.791,12.581-21.792-12.581Zm22.686,13.1,21.792,12.581-21.791,12.581-21.792-12.581Zm22.685,13.1,21.792,12.581-21.791,12.581-21.792-12.582Zm22.685,13.1,21.791,12.581-21.791,12.581-21.791-12.581Zm22.685,13.1,21.792,12.581-21.791,12.581-21.792-12.581Zm.894-.516,21.791-12.581,21.792,12.581-21.792,12.582Zm22.685-13.1,21.791-12.581,21.792,12.581L339.8,1339.626Zm22.685-13.1,21.791-12.582,21.792,12.582-21.792,12.581Zm22.685-13.1,21.791-12.581,21.792,12.581-21.791,12.581Zm22.685-13.1,21.792-12.581,21.791,12.581-21.791,12.582Zm22.684-13.1,21.792-12.582,21.792,12.582-21.792,12.581Zm22.686-13.1,21.792-12.581,21.791,12.581-21.791,12.581Zm22.685-13.1,21.792-12.581,21.791,12.582-21.791,12.581Zm22.684-13.1,21.792-12.582,21.792,12.582-21.792,12.581Zm22.686-13.1,21.792-12.581,21.791,12.581-21.791,12.581Zm22.686-13.1,21.791-12.581,21.792,12.581-21.792,12.581Zm22.684-13.1,21.791-12.581,21.792,12.582-21.791,12.58Zm22.685-13.1,21.791-12.581,21.792,12.581-21.792,12.581Zm22.685-13.1,21.792-12.581,21.792,12.581-21.792,12.581Zm22.685-13.1L634.7,1144.2l21.792,12.581L634.7,1169.364Zm22.685-13.1,21.791-12.581,21.792,12.581-21.791,12.581Zm22.685-13.1,21.792-12.581,21.791,12.581-21.791,12.581Zm-.894-.516-21.791-12.58,21.791-12.582,21.792,12.582Zm-22.685-13.1-21.792-12.58,21.792-12.582,21.792,12.582Zm-22.685-13.1-21.791-12.58,21.792-12.581,21.791,12.581Zm-22.685-13.1-21.791-12.58,21.791-12.581L611.12,1078.2Zm-22.686-13.1L544.852,1065.1l21.792-12.581,21.791,12.581Zm-22.684-13.1L522.169,1052l21.791-12.581L565.75,1052Zm-22.686-13.1-21.791-12.581,21.792-12.581,21.791,12.581Zm-22.685-13.1L476.8,1025.81l21.791-12.58,21.791,12.58Zm-22.684-13.1-21.792-12.582,21.792-12.58,21.791,12.58Zm-22.686-13.1-21.791-12.58,21.791-12.581,21.791,12.58Zm-22.686-13.1-21.79-12.581,21.791-12.581,21.791,12.581ZM407.849,986l-21.791-12.581,21.791-12.581,21.792,12.581Zm-22.685-13.1-21.791-12.581,21.791-12.581,21.791,12.581Zm-22.686-13.1-21.791-12.581,21.791-12.581,21.791,12.582Zm-22.685-13.1L318,934.13l21.791-12.581,21.79,12.58Zm-22.685-13.1-21.791-12.581,21.791-12.581L338.9,921.033Zm-22.685-13.1-21.791-12.581,21.791-12.581,21.791,12.581Zm-.894.516-21.79,12.581-21.792-12.581,21.791-12.581Zm-22.685,13.1L249.054,946.71l-21.791-12.581,21.791-12.581Zm-22.685,13.1-21.791,12.581-21.791-12.581,21.791-12.581Zm-22.684,13.1-21.792,12.581-21.791-12.581,21.791-12.581Zm-22.686,13.1L181,986,159.208,973.42,181,960.84Zm-22.684,13.1L158.314,999.1l-21.791-12.581,21.791-12.581Zm-22.686,13.1L135.629,1012.2l-21.791-12.581,21.791-12.581Zm-22.685,13.1-21.791,12.581-21.791-12.582,21.791-12.58Zm-22.685,13.1-21.79,12.581-21.792-12.581,21.791-12.58Zm-22.685,13.1-21.791,12.581-21.791-12.581,21.791-12.581ZM66.681,1052l-21.79,12.58L23.1,1052l21.791-12.581ZM44,1065.1l-21.792,12.581L.414,1065.1l21.791-12.581Zm-22.686,13.1L-.48,1090.779-22.271,1078.2l21.79-12.58Zm-22.685,13.1-21.791,12.58-21.791-12.581,21.791-12.581Zm-22.684,13.1-21.792,12.58-21.791-12.58,21.791-12.581Zm-22.685,13.1-21.792,12.581-21.791-12.581,21.791-12.581Zm-22.685,13.1-21.792,12.581-21.792-12.581,21.792-12.582Zm-22.685,13.1-21.791,12.58-21.792-12.581L-113.9,1131.1Zm.893.515,21.792,12.581-21.791,12.581-21.792-12.581Zm22.685,13.1,21.792,12.581-21.79,12.581-21.793-12.581Zm22.686,13.1,21.791,12.581-21.791,12.581-21.791-12.581Zm22.684,13.1,21.792,12.581-21.791,12.582-21.792-12.582Zm22.685,13.1,21.793,12.581L-.479,1221.751l-21.792-12.581Zm22.686,13.1L44,1222.267l-21.791,12.581L.415,1222.267Zm22.685,13.1,21.792,12.581-21.791,12.581L23.1,1235.364Zm22.685,13.1,21.792,12.582-21.791,12.581-21.792-12.582Zm22.686,13.1,21.791,12.581-21.791,12.581L68.47,1261.558Zm22.685,13.1,21.791,12.581-21.791,12.581-21.792-12.581Zm22.685,13.1,21.791,12.581-21.791,12.581-21.792-12.581Zm22.685,13.1,21.792,12.582-21.792,12.581-21.791-12.581Zm22.685,13.1,21.792,12.581L181,1326.529l-21.792-12.582Zm22.685,13.1,21.792,12.581-21.791,12.582-21.793-12.582Zm22.686,13.1,21.792,12.581-21.792,12.582-21.792-12.582Zm22.685,13.1,21.791,12.581-21.792,12.581-21.791-12.581Zm22.684,13.1,21.792,12.581-21.792,12.582-21.791-12.582Zm22.686,13.1,21.792,12.581-21.792,12.582-21.792-12.582Zm.893-.516,21.791-12.581,21.793,12.582-21.791,12.581Zm22.685-13.1,21.791-12.581,21.792,12.581L339.8,1365.821Zm22.684-13.1,21.792-12.581,21.793,12.581-21.792,12.582Zm22.686-13.1,21.792-12.581,21.792,12.582-21.792,12.581Zm22.685-13.1,21.791-12.581,21.792,12.581-21.791,12.581Zm22.684-13.1,21.792-12.581,21.792,12.582-21.792,12.581Zm22.686-13.1,21.791-12.581,21.792,12.582-21.791,12.581Zm22.685-13.1,21.792-12.582,21.791,12.582-21.791,12.581Zm22.685-13.1,21.791-12.581,21.792,12.582-21.791,12.58Zm22.684-13.1,21.793-12.582,21.792,12.581-21.793,12.582Zm22.686-13.1,21.792-12.582,21.792,12.582-21.792,12.581Zm22.685-13.1,21.792-12.582,21.792,12.582-21.792,12.581Zm22.685-13.1,21.791-12.581,21.792,12.581-21.791,12.581Zm22.685-13.1,21.792-12.582,21.792,12.582-21.792,12.581Zm22.685-13.1L634.7,1170.4l21.792,12.581L634.7,1195.558Zm22.685-13.1,21.792-12.581,21.792,12.581-21.792,12.581Zm22.686-13.1L680.07,1144.2l21.791,12.582-21.791,12.581Zm22.683-13.1,21.792-12.581,21.792,12.581-21.792,12.581Zm43.583-26.194-21.791,12.58-21.791-12.58,21.791-12.582Zm-22.684-13.1-21.791,12.58-21.792-12.58,21.792-12.581Zm-22.685-13.1-21.792,12.58-21.791-12.58,21.791-12.581Zm-22.686-13.1L634.7,1090.78l-21.791-12.58,21.791-12.581ZM633.8,1065.1l-21.791,12.581L590.223,1065.1l21.791-12.581ZM611.12,1052l-21.791,12.581L567.538,1052l21.791-12.581Zm-22.686-13.1-21.791,12.581-21.791-12.581,21.791-12.58Zm-22.684-13.1-21.791,12.581-21.791-12.581,21.791-12.58Zm-22.686-13.1-21.791,12.581-21.79-12.58,21.791-12.581Zm-22.685-13.1L498.589,1012.2,476.8,999.616l21.791-12.581Zm-22.685-13.1L475.9,999.1l-21.791-12.581L475.9,973.938Zm-22.685-13.1L453.219,986l-21.791-12.581,21.791-12.581Zm-22.685-13.1-21.791,12.581-21.791-12.581,21.791-12.581Zm-22.685-13.1-21.791,12.58-21.791-12.58,21.791-12.581Zm-22.685-13.1-21.791,12.581-21.792-12.582,21.791-12.58Zm-22.686-13.1-21.791,12.581-21.791-12.581,21.791-12.581Zm-22.684-13.1-21.791,12.581L318,907.935l21.791-12.581Zm-22.686-13.1-21.791,12.581-21.791-12.581,21.791-12.58Zm-44.477-25.679,21.792,12.582-21.791,12.58-21.791-12.581Zm-22.684,13.1,21.791,12.581-21.791,12.581-21.791-12.581Zm-22.686,13.1,21.792,12.581-21.791,12.581-21.791-12.581Zm-22.684,13.1,21.791,12.581-21.791,12.581-21.791-12.582Zm-22.685,13.1,21.791,12.581L203.684,946.71l-21.791-12.581ZM181,934.645l21.791,12.581L181,959.808l-21.791-12.581Zm-22.685,13.1,21.791,12.581L158.314,972.9l-21.791-12.581Zm-22.685,13.1L157.42,973.42,135.629,986,113.839,973.42Zm-22.685,13.1,21.791,12.581L112.945,999.1,91.154,986.518Zm-22.685,13.1,21.791,12.581L90.26,1012.2,68.469,999.615Zm-22.685,13.1,21.791,12.581-21.791,12.58-21.791-12.581Zm-22.685,13.1,21.791,12.58L44.89,1038.39,23.1,1025.809Zm-22.685,13.1L44,1038.906l-21.79,12.581L.414,1038.906Zm-22.685,13.1L21.311,1052-.48,1064.585-22.272,1052Zm-22.686,13.1L-1.374,1065.1l-21.791,12.58-21.791-12.58Zm-22.684,13.1,21.791,12.581-21.791,12.58L-67.64,1078.2Zm-22.685,13.1,21.792,12.581-21.792,12.581-21.791-12.58Zm-22.685,13.1,21.792,12.581-21.792,12.58-21.792-12.58Zm-22.685,13.1,21.792,12.581-21.792,12.581L-135.7,1117.49Zm-22.685,13.1,21.791,12.581-21.791,12.581-21.791-12.582Zm-44.476,25.678,21.792-12.581,21.791,12.581-21.791,12.581Zm22.685,13.1,21.791-12.582,21.792,12.582-21.792,12.581Zm22.685,13.1L-113.9,1157.3l21.792,12.582-21.792,12.581Zm22.686,13.1,21.791-12.582,21.792,12.582-21.792,12.581Zm22.685,13.1,21.792-12.581,21.79,12.581-21.791,12.581Zm22.684,13.1,21.792-12.581,21.792,12.581-21.792,12.581Zm22.685,13.1,21.792-12.581,21.792,12.582-21.791,12.581Zm22.686,13.1,21.791-12.582,21.792,12.582L-.478,1247.945Zm22.685,13.1,21.792-12.581L44,1248.461l-21.792,12.582Zm22.685,13.1,21.792-12.581,21.792,12.581L44.892,1274.14Zm22.685,13.1,21.792-12.581,21.791,12.581-21.791,12.581Zm22.685,13.1,21.792-12.582,21.792,12.582-21.792,12.581Zm22.685,13.1,21.792-12.581,21.792,12.582-21.792,12.581Zm22.685,13.1,21.792-12.581,21.792,12.581-21.792,12.581Zm22.686,13.1,21.791-12.581,21.792,12.581-21.792,12.581Zm22.685,13.1L181,1327.56l21.793,12.581L181,1352.723Zm22.685,13.1,21.792-12.581,21.792,12.581-21.792,12.581Zm22.686,13.1,21.791-12.582,21.791,12.581-21.791,12.582Zm22.684,13.1,21.791-12.581,21.792,12.581-21.791,12.581Zm22.685,13.1,21.791-12.581,21.792,12.581-21.791,12.581Zm44.477,25.678-21.791-12.581,21.791-12.581,21.792,12.581Zm22.685-13.1-21.791-12.581,21.792-12.581L338.9,1392.53Zm22.685-13.1-21.791-12.582,21.79-12.581,21.792,12.582Zm22.684-13.1-21.791-12.581,21.792-12.581,21.791,12.581Zm22.686-13.1-21.792-12.581,21.792-12.581,21.792,12.581Zm22.685-13.1-21.791-12.582,21.791-12.581,21.791,12.581Zm22.685-13.1-21.792-12.581,21.791-12.581,21.792,12.581Zm22.685-13.1-21.792-12.582,21.792-12.581,21.791,12.581Zm22.685-13.1-21.792-12.581,21.792-12.582L497.7,1300.85Zm22.684-13.1L476.8,1287.754l21.792-12.582,21.791,12.581Zm22.686-13.1-21.792-12.581,21.791-12.581,21.792,12.581Zm22.685-13.1-21.792-12.582,21.792-12.581,21.792,12.581Zm22.685-13.1-21.792-12.582,21.792-12.581,21.791,12.581Zm22.685-13.1-21.791-12.581,21.791-12.582,21.792,12.581Zm22.685-13.1-21.791-12.581,21.791-12.581,21.792,12.581Zm22.684-13.1-21.791-12.582,21.791-12.581,21.792,12.581Zm22.686-13.1-21.792-12.581,21.792-12.582,21.791,12.582Zm22.685-13.1-21.791-12.581L680.07,1170.4l21.792,12.581Zm22.685-13.1-21.792-12.581,21.791-12.581,21.792,12.581Zm22.684-13.1-21.791-12.581,21.791-12.582,21.792,12.582Zm22.686-13.1-21.792-12.581,21.792-12.581,21.791,12.581Z" transform="translate(-11845.479 -10617.33)"/><path class="d" d="M294.647,868.257l-.224-.129-476.6,275.168-.671.387L294.2,1419.112l.223.128,476.607-275.168.67-.386ZM747.23,1130.588l-21.792,12.581-21.791-12.581,21.791-12.581Zm-451.912,0,21.792-12.582,21.791,12.581-21.792,12.582Zm20.9,13.1-21.791,12.581-21.79-12.581,21.79-12.581Zm-21.791-13.614-21.791-12.58,21.791-12.581,21.792,12.581Zm-.894.517-21.79,12.58-21.792-12.581,21.791-12.581Zm-22.684,13.1-21.791,12.581-21.792-12.581,21.791-12.581Zm.894.516,21.79,12.581-21.79,12.581-21.791-12.581Zm22.684,13.1,21.792,12.581-21.792,12.582-21.791-12.582Zm.894-.515,21.791-12.581,21.792,12.581-21.791,12.581Zm22.685-13.1L339.8,1131.1l21.791,12.581L339.8,1156.265Zm22.685-13.1,21.791-12.581,21.792,12.581-21.792,12.581Zm-.893-.516L318,1117.49l21.791-12.581,21.791,12.581Zm-22.685-13.1-21.792-12.58,21.792-12.581,21.791,12.581Zm-22.686-13.1-21.791-12.58,21.791-12.581,21.791,12.581Zm-.894.517-21.791,12.58-21.791-12.58,21.791-12.581Zm-22.685,13.1-21.791,12.58-21.791-12.581,21.791-12.58Zm-22.684,13.1-21.792,12.581-21.791-12.581,21.791-12.581Zm-22.686,13.1-21.791,12.581-21.791-12.581,21.791-12.581Zm.894.516,21.792,12.581-21.791,12.581-21.792-12.581Zm22.686,13.1,21.791,12.58-21.792,12.582-21.791-12.581Zm22.685,13.1,21.79,12.581-21.79,12.581-21.792-12.581Zm22.684,13.1,21.792,12.581-21.791,12.581-21.792-12.581Zm.894-.516,21.792-12.581,21.791,12.581-21.791,12.581Zm22.686-13.1L339.8,1157.3l21.791,12.581L339.8,1182.46Zm22.684-13.1L362.48,1144.2l21.791,12.581-21.792,12.581Zm22.686-13.1,21.791-12.581,21.791,12.581-21.791,12.581Zm22.685-13.1,21.791-12.581,21.792,12.581-21.792,12.582Zm-.894-.516-21.791-12.58,21.791-12.581,21.791,12.581Zm-22.686-13.1-21.791-12.58,21.792-12.581,21.791,12.581Zm-22.684-13.1L318,1091.3l21.791-12.581,21.791,12.581Zm-22.686-13.1-21.791-12.58,21.791-12.581L338.9,1078.2Zm-22.685-13.1L272.634,1065.1l21.791-12.581,21.791,12.581Zm-.894.516-21.791,12.58-21.791-12.58,21.791-12.581Zm-22.685,13.1-21.791,12.58-21.791-12.58,21.791-12.581Zm-22.685,13.1-21.791,12.58-21.791-12.58,21.791-12.581Zm-22.685,13.1-21.791,12.581-21.791-12.581,21.791-12.581Zm-22.685,13.1L181,1143.168l-21.791-12.581L181,1118.006Zm-22.684,13.1-21.792,12.581-21.791-12.581,21.791-12.581Zm.893.516,21.792,12.581L181,1169.363l-21.791-12.581Zm22.685,13.1,21.792,12.582-21.792,12.581-21.791-12.581Zm22.686,13.1,21.791,12.581-21.792,12.581-21.791-12.581Zm22.684,13.1,21.792,12.581-21.792,12.581-21.791-12.581Zm22.686,13.1,21.791,12.581-21.791,12.581-21.792-12.581Zm22.685,13.1,21.791,12.582-21.792,12.581-21.791-12.581Zm.894-.515,21.791-12.581L338.9,1209.17l-21.792,12.581Zm22.685-13.1,21.791-12.581,21.791,12.581L339.8,1208.654Zm22.684-13.1,21.791-12.58,21.792,12.581-21.791,12.581Zm22.685-13.1,21.792-12.581,21.792,12.581-21.792,12.581Zm22.686-13.1L407.85,1144.2l21.792,12.581-21.792,12.581Zm22.684-13.1,21.792-12.581,21.791,12.581-21.791,12.581Zm22.686-13.1,21.791-12.58,21.791,12.581-21.791,12.581Zm-.894-.516-21.791-12.58,21.79-12.581,21.792,12.581Zm-22.685-13.1-21.791-12.58,21.791-12.581,21.791,12.581Zm-22.685-13.1-21.791-12.58,21.791-12.581,21.791,12.581Zm-22.685-13.1L340.688,1078.2l21.791-12.581L384.27,1078.2Zm-22.685-13.1L318,1065.1l21.79-12.58,21.792,12.581Zm-22.686-13.1L295.319,1052l21.791-12.581L338.9,1052Zm-22.685-13.1-21.791-12.581,21.791-12.58,21.791,12.581Zm-.894.516-21.791,12.581L249.949,1052l21.791-12.581Zm-22.685,13.1-21.791,12.581L227.264,1065.1l21.791-12.581Zm-22.684,13.1-21.792,12.58-21.792-12.58,21.792-12.581Zm-22.686,13.1-21.791,12.58-21.791-12.58,21.791-12.581Zm-22.685,13.1L181,1116.973l-21.791-12.581L181,1091.811Zm-22.684,13.1-21.791,12.581-21.792-12.581,21.791-12.581Zm-22.686,13.1-21.791,12.581-21.792-12.581,21.791-12.581Zm-22.685,13.1-21.791,12.581-21.792-12.581,21.791-12.581Zm.893.516,21.792,12.581-21.791,12.581-21.791-12.582Zm22.686,13.1,21.791,12.582-21.79,12.58-21.792-12.581Zm22.685,13.1,21.792,12.582L181,1195.557l-21.792-12.581Zm22.685,13.1,21.791,12.581-21.791,12.581-21.791-12.581Zm22.685,13.1,21.792,12.581-21.791,12.581-21.792-12.582Zm22.685,13.1,21.792,12.582-21.791,12.581-21.792-12.582Zm22.686,13.1,21.79,12.582-21.79,12.58-21.791-12.581Zm22.684,13.1,21.792,12.581-21.791,12.581-21.791-12.581Zm.894-.515,21.792-12.582,21.792,12.581-21.792,12.582Zm22.686-13.1,21.791-12.582,21.791,12.582L339.8,1234.849Zm22.684-13.1,21.792-12.581,21.791,12.581-21.791,12.581Zm22.686-13.1,21.791-12.581,21.791,12.582-21.791,12.58Zm22.685-13.1,21.792-12.582,21.791,12.581-21.792,12.582Zm22.685-13.1,21.791-12.581,21.791,12.581-21.791,12.581Zm22.685-13.1,21.792-12.581,21.791,12.581-21.792,12.581Zm22.685-13.1,21.792-12.581,21.791,12.582-21.791,12.58Zm22.684-13.1,21.792-12.581,21.791,12.581-21.792,12.581Zm-.893-.517-21.791-12.58,21.791-12.581L497.7,1117.49Zm-22.685-13.1-21.792-12.58,21.792-12.581,21.791,12.581Zm-22.686-13.1L408.743,1091.3l21.791-12.581,21.792,12.581Zm-22.684-13.1-21.791-12.58,21.791-12.581,21.791,12.58Zm-22.686-13.1-21.791-12.58,21.791-12.581,21.792,12.581Zm-22.685-13.1L340.688,1052l21.791-12.581L384.27,1052Zm-22.685-13.1L318,1038.907l21.792-12.581,21.791,12.58Zm-22.685-13.1-21.791-12.581,21.791-12.581L338.9,1025.81Zm-22.685-13.1-21.791-12.581,21.791-12.581,21.791,12.581Zm-.894.516-21.791,12.581-21.791-12.582,21.791-12.58Zm-22.685,13.1-21.791,12.581-21.792-12.581,21.792-12.581ZM248.161,1052l-21.791,12.581L204.579,1052l21.791-12.581Zm-22.685,13.1-21.791,12.581L181.894,1065.1l21.791-12.581Zm-22.685,13.1L181,1090.779l-21.791-12.58L181,1065.617Zm-22.685,13.1-21.791,12.58-21.792-12.58,21.792-12.582Zm-22.685,13.1-21.791,12.579-21.791-12.58,21.79-12.581Zm-22.685,13.1-21.792,12.581L91.154,1117.49l21.791-12.581Zm-22.685,13.1-21.791,12.581-21.792-12.581,21.791-12.581Zm-22.685,13.1-21.791,12.581-21.792-12.581L67.575,1131.1Zm.894.515,21.792,12.582-21.792,12.581-21.792-12.582Zm22.685,13.1,21.792,12.581-21.792,12.581-21.791-12.581Zm22.685,13.1,21.792,12.581-21.792,12.581-21.791-12.581Zm22.685,13.1,21.792,12.581-21.791,12.581-21.792-12.581Zm22.686,13.1,21.791,12.581L181,1221.751l-21.791-12.581Zm22.684,13.1,21.792,12.581-21.792,12.582-21.791-12.582Zm22.686,13.1,21.791,12.581-21.791,12.581-21.792-12.581Zm22.685,13.1,21.792,12.581-21.792,12.581-21.792-12.581Zm22.685,13.1,21.791,12.582-21.791,12.581-21.791-12.581Zm22.685,13.1,21.792,12.582-21.791,12.581-21.792-12.581Zm.894-.515,21.791-12.581,21.792,12.581-21.791,12.581Zm22.685-13.1L339.8,1235.88l21.792,12.581L339.8,1261.044Zm22.684-13.1,21.792-12.581,21.792,12.582-21.792,12.581Zm22.686-13.1,21.791-12.582,21.792,12.582-21.791,12.581Zm22.685-13.1,21.791-12.581,21.792,12.581-21.791,12.581Zm22.684-13.1,21.792-12.582,21.792,12.582-21.792,12.581Zm22.686-13.1,21.792-12.582,21.791,12.582-21.791,12.581Zm22.685-13.1,21.792-12.581,21.791,12.581-21.791,12.581Zm22.685-13.1L498.59,1144.2l21.792,12.582-21.791,12.58Zm22.685-13.1,21.791-12.582,21.792,12.582-21.792,12.581Zm22.685-13.1,21.792-12.581,21.791,12.581-21.791,12.581Zm-.894-.517-21.791-12.58,21.791-12.581,21.791,12.581Zm-22.686-13.1-21.791-12.58,21.792-12.581,21.791,12.581Zm-22.684-13.1L454.114,1091.3l21.791-12.581L497.7,1091.3Zm-22.685-13.1L431.428,1078.2l21.792-12.581,21.791,12.581Zm-22.686-13.1-21.791-12.58,21.791-12.581,21.791,12.581Zm-22.684-13.1L386.059,1052l21.791-12.581L429.641,1052Zm-22.686-13.1-21.791-12.581,21.791-12.58,21.791,12.58Zm-22.685-13.1-21.791-12.581,21.791-12.581,21.791,12.581Zm-22.684-13.1L318,1012.713l21.791-12.58,21.792,12.58Zm-22.686-13.1-21.791-12.581,21.791-12.581L338.9,999.615Zm-22.685-13.1-21.792-12.581,21.791-12.581,21.791,12.582Zm-.894.516L271.74,1012.2l-21.791-12.581,21.791-12.581Zm-22.685,13.1-21.791,12.581-21.792-12.581,21.791-12.581Zm-22.685,13.1-21.791,12.58-21.792-12.581,21.792-12.58Zm-22.685,13.1-21.791,12.581-21.791-12.581,21.791-12.581ZM202.791,1052,181,1064.585,159.208,1052,181,1039.423Zm-22.685,13.1-21.791,12.58-21.791-12.58,21.79-12.581Zm-22.685,13.1-21.791,12.58L113.84,1078.2l21.79-12.581Zm-22.685,13.1-21.791,12.58L91.155,1091.3l21.79-12.581Zm-22.685,13.1-21.791,12.581-21.792-12.58,21.792-12.582Zm-22.686,13.1-21.79,12.581L45.784,1117.49l21.791-12.58Zm-22.684,13.1L44.89,1143.168,23.1,1130.587l21.792-12.581ZM44,1143.683l-21.792,12.582L.414,1143.684,22.206,1131.1Zm.894.516,21.791,12.581L44.89,1169.362,23.1,1156.781Zm22.685,13.1,21.792,12.581L67.576,1182.46l-21.792-12.582Zm22.685,13.1,21.792,12.581-21.792,12.581L68.47,1182.976Zm22.685,13.1,21.792,12.581-21.792,12.581-21.791-12.581Zm22.685,13.1,21.792,12.582-21.792,12.581L113.84,1209.17Zm22.686,13.1,21.791,12.581-21.792,12.582-21.791-12.582Zm22.685,13.1,21.791,12.581L181,1247.945l-21.791-12.581Zm22.685,13.1,21.791,12.582-21.792,12.581-21.791-12.581Zm22.685,13.1,21.792,12.582-21.792,12.581-21.792-12.581Zm22.685,13.1,21.792,12.581-21.792,12.582-21.792-12.581Zm22.685,13.1,21.792,12.581-21.792,12.582-21.791-12.582Zm22.686,13.1,21.791,12.581-21.791,12.582-21.792-12.582Zm.893-.516,21.792-12.581,21.792,12.581-21.792,12.582Zm22.686-13.1,21.79-12.581,21.792,12.581L339.8,1287.237Zm22.683-13.1,21.792-12.581,21.792,12.581-21.792,12.582Zm22.686-13.1,21.791-12.581,21.792,12.581-21.791,12.582Zm22.685-13.1,21.792-12.582,21.791,12.582-21.791,12.581Zm22.685-13.1,21.791-12.581,21.792,12.581-21.791,12.581Zm22.685-13.1,21.792-12.581,21.791,12.581-21.792,12.582Zm22.685-13.1,21.792-12.581,21.791,12.582-21.791,12.581Zm22.685-13.1,21.791-12.582,21.792,12.582-21.791,12.581Zm22.685-13.1,21.791-12.581,21.792,12.581-21.791,12.581Zm22.685-13.1L543.96,1144.2l21.792,12.582-21.792,12.581Zm22.685-13.1,21.791-12.582,21.792,12.582-21.792,12.581Zm22.685-13.1,21.792-12.581,21.791,12.581-21.791,12.581Zm-.894-.517-21.791-12.58,21.791-12.581,21.792,12.581Zm-22.684-13.1-21.792-12.58,21.792-12.581,21.791,12.581Zm-22.686-13.1-21.791-12.58,21.791-12.582,21.791,12.581Zm-22.686-13.1L476.8,1078.2l21.792-12.582L520.38,1078.2Zm-22.684-13.1-21.791-12.58,21.791-12.581L497.7,1065.1Zm-22.686-13.1L431.429,1052l21.791-12.581L475.011,1052Zm-22.685-13.1-21.791-12.581,21.791-12.581,21.792,12.581Zm-22.685-13.1-21.791-12.581,21.791-12.581,21.792,12.581Zm-22.685-13.1-21.791-12.581,21.791-12.58,21.791,12.58Zm-22.685-13.1-21.791-12.581,21.791-12.581,21.791,12.581Zm-22.685-13.1L318,986.519l21.791-12.581,21.791,12.581ZM317.109,986l-21.792-12.581,21.791-12.581L338.9,973.421Zm-22.686-13.1-21.791-12.581,21.791-12.581,21.791,12.581Zm-.893.516L271.74,986l-21.791-12.58L271.74,960.84Zm-22.686,13.1L249.054,999.1l-21.791-12.581,21.791-12.58Zm-22.685,13.1L226.37,1012.2l-21.791-12.581,21.79-12.581Zm-22.684,13.1-21.791,12.581-21.791-12.581,21.791-12.581Zm-22.685,13.1L181,1038.39l-21.791-12.581,21.79-12.58Zm-22.685,13.1-21.791,12.581-21.791-12.581,21.791-12.581ZM157.42,1052l-21.79,12.581L113.84,1052l21.79-12.581Zm-22.684,13.1-21.791,12.581L91.155,1065.1l21.791-12.581Zm-22.685,13.1-21.791,12.58L68.47,1078.2l21.791-12.581Zm-22.685,13.1-21.792,12.58L45.784,1091.3l21.792-12.581Zm-22.685,13.1-21.791,12.58L23.1,1104.392l21.791-12.58ZM44,1117.49l-21.791,12.581L.415,1117.49l21.791-12.581Zm-22.685,13.1L-.479,1143.168l-21.792-12.581,21.792-12.581Zm-22.685,13.1-21.791,12.581-21.792-12.581,21.792-12.582Zm.894.515,21.791,12.581L-.48,1169.362l-21.791-12.58Zm22.685,13.1L44,1169.878l-21.792,12.581L.414,1169.878Zm22.685,13.1,21.792,12.581-21.792,12.581L23.1,1182.976Zm22.685,13.1,21.792,12.581-21.792,12.581-21.792-12.581Zm22.685,13.1,21.792,12.582-21.792,12.581L68.47,1209.17Zm22.685,13.1,21.792,12.581-21.792,12.582-21.791-12.582Zm22.686,13.1,21.791,12.581-21.792,12.581-21.791-12.581Zm22.685,13.1,21.791,12.582-21.792,12.581-21.791-12.581Zm22.685,13.1,21.791,12.582L181,1274.14l-21.791-12.581Zm22.684,13.1,21.792,12.581-21.792,12.582-21.791-12.582Zm22.686,13.1,21.792,12.581-21.792,12.582-21.792-12.582Zm22.685,13.1,21.792,12.581-21.792,12.582-21.792-12.582Zm22.685,13.1,21.792,12.581-21.792,12.581-21.791-12.581Zm22.686,13.1,21.791,12.58-21.792,12.582-21.791-12.581Zm.893-.516,21.792-12.581,21.791,12.581-21.792,12.581Zm22.686-13.1,21.79-12.581,21.792,12.581L339.8,1313.431Zm22.684-13.1,21.791-12.58,21.791,12.581-21.791,12.58Zm22.685-13.1,21.792-12.581,21.791,12.581-21.792,12.581Zm22.685-13.1,21.792-12.581,21.791,12.581-21.791,12.581Zm22.685-13.1,21.792-12.581,21.791,12.581-21.792,12.582Zm22.685-13.1,21.791-12.581,21.792,12.581-21.791,12.581Zm22.685-13.1,21.792-12.581,21.791,12.581-21.791,12.581Zm22.685-13.1,21.792-12.581,21.791,12.581-21.792,12.581Zm22.685-13.1,21.792-12.581,21.792,12.581-21.792,12.582Zm22.686-13.1L543.96,1170.4l21.791,12.581-21.791,12.581Zm22.684-13.1,21.791-12.581,21.792,12.581-21.792,12.581Zm22.685-13.1L589.33,1144.2l21.791,12.581-21.791,12.582Zm22.685-13.1,21.792-12.582,21.792,12.582-21.792,12.581Zm22.685-13.1,21.791-12.581,21.792,12.581L634.7,1143.169Zm-.893-.517-21.792-12.58,21.791-12.581,21.792,12.582Zm-22.685-13.1-21.792-12.581,21.791-12.58,21.792,12.581Zm-22.686-13.1-21.791-12.58,21.791-12.581,21.791,12.581Zm-22.685-13.1-21.791-12.58,21.791-12.581L565.75,1078.2Zm-22.685-13.1-21.791-12.58,21.791-12.581,21.791,12.581Zm-22.686-13.1L476.8,1052l21.791-12.58L520.379,1052Zm-22.684-13.1-21.791-12.581,21.791-12.58,21.791,12.58Zm-22.685-13.1-21.792-12.581,21.791-12.58,21.792,12.58Zm-22.686-13.1-21.791-12.581,21.791-12.58,21.791,12.58Zm-22.685-13.1-21.79-12.581,21.79-12.58,21.791,12.58Zm-22.685-13.1-21.791-12.581,21.791-12.581,21.791,12.581ZM362.479,986l-21.791-12.581,21.79-12.581,21.791,12.581Zm-22.685-13.1L318,960.324l21.79-12.581,21.792,12.581Zm-22.686-13.1-21.79-12.581,21.79-12.58,21.791,12.58Zm-22.685-13.1-21.791-12.581,21.791-12.58,21.791,12.581Zm-.893.516L271.74,959.808l-21.792-12.581,21.791-12.581Zm-22.686,13.1-21.79,12.581-21.792-12.581,21.791-12.581Zm-22.684,13.1L226.369,986l-21.791-12.581,21.791-12.581Zm-22.685,13.1L203.685,999.1l-21.791-12.581,21.79-12.581Zm-22.685,13.1L181,1012.2l-21.792-12.581L181,987.034Zm-22.685,13.1-21.791,12.581-21.792-12.582,21.791-12.58Zm-22.685,13.1-21.792,12.581-21.791-12.582,21.791-12.58Zm-22.685,13.1-21.791,12.581-21.792-12.581,21.791-12.581ZM112.051,1052l-21.791,12.581L68.469,1052l21.791-12.581Zm-22.685,13.1-21.791,12.58L45.784,1065.1l21.791-12.581Zm-22.685,13.1-21.791,12.58L23.1,1078.2l21.791-12.581ZM44,1091.3l-21.791,12.58L.414,1091.295l21.791-12.58Zm-22.685,13.1-21.791,12.58-21.792-12.581L-.48,1091.811Zm-22.685,13.1-21.791,12.581-21.792-12.581,21.792-12.581Zm-22.684,13.1-21.792,12.581-21.792-12.581,21.791-12.582Zm-22.686,13.1-21.792,12.581-21.791-12.581,21.791-12.582Zm.894.515,21.792,12.581-21.792,12.582-21.792-12.582Zm22.685,13.1,21.791,12.581-21.792,12.581-21.791-12.581Zm22.684,13.1,21.792,12.582L-.48,1195.557l-21.792-12.581Zm22.686,13.1L44,1196.073l-21.792,12.581L.414,1196.072Zm22.685,13.1,21.792,12.582-21.792,12.581L23.1,1209.169Zm22.685,13.1,21.792,12.581-21.792,12.582-21.792-12.582Zm22.685,13.1,21.792,12.581-21.791,12.581L68.47,1235.364Zm22.685,13.1,21.792,12.581-21.792,12.581-21.791-12.581Zm22.685,13.1,21.792,12.582L135.63,1274.14l-21.791-12.582Zm22.686,13.1,21.791,12.581-21.791,12.581-21.792-12.581Zm22.685,13.1,21.791,12.581L181,1300.334l-21.792-12.581Zm22.684,13.1,21.792,12.581-21.791,12.581-21.792-12.581Zm22.686,13.1,21.792,12.581-21.791,12.581-21.792-12.581Zm22.685,13.1,21.792,12.581-21.791,12.581-21.792-12.582Zm22.685,13.1,21.791,12.581-21.791,12.581-21.791-12.581Zm22.685,13.1,21.792,12.581-21.791,12.581-21.792-12.581Zm.894-.516,21.791-12.581,21.792,12.581-21.792,12.582Zm22.685-13.1,21.791-12.581,21.792,12.581L339.8,1339.626Zm22.685-13.1,21.791-12.582,21.792,12.582-21.792,12.581Zm22.685-13.1,21.791-12.581,21.792,12.581-21.791,12.581Zm22.685-13.1,21.792-12.581,21.791,12.581-21.791,12.582Zm22.684-13.1,21.792-12.582,21.792,12.582-21.792,12.581Zm22.686-13.1,21.792-12.581,21.791,12.581-21.791,12.581Zm22.685-13.1,21.792-12.581,21.791,12.582-21.791,12.581Zm22.684-13.1,21.792-12.582,21.792,12.582-21.792,12.581Zm22.686-13.1,21.792-12.581,21.791,12.581-21.791,12.581Zm22.686-13.1,21.791-12.581,21.792,12.581-21.792,12.581Zm22.684-13.1,21.791-12.581,21.792,12.582-21.791,12.58Zm22.685-13.1,21.791-12.581,21.792,12.581-21.792,12.581Zm22.685-13.1,21.792-12.581,21.792,12.581-21.792,12.581Zm22.685-13.1L634.7,1144.2l21.792,12.581L634.7,1169.364Zm22.685-13.1,21.791-12.581,21.792,12.581-21.791,12.581Zm22.685-13.1,21.792-12.581,21.791,12.581-21.791,12.581Zm-.894-.516-21.791-12.58,21.791-12.582,21.792,12.582Zm-22.685-13.1-21.792-12.58,21.792-12.582,21.792,12.582Zm-22.685-13.1-21.791-12.58,21.792-12.581,21.791,12.581Zm-22.685-13.1-21.791-12.58,21.791-12.581L611.12,1078.2Zm-22.686-13.1L544.852,1065.1l21.792-12.581,21.791,12.581Zm-22.684-13.1L522.169,1052l21.791-12.581L565.75,1052Zm-22.686-13.1-21.791-12.581,21.792-12.581,21.791,12.581Zm-22.685-13.1L476.8,1025.81l21.791-12.58,21.791,12.58Zm-22.684-13.1-21.792-12.582,21.792-12.58,21.791,12.58Zm-22.686-13.1-21.791-12.58,21.791-12.581,21.791,12.58Zm-22.686-13.1-21.79-12.581,21.791-12.581,21.791,12.581ZM407.849,986l-21.791-12.581,21.791-12.581,21.792,12.581Zm-22.685-13.1-21.791-12.581,21.791-12.581,21.791,12.581Zm-22.686-13.1-21.791-12.581,21.791-12.581,21.791,12.582Zm-22.685-13.1L318,934.13l21.791-12.581,21.79,12.58Zm-22.685-13.1-21.791-12.581,21.791-12.581L338.9,921.033Zm-22.685-13.1-21.791-12.581,21.791-12.581,21.791,12.581Zm-.894.516-21.79,12.581-21.792-12.581,21.791-12.581Zm-22.685,13.1L249.054,946.71l-21.791-12.581,21.791-12.581Zm-22.685,13.1-21.791,12.581-21.791-12.581,21.791-12.581Zm-22.684,13.1-21.792,12.581-21.791-12.581,21.791-12.581Zm-22.686,13.1L181,986,159.208,973.42,181,960.84Zm-22.684,13.1L158.314,999.1l-21.791-12.581,21.791-12.581Zm-22.686,13.1L135.629,1012.2l-21.791-12.581,21.791-12.581Zm-22.685,13.1-21.791,12.581-21.791-12.582,21.791-12.58Zm-22.685,13.1-21.79,12.581-21.792-12.581,21.791-12.58Zm-22.685,13.1-21.791,12.581-21.791-12.581,21.791-12.581ZM66.681,1052l-21.79,12.58L23.1,1052l21.791-12.581ZM44,1065.1l-21.792,12.581L.414,1065.1l21.791-12.581Zm-22.686,13.1L-.48,1090.779-22.271,1078.2l21.79-12.58Zm-22.685,13.1-21.791,12.58-21.791-12.581,21.791-12.581Zm-22.684,13.1-21.792,12.58-21.791-12.58,21.791-12.581Zm-22.685,13.1-21.792,12.581-21.791-12.581,21.791-12.581Zm-22.685,13.1-21.792,12.581-21.792-12.581,21.792-12.582Zm-22.685,13.1-21.791,12.58-21.792-12.581L-113.9,1131.1Zm.893.515,21.792,12.581-21.791,12.581-21.792-12.581Zm22.685,13.1,21.792,12.581-21.79,12.581-21.793-12.581Zm22.686,13.1,21.791,12.581-21.791,12.581-21.791-12.581Zm22.684,13.1,21.792,12.581-21.791,12.582-21.792-12.582Zm22.685,13.1,21.793,12.581L-.479,1221.751l-21.792-12.581Zm22.686,13.1L44,1222.267l-21.791,12.581L.415,1222.267Zm22.685,13.1,21.792,12.581-21.791,12.581L23.1,1235.364Zm22.685,13.1,21.792,12.582-21.791,12.581-21.792-12.582Zm22.686,13.1,21.791,12.581-21.791,12.581L68.47,1261.558Zm22.685,13.1,21.791,12.581-21.791,12.581-21.792-12.581Zm22.685,13.1,21.791,12.581-21.791,12.581-21.792-12.581Zm22.685,13.1,21.792,12.582-21.792,12.581-21.791-12.581Zm22.685,13.1,21.792,12.581L181,1326.529l-21.792-12.582Zm22.685,13.1,21.792,12.581-21.791,12.582-21.793-12.582Zm22.686,13.1,21.792,12.581-21.792,12.582-21.792-12.582Zm22.685,13.1,21.791,12.581-21.792,12.581-21.791-12.581Zm22.684,13.1,21.792,12.581-21.792,12.582-21.791-12.582Zm22.686,13.1,21.792,12.581-21.792,12.582-21.792-12.582Zm.893-.516,21.791-12.581,21.793,12.582-21.791,12.581Zm22.685-13.1,21.791-12.581,21.792,12.581L339.8,1365.821Zm22.684-13.1,21.792-12.581,21.793,12.581-21.792,12.582Zm22.686-13.1,21.792-12.581,21.792,12.582-21.792,12.581Zm22.685-13.1,21.791-12.581,21.792,12.581-21.791,12.581Zm22.684-13.1,21.792-12.581,21.792,12.582-21.792,12.581Zm22.686-13.1,21.791-12.581,21.792,12.582-21.791,12.581Zm22.685-13.1,21.792-12.582,21.791,12.582-21.791,12.581Zm22.685-13.1,21.791-12.581,21.792,12.582-21.791,12.58Zm22.684-13.1,21.793-12.582,21.792,12.581-21.793,12.582Zm22.686-13.1,21.792-12.582,21.792,12.582-21.792,12.581Zm22.685-13.1,21.792-12.582,21.792,12.582-21.792,12.581Zm22.685-13.1,21.791-12.581,21.792,12.581-21.791,12.581Zm22.685-13.1,21.792-12.582,21.792,12.582-21.792,12.581Zm22.685-13.1L634.7,1170.4l21.792,12.581L634.7,1195.558Zm22.685-13.1,21.792-12.581,21.792,12.581-21.792,12.581Zm22.686-13.1L680.07,1144.2l21.791,12.582-21.791,12.581Zm22.683-13.1,21.792-12.581,21.792,12.581-21.792,12.581Zm43.583-26.194-21.791,12.58-21.791-12.58,21.791-12.582Zm-22.684-13.1-21.791,12.58-21.792-12.58,21.792-12.581Zm-22.685-13.1-21.792,12.58-21.791-12.58,21.791-12.581Zm-22.686-13.1L634.7,1090.78l-21.791-12.58,21.791-12.581ZM633.8,1065.1l-21.791,12.581L590.223,1065.1l21.791-12.581ZM611.12,1052l-21.791,12.581L567.538,1052l21.791-12.581Zm-22.686-13.1-21.791,12.581-21.791-12.581,21.791-12.58Zm-22.684-13.1-21.791,12.581-21.791-12.581,21.791-12.58Zm-22.686-13.1-21.791,12.581-21.79-12.58,21.791-12.581Zm-22.685-13.1L498.589,1012.2,476.8,999.616l21.791-12.581Zm-22.685-13.1L475.9,999.1l-21.791-12.581L475.9,973.938Zm-22.685-13.1L453.219,986l-21.791-12.581,21.791-12.581Zm-22.685-13.1-21.791,12.581-21.791-12.581,21.791-12.581Zm-22.685-13.1-21.791,12.58-21.791-12.58,21.791-12.581Zm-22.685-13.1-21.791,12.581-21.792-12.582,21.791-12.58Zm-22.686-13.1-21.791,12.581-21.791-12.581,21.791-12.581Zm-22.684-13.1-21.791,12.581L318,907.935l21.791-12.581Zm-22.686-13.1-21.791,12.581-21.791-12.581,21.791-12.58Zm-44.477-25.679,21.792,12.582-21.791,12.58-21.791-12.581Zm-22.684,13.1,21.791,12.581-21.791,12.581-21.791-12.581Zm-22.686,13.1,21.792,12.581-21.791,12.581-21.791-12.581Zm-22.684,13.1,21.791,12.581-21.791,12.581-21.791-12.582Zm-22.685,13.1,21.791,12.581L203.684,946.71l-21.791-12.581ZM181,934.645l21.791,12.581L181,959.808l-21.791-12.581Zm-22.685,13.1,21.791,12.581L158.314,972.9l-21.791-12.581Zm-22.685,13.1L157.42,973.42,135.629,986,113.839,973.42Zm-22.685,13.1,21.791,12.581L112.945,999.1,91.154,986.518Zm-22.685,13.1,21.791,12.581L90.26,1012.2,68.469,999.615Zm-22.685,13.1,21.791,12.581-21.791,12.58-21.791-12.581Zm-22.685,13.1,21.791,12.58L44.89,1038.39,23.1,1025.809Zm-22.685,13.1L44,1038.906l-21.79,12.581L.414,1038.906Zm-22.685,13.1L21.311,1052-.48,1064.585-22.272,1052Zm-22.686,13.1L-1.374,1065.1l-21.791,12.58-21.791-12.58Zm-22.684,13.1,21.791,12.581-21.791,12.58L-67.64,1078.2Zm-22.685,13.1,21.792,12.581-21.792,12.581-21.791-12.58Zm-22.685,13.1,21.792,12.581-21.792,12.58-21.792-12.58Zm-22.685,13.1,21.792,12.581-21.792,12.581L-135.7,1117.49Zm-22.685,13.1,21.791,12.581-21.791,12.581-21.791-12.582Zm-44.476,25.678,21.792-12.581,21.791,12.581-21.791,12.581Zm22.685,13.1,21.791-12.582,21.792,12.582-21.792,12.581Zm22.685,13.1L-113.9,1157.3l21.792,12.582-21.792,12.581Zm22.686,13.1,21.791-12.582,21.792,12.582-21.792,12.581Zm22.685,13.1,21.792-12.581,21.79,12.581-21.791,12.581Zm22.684,13.1,21.792-12.581,21.792,12.581-21.792,12.581Zm22.685,13.1,21.792-12.581,21.792,12.582-21.791,12.581Zm22.686,13.1,21.791-12.582,21.792,12.582L-.478,1247.945Zm22.685,13.1,21.792-12.581L44,1248.461l-21.792,12.582Zm22.685,13.1,21.792-12.581,21.792,12.581L44.892,1274.14Zm22.685,13.1,21.792-12.581,21.791,12.581-21.791,12.581Zm22.685,13.1,21.792-12.582,21.792,12.582-21.792,12.581Zm22.685,13.1,21.792-12.581,21.792,12.582-21.792,12.581Zm22.685,13.1,21.792-12.581,21.792,12.581-21.792,12.581Zm22.686,13.1,21.791-12.581,21.792,12.581-21.792,12.581Zm22.685,13.1L181,1327.56l21.793,12.581L181,1352.723Zm22.685,13.1,21.792-12.581,21.792,12.581-21.792,12.581Zm22.686,13.1,21.791-12.582,21.791,12.581-21.791,12.582Zm22.684,13.1,21.791-12.581,21.792,12.581-21.791,12.581Zm22.685,13.1,21.791-12.581,21.792,12.581-21.791,12.581Zm44.477,25.678-21.791-12.581,21.791-12.581,21.792,12.581Zm22.685-13.1-21.791-12.581,21.792-12.581L338.9,1392.53Zm22.685-13.1-21.791-12.582,21.79-12.581,21.792,12.582Zm22.684-13.1-21.791-12.581,21.792-12.581,21.791,12.581Zm22.686-13.1-21.792-12.581,21.792-12.581,21.792,12.581Zm22.685-13.1-21.791-12.582,21.791-12.581,21.791,12.581Zm22.685-13.1-21.792-12.581,21.791-12.581,21.792,12.581Zm22.685-13.1-21.792-12.582,21.792-12.581,21.791,12.581Zm22.685-13.1-21.792-12.581,21.792-12.582L497.7,1300.85Zm22.684-13.1L476.8,1287.754l21.792-12.582,21.791,12.581Zm22.686-13.1-21.792-12.581,21.791-12.581,21.792,12.581Zm22.685-13.1-21.792-12.582,21.792-12.581,21.792,12.581Zm22.685-13.1-21.792-12.582,21.792-12.581,21.791,12.581Zm22.685-13.1-21.791-12.581,21.791-12.582,21.792,12.581Zm22.685-13.1-21.791-12.581,21.791-12.581,21.792,12.581Zm22.684-13.1-21.791-12.582,21.791-12.581,21.792,12.581Zm22.686-13.1-21.792-12.581,21.792-12.582,21.791,12.582Zm22.685-13.1-21.791-12.581L680.07,1170.4l21.792,12.581Zm22.685-13.1-21.792-12.581,21.791-12.581,21.792,12.581Zm22.684-13.1-21.791-12.581,21.791-12.582,21.792,12.582Zm22.686-13.1-21.792-12.581,21.792-12.581,21.791,12.581Z" transform="translate(-12944.554 -10795.684)"/><path class="e" d="M502.924,73.57a1.7,1.7,0,1,1-1.7-1.7A1.7,1.7,0,0,1,502.924,73.57Z" transform="translate(-12503.379 -9784.873)"/><path class="e" d="M516.489,73.57a1.7,1.7,0,1,1-1.7-1.7A1.7,1.7,0,0,1,516.489,73.57Z" transform="translate(-12503.379 -9784.873)"/><path class="e" d="M530.054,73.57a1.7,1.7,0,1,1-1.7-1.7A1.7,1.7,0,0,1,530.054,73.57Z" transform="translate(-12503.379 -9784.873)"/><path class="e" d="M543.62,73.57a1.7,1.7,0,1,1-1.7-1.7A1.7,1.7,0,0,1,543.62,73.57Z" transform="translate(-12503.379 -9784.873)"/><path class="e" d="M557.185,73.57a1.7,1.7,0,1,1-1.7-1.7A1.7,1.7,0,0,1,557.185,73.57Z" transform="translate(-12503.379 -9784.873)"/><path class="e" d="M570.75,73.57a1.7,1.7,0,1,1-1.7-1.7A1.7,1.7,0,0,1,570.75,73.57Z" transform="translate(-12503.379 -9784.873)"/><path class="e" d="M496.141,82.237a1.7,1.7,0,1,1-1.695-1.7A1.7,1.7,0,0,1,496.141,82.237Z" transform="translate(-12503.379 -9784.873)"/><path class="e" d="M509.706,82.237a1.7,1.7,0,1,1-1.7-1.7A1.7,1.7,0,0,1,509.706,82.237Z" transform="translate(-12503.379 -9784.873)"/><path class="e" d="M523.272,82.237a1.7,1.7,0,1,1-1.7-1.7A1.7,1.7,0,0,1,523.272,82.237Z" transform="translate(-12503.379 -9784.873)"/><path class="e" d="M536.837,82.237a1.7,1.7,0,1,1-1.7-1.7A1.7,1.7,0,0,1,536.837,82.237Z" transform="translate(-12503.379 -9784.873)"/><path class="e" d="M550.4,82.237a1.7,1.7,0,1,1-1.7-1.7A1.7,1.7,0,0,1,550.4,82.237Z" transform="translate(-12503.379 -9784.873)"/><path class="e" d="M563.967,82.237a1.7,1.7,0,1,1-1.7-1.7A1.7,1.7,0,0,1,563.967,82.237Z" transform="translate(-12503.379 -9784.873)"/><path class="e" d="M502.924,91.657a1.7,1.7,0,1,1-1.7-1.7A1.7,1.7,0,0,1,502.924,91.657Z" transform="translate(-12503.379 -9784.873)"/><path class="e" d="M516.489,91.657a1.7,1.7,0,1,1-1.7-1.7A1.7,1.7,0,0,1,516.489,91.657Z" transform="translate(-12503.379 -9784.873)"/><path class="e" d="M530.054,91.657a1.7,1.7,0,1,1-1.7-1.7A1.7,1.7,0,0,1,530.054,91.657Z" transform="translate(-12503.379 -9784.873)"/><path class="e" d="M543.62,91.657a1.7,1.7,0,1,1-1.7-1.7A1.7,1.7,0,0,1,543.62,91.657Z" transform="translate(-12503.379 -9784.873)"/><path class="e" d="M557.185,91.657a1.7,1.7,0,1,1-1.7-1.7A1.7,1.7,0,0,1,557.185,91.657Z" transform="translate(-12503.379 -9784.873)"/><path class="e" d="M570.75,91.657a1.7,1.7,0,1,1-1.7-1.7A1.7,1.7,0,0,1,570.75,91.657Z" transform="translate(-12503.379 -9784.873)"/><path class="e" d="M496.141,100.324a1.7,1.7,0,1,1-1.695-1.7A1.7,1.7,0,0,1,496.141,100.324Z" transform="translate(-12503.379 -9784.873)"/><path class="e" d="M509.706,100.324a1.7,1.7,0,1,1-1.7-1.7A1.7,1.7,0,0,1,509.706,100.324Z" transform="translate(-12503.379 -9784.873)"/><path class="e" d="M523.272,100.324a1.7,1.7,0,1,1-1.7-1.7A1.7,1.7,0,0,1,523.272,100.324Z" transform="translate(-12503.379 -9784.873)"/><path class="e" d="M536.837,100.324a1.7,1.7,0,1,1-1.7-1.7A1.7,1.7,0,0,1,536.837,100.324Z" transform="translate(-12503.379 -9784.873)"/><path class="e" d="M550.4,100.324a1.7,1.7,0,1,1-1.7-1.7A1.7,1.7,0,0,1,550.4,100.324Z" transform="translate(-12503.379 -9784.873)"/><path class="e" d="M563.967,100.324a1.7,1.7,0,1,1-1.7-1.7A1.7,1.7,0,0,1,563.967,100.324Z" transform="translate(-12503.379 -9784.873)"/><path class="e" d="M502.924,73.57a1.7,1.7,0,1,1-1.7-1.7A1.7,1.7,0,0,1,502.924,73.57Z" transform="translate(-12420.379 -9784.873)"/><path class="e" d="M516.489,73.57a1.7,1.7,0,1,1-1.7-1.7A1.7,1.7,0,0,1,516.489,73.57Z" transform="translate(-12420.379 -9784.873)"/><path class="e" d="M530.054,73.57a1.7,1.7,0,1,1-1.7-1.7A1.7,1.7,0,0,1,530.054,73.57Z" transform="translate(-12420.379 -9784.873)"/><path class="e" d="M543.62,73.57a1.7,1.7,0,1,1-1.7-1.7A1.7,1.7,0,0,1,543.62,73.57Z" transform="translate(-12420.379 -9784.873)"/><path class="e" d="M557.185,73.57a1.7,1.7,0,1,1-1.7-1.7A1.7,1.7,0,0,1,557.185,73.57Z" transform="translate(-12420.379 -9784.873)"/><path class="e" d="M570.75,73.57a1.7,1.7,0,1,1-1.7-1.7A1.7,1.7,0,0,1,570.75,73.57Z" transform="translate(-12420.379 -9784.873)"/><path class="e" d="M496.141,82.237a1.7,1.7,0,1,1-1.695-1.7A1.7,1.7,0,0,1,496.141,82.237Z" transform="translate(-12420.379 -9784.873)"/><path class="e" d="M509.706,82.237a1.7,1.7,0,1,1-1.7-1.7A1.7,1.7,0,0,1,509.706,82.237Z" transform="translate(-12420.379 -9784.873)"/><path class="e" d="M523.272,82.237a1.7,1.7,0,1,1-1.7-1.7A1.7,1.7,0,0,1,523.272,82.237Z" transform="translate(-12420.379 -9784.873)"/><path class="e" d="M536.837,82.237a1.7,1.7,0,1,1-1.7-1.7A1.7,1.7,0,0,1,536.837,82.237Z" transform="translate(-12420.379 -9784.873)"/><path class="e" d="M550.4,82.237a1.7,1.7,0,1,1-1.7-1.7A1.7,1.7,0,0,1,550.4,82.237Z" transform="translate(-12420.379 -9784.873)"/><path class="e" d="M563.967,82.237a1.7,1.7,0,1,1-1.7-1.7A1.7,1.7,0,0,1,563.967,82.237Z" transform="translate(-12420.379 -9784.873)"/><path class="e" d="M502.924,91.657a1.7,1.7,0,1,1-1.7-1.7A1.7,1.7,0,0,1,502.924,91.657Z" transform="translate(-12420.379 -9784.873)"/><path class="e" d="M516.489,91.657a1.7,1.7,0,1,1-1.7-1.7A1.7,1.7,0,0,1,516.489,91.657Z" transform="translate(-12420.379 -9784.873)"/><path class="e" d="M530.054,91.657a1.7,1.7,0,1,1-1.7-1.7A1.7,1.7,0,0,1,530.054,91.657Z" transform="translate(-12420.379 -9784.873)"/><path class="e" d="M543.62,91.657a1.7,1.7,0,1,1-1.7-1.7A1.7,1.7,0,0,1,543.62,91.657Z" transform="translate(-12420.379 -9784.873)"/><path class="e" d="M557.185,91.657a1.7,1.7,0,1,1-1.7-1.7A1.7,1.7,0,0,1,557.185,91.657Z" transform="translate(-12420.379 -9784.873)"/><path class="e" d="M570.75,91.657a1.7,1.7,0,1,1-1.7-1.7A1.7,1.7,0,0,1,570.75,91.657Z" transform="translate(-12420.379 -9784.873)"/><path class="e" d="M496.141,100.324a1.7,1.7,0,1,1-1.695-1.7A1.7,1.7,0,0,1,496.141,100.324Z" transform="translate(-12420.379 -9784.873)"/><path class="e" d="M509.706,100.324a1.7,1.7,0,1,1-1.7-1.7A1.7,1.7,0,0,1,509.706,100.324Z" transform="translate(-12420.379 -9784.873)"/><path class="e" d="M523.272,100.324a1.7,1.7,0,1,1-1.7-1.7A1.7,1.7,0,0,1,523.272,100.324Z" transform="translate(-12420.379 -9784.873)"/><path class="e" d="M536.837,100.324a1.7,1.7,0,1,1-1.7-1.7A1.7,1.7,0,0,1,536.837,100.324Z" transform="translate(-12420.379 -9784.873)"/><path class="e" d="M550.4,100.324a1.7,1.7,0,1,1-1.7-1.7A1.7,1.7,0,0,1,550.4,100.324Z" transform="translate(-12420.379 -9784.873)"/><path class="e" d="M563.967,100.324a1.7,1.7,0,1,1-1.7-1.7A1.7,1.7,0,0,1,563.967,100.324Z" transform="translate(-12420.379 -9784.873)"/><path class="e" d="M502.924,73.57a1.7,1.7,0,1,1-1.7-1.7A1.7,1.7,0,0,1,502.924,73.57Z" transform="translate(-12337.379 -9784.873)"/><path class="e" d="M516.489,73.57a1.7,1.7,0,1,1-1.7-1.7A1.7,1.7,0,0,1,516.489,73.57Z" transform="translate(-12337.379 -9784.873)"/><path class="e" d="M530.054,73.57a1.7,1.7,0,1,1-1.7-1.7A1.7,1.7,0,0,1,530.054,73.57Z" transform="translate(-12337.379 -9784.873)"/><path class="e" d="M543.62,73.57a1.7,1.7,0,1,1-1.7-1.7A1.7,1.7,0,0,1,543.62,73.57Z" transform="translate(-12337.379 -9784.873)"/><path class="e" d="M557.185,73.57a1.7,1.7,0,1,1-1.7-1.7A1.7,1.7,0,0,1,557.185,73.57Z" transform="translate(-12337.379 -9784.873)"/><path class="e" d="M570.75,73.57a1.7,1.7,0,1,1-1.7-1.7A1.7,1.7,0,0,1,570.75,73.57Z" transform="translate(-12337.379 -9784.873)"/><path class="e" d="M496.141,82.237a1.7,1.7,0,1,1-1.695-1.7A1.7,1.7,0,0,1,496.141,82.237Z" transform="translate(-12337.379 -9784.873)"/><path class="e" d="M509.706,82.237a1.7,1.7,0,1,1-1.7-1.7A1.7,1.7,0,0,1,509.706,82.237Z" transform="translate(-12337.379 -9784.873)"/><path class="e" d="M523.272,82.237a1.7,1.7,0,1,1-1.7-1.7A1.7,1.7,0,0,1,523.272,82.237Z" transform="translate(-12337.379 -9784.873)"/><path class="e" d="M536.837,82.237a1.7,1.7,0,1,1-1.7-1.7A1.7,1.7,0,0,1,536.837,82.237Z" transform="translate(-12337.379 -9784.873)"/><path class="e" d="M550.4,82.237a1.7,1.7,0,1,1-1.7-1.7A1.7,1.7,0,0,1,550.4,82.237Z" transform="translate(-12337.379 -9784.873)"/><path class="e" d="M563.967,82.237a1.7,1.7,0,1,1-1.7-1.7A1.7,1.7,0,0,1,563.967,82.237Z" transform="translate(-12337.379 -9784.873)"/><path class="e" d="M502.924,91.657a1.7,1.7,0,1,1-1.7-1.7A1.7,1.7,0,0,1,502.924,91.657Z" transform="translate(-12337.379 -9784.873)"/><path class="e" d="M516.489,91.657a1.7,1.7,0,1,1-1.7-1.7A1.7,1.7,0,0,1,516.489,91.657Z" transform="translate(-12337.379 -9784.873)"/><path class="e" d="M530.054,91.657a1.7,1.7,0,1,1-1.7-1.7A1.7,1.7,0,0,1,530.054,91.657Z" transform="translate(-12337.379 -9784.873)"/><path class="e" d="M543.62,91.657a1.7,1.7,0,1,1-1.7-1.7A1.7,1.7,0,0,1,543.62,91.657Z" transform="translate(-12337.379 -9784.873)"/><path class="e" d="M557.185,91.657a1.7,1.7,0,1,1-1.7-1.7A1.7,1.7,0,0,1,557.185,91.657Z" transform="translate(-12337.379 -9784.873)"/><path class="e" d="M570.75,91.657a1.7,1.7,0,1,1-1.7-1.7A1.7,1.7,0,0,1,570.75,91.657Z" transform="translate(-12337.379 -9784.873)"/><path class="e" d="M496.141,100.324a1.7,1.7,0,1,1-1.695-1.7A1.7,1.7,0,0,1,496.141,100.324Z" transform="translate(-12337.379 -9784.873)"/><path class="e" d="M509.706,100.324a1.7,1.7,0,1,1-1.7-1.7A1.7,1.7,0,0,1,509.706,100.324Z" transform="translate(-12337.379 -9784.873)"/><path class="e" d="M523.272,100.324a1.7,1.7,0,1,1-1.7-1.7A1.7,1.7,0,0,1,523.272,100.324Z" transform="translate(-12337.379 -9784.873)"/><path class="e" d="M536.837,100.324a1.7,1.7,0,1,1-1.7-1.7A1.7,1.7,0,0,1,536.837,100.324Z" transform="translate(-12337.379 -9784.873)"/><path class="e" d="M550.4,100.324a1.7,1.7,0,1,1-1.7-1.7A1.7,1.7,0,0,1,550.4,100.324Z" transform="translate(-12337.379 -9784.873)"/><path class="e" d="M563.967,100.324a1.7,1.7,0,1,1-1.7-1.7A1.7,1.7,0,0,1,563.967,100.324Z" transform="translate(-12337.379 -9784.873)"/><g transform="translate(-12369.885 -9409.609)"><g transform="translate(-0.001 0)"><path class="f" d="M607.848,220.643c-2.076,0-3.046-1.752-3.9-3.3-.844-1.525-1.432-2.451-2.465-2.451s-1.619.926-2.464,2.451c-.856,1.547-1.826,3.3-3.9,3.3s-3.046-1.752-3.9-3.3c-.844-1.525-1.431-2.451-2.464-2.451V213.25c2.076,0,3.045,1.752,3.9,3.3.844,1.525,1.432,2.451,2.464,2.451s1.62-.926,2.464-2.451c.856-1.547,1.826-3.3,3.9-3.3s3.047,1.752,3.9,3.3c.844,1.525,1.432,2.451,2.464,2.451s1.621-.926,2.464-2.451c.856-1.547,1.827-3.3,3.9-3.3v1.643c-1.033,0-1.621.926-2.465,2.452C610.894,218.891,609.924,220.643,607.848,220.643Z" transform="translate(-588.75 -213.25)"/></g><g transform="translate(-0.001 7.393)"><path class="f" d="M607.848,229.643c-2.076,0-3.046-1.752-3.9-3.3-.844-1.525-1.432-2.451-2.465-2.451s-1.619.926-2.464,2.451c-.856,1.547-1.826,3.3-3.9,3.3s-3.046-1.752-3.9-3.3c-.844-1.525-1.431-2.451-2.464-2.451V222.25c2.076,0,3.045,1.752,3.9,3.3.844,1.525,1.432,2.451,2.464,2.451s1.62-.926,2.464-2.451c.856-1.547,1.826-3.3,3.9-3.3s3.047,1.752,3.9,3.3c.844,1.525,1.432,2.451,2.464,2.451s1.621-.926,2.464-2.451c.856-1.547,1.827-3.3,3.9-3.3v1.643c-1.033,0-1.621.926-2.465,2.452C610.894,227.891,609.924,229.643,607.848,229.643Z" transform="translate(-588.75 -222.25)"/></g></g><g transform="translate(-12420.815 -9409.609)"><g transform="translate(0 0)"><path class="f" d="M607.848,220.643c-2.076,0-3.046-1.752-3.9-3.3-.844-1.525-1.432-2.451-2.465-2.451s-1.619.926-2.464,2.451c-.856,1.547-1.826,3.3-3.9,3.3s-3.046-1.752-3.9-3.3c-.844-1.525-1.431-2.451-2.464-2.451V213.25c2.076,0,3.045,1.752,3.9,3.3.844,1.525,1.432,2.451,2.464,2.451s1.62-.926,2.464-2.451c.856-1.547,1.826-3.3,3.9-3.3s3.047,1.752,3.9,3.3c.844,1.525,1.432,2.451,2.464,2.451s1.621-.926,2.464-2.451c.856-1.547,1.827-3.3,3.9-3.3v1.643c-1.033,0-1.621.926-2.465,2.452C610.894,218.891,609.924,220.643,607.848,220.643Z" transform="translate(-588.75 -213.25)"/></g><g transform="translate(0 7.393)"><path class="f" d="M607.848,229.643c-2.076,0-3.046-1.752-3.9-3.3-.844-1.525-1.432-2.451-2.465-2.451s-1.619.926-2.464,2.451c-.856,1.547-1.826,3.3-3.9,3.3s-3.046-1.752-3.9-3.3c-.844-1.525-1.431-2.451-2.464-2.451V222.25c2.076,0,3.045,1.752,3.9,3.3.844,1.525,1.432,2.451,2.464,2.451s1.62-.926,2.464-2.451c.856-1.547,1.826-3.3,3.9-3.3s3.047,1.752,3.9,3.3c.844,1.525,1.432,2.451,2.464,2.451s1.621-.926,2.464-2.451c.856-1.547,1.827-3.3,3.9-3.3v1.643c-1.033,0-1.621.926-2.465,2.452C610.894,227.891,609.924,229.643,607.848,229.643Z" transform="translate(-588.75 -222.25)"/></g></g><g transform="translate(-12395.351 -9409.609)"><g transform="translate(0 0)"><path class="f" d="M607.848,220.643c-2.076,0-3.046-1.752-3.9-3.3-.844-1.525-1.432-2.451-2.465-2.451s-1.619.926-2.464,2.451c-.856,1.547-1.826,3.3-3.9,3.3s-3.046-1.752-3.9-3.3c-.844-1.525-1.431-2.451-2.464-2.451V213.25c2.076,0,3.045,1.752,3.9,3.3.844,1.525,1.432,2.451,2.464,2.451s1.62-.926,2.464-2.451c.856-1.547,1.826-3.3,3.9-3.3s3.047,1.752,3.9,3.3c.844,1.525,1.432,2.451,2.464,2.451s1.621-.926,2.464-2.451c.856-1.547,1.827-3.3,3.9-3.3v1.643c-1.033,0-1.621.926-2.465,2.452C610.894,218.891,609.924,220.643,607.848,220.643Z" transform="translate(-588.75 -213.25)"/></g><g transform="translate(0 7.393)"><path class="f" d="M607.848,229.643c-2.076,0-3.046-1.752-3.9-3.3-.844-1.525-1.432-2.451-2.465-2.451s-1.619.926-2.464,2.451c-.856,1.547-1.826,3.3-3.9,3.3s-3.046-1.752-3.9-3.3c-.844-1.525-1.431-2.451-2.464-2.451V222.25c2.076,0,3.045,1.752,3.9,3.3.844,1.525,1.432,2.451,2.464,2.451s1.62-.926,2.464-2.451c.856-1.547,1.826-3.3,3.9-3.3s3.047,1.752,3.9,3.3c.844,1.525,1.432,2.451,2.464,2.451s1.621-.926,2.464-2.451c.856-1.547,1.827-3.3,3.9-3.3v1.643c-1.033,0-1.621.926-2.465,2.452C610.894,227.891,609.924,229.643,607.848,229.643Z" transform="translate(-588.75 -222.25)"/></g></g><g transform="translate(-12446.281 -9409.609)"><g transform="translate(0.001 0)"><path class="f" d="M607.848,220.643c-2.076,0-3.046-1.752-3.9-3.3-.844-1.525-1.432-2.451-2.465-2.451s-1.619.926-2.464,2.451c-.856,1.547-1.826,3.3-3.9,3.3s-3.046-1.752-3.9-3.3c-.844-1.525-1.431-2.451-2.464-2.451V213.25c2.076,0,3.045,1.752,3.9,3.3.844,1.525,1.432,2.451,2.464,2.451s1.62-.926,2.464-2.451c.856-1.547,1.826-3.3,3.9-3.3s3.047,1.752,3.9,3.3c.844,1.525,1.432,2.451,2.464,2.451s1.621-.926,2.464-2.451c.856-1.547,1.827-3.3,3.9-3.3v1.643c-1.033,0-1.621.926-2.465,2.452C610.894,218.891,609.924,220.643,607.848,220.643Z" transform="translate(-588.75 -213.25)"/></g><g transform="translate(0.001 7.393)"><path class="f" d="M607.848,229.643c-2.076,0-3.046-1.752-3.9-3.3-.844-1.525-1.432-2.451-2.465-2.451s-1.619.926-2.464,2.451c-.856,1.547-1.826,3.3-3.9,3.3s-3.046-1.752-3.9-3.3c-.844-1.525-1.431-2.451-2.464-2.451V222.25c2.076,0,3.045,1.752,3.9,3.3.844,1.525,1.432,2.451,2.464,2.451s1.62-.926,2.464-2.451c.856-1.547,1.826-3.3,3.9-3.3s3.047,1.752,3.9,3.3c.844,1.525,1.432,2.451,2.464,2.451s1.621-.926,2.464-2.451c.856-1.547,1.827-3.3,3.9-3.3v1.643c-1.033,0-1.621.926-2.465,2.452C610.894,227.891,609.924,229.643,607.848,229.643Z" transform="translate(-588.75 -222.25)"/></g></g><g transform="translate(-114 50)"><g transform="translate(-12388.082 -9451.748)"><path class="g" d="M502.924,73.57a1.7,1.7,0,1,1-1.7-1.7A1.7,1.7,0,0,1,502.924,73.57Z"/><path class="g" d="M516.489,73.57a1.7,1.7,0,1,1-1.7-1.7A1.7,1.7,0,0,1,516.489,73.57Z"/><path class="g" d="M530.054,73.57a1.7,1.7,0,1,1-1.7-1.7A1.7,1.7,0,0,1,530.054,73.57Z"/><path class="g" d="M543.62,73.57a1.7,1.7,0,1,1-1.7-1.7A1.7,1.7,0,0,1,543.62,73.57Z"/><path class="g" d="M557.185,73.57a1.7,1.7,0,1,1-1.7-1.7A1.7,1.7,0,0,1,557.185,73.57Z"/><path class="g" d="M570.75,73.57a1.7,1.7,0,1,1-1.7-1.7A1.7,1.7,0,0,1,570.75,73.57Z"/><path class="g" d="M496.141,82.237a1.7,1.7,0,1,1-1.695-1.7A1.7,1.7,0,0,1,496.141,82.237Z"/><path class="g" d="M509.706,82.237a1.7,1.7,0,1,1-1.7-1.7A1.7,1.7,0,0,1,509.706,82.237Z"/><path class="g" d="M523.272,82.237a1.7,1.7,0,1,1-1.7-1.7A1.7,1.7,0,0,1,523.272,82.237Z"/><path class="g" d="M536.837,82.237a1.7,1.7,0,1,1-1.7-1.7A1.7,1.7,0,0,1,536.837,82.237Z"/><path class="g" d="M550.4,82.237a1.7,1.7,0,1,1-1.7-1.7A1.7,1.7,0,0,1,550.4,82.237Z"/><path class="g" d="M563.967,82.237a1.7,1.7,0,1,1-1.7-1.7A1.7,1.7,0,0,1,563.967,82.237Z"/><path class="g" d="M502.924,91.657a1.7,1.7,0,1,1-1.7-1.7A1.7,1.7,0,0,1,502.924,91.657Z"/><path class="g" d="M516.489,91.657a1.7,1.7,0,1,1-1.7-1.7A1.7,1.7,0,0,1,516.489,91.657Z"/><path class="g" d="M530.054,91.657a1.7,1.7,0,1,1-1.7-1.7A1.7,1.7,0,0,1,530.054,91.657Z"/><path class="g" d="M543.62,91.657a1.7,1.7,0,1,1-1.7-1.7A1.7,1.7,0,0,1,543.62,91.657Z"/><path class="g" d="M557.185,91.657a1.7,1.7,0,1,1-1.7-1.7A1.7,1.7,0,0,1,557.185,91.657Z"/><path class="g" d="M570.75,91.657a1.7,1.7,0,1,1-1.7-1.7A1.7,1.7,0,0,1,570.75,91.657Z"/><path class="g" d="M496.141,100.324a1.7,1.7,0,1,1-1.695-1.7A1.7,1.7,0,0,1,496.141,100.324Z"/><path class="g" d="M509.706,100.324a1.7,1.7,0,1,1-1.7-1.7A1.7,1.7,0,0,1,509.706,100.324Z"/><path class="g" d="M523.272,100.324a1.7,1.7,0,1,1-1.7-1.7A1.7,1.7,0,0,1,523.272,100.324Z"/><path class="g" d="M536.837,100.324a1.7,1.7,0,1,1-1.7-1.7A1.7,1.7,0,0,1,536.837,100.324Z"/><path class="g" d="M550.4,100.324a1.7,1.7,0,1,1-1.7-1.7A1.7,1.7,0,0,1,550.4,100.324Z"/><path class="g" d="M563.967,100.324a1.7,1.7,0,1,1-1.7-1.7A1.7,1.7,0,0,1,563.967,100.324Z"/></g><g transform="translate(-12712.082 -9451.748)"><path class="g" d="M502.924,73.57a1.7,1.7,0,1,1-1.7-1.7A1.7,1.7,0,0,1,502.924,73.57Z"/><path class="g" d="M516.489,73.57a1.7,1.7,0,1,1-1.7-1.7A1.7,1.7,0,0,1,516.489,73.57Z"/><path class="g" d="M530.054,73.57a1.7,1.7,0,1,1-1.7-1.7A1.7,1.7,0,0,1,530.054,73.57Z"/><path class="g" d="M543.62,73.57a1.7,1.7,0,1,1-1.7-1.7A1.7,1.7,0,0,1,543.62,73.57Z"/><path class="g" d="M557.185,73.57a1.7,1.7,0,1,1-1.7-1.7A1.7,1.7,0,0,1,557.185,73.57Z"/><path class="g" d="M570.75,73.57a1.7,1.7,0,1,1-1.7-1.7A1.7,1.7,0,0,1,570.75,73.57Z"/><path class="g" d="M496.141,82.237a1.7,1.7,0,1,1-1.695-1.7A1.7,1.7,0,0,1,496.141,82.237Z"/><path class="g" d="M509.706,82.237a1.7,1.7,0,1,1-1.7-1.7A1.7,1.7,0,0,1,509.706,82.237Z"/><path class="g" d="M523.272,82.237a1.7,1.7,0,1,1-1.7-1.7A1.7,1.7,0,0,1,523.272,82.237Z"/><path class="g" d="M536.837,82.237a1.7,1.7,0,1,1-1.7-1.7A1.7,1.7,0,0,1,536.837,82.237Z"/><path class="g" d="M550.4,82.237a1.7,1.7,0,1,1-1.7-1.7A1.7,1.7,0,0,1,550.4,82.237Z"/><path class="g" d="M563.967,82.237a1.7,1.7,0,1,1-1.7-1.7A1.7,1.7,0,0,1,563.967,82.237Z"/><path class="g" d="M502.924,91.657a1.7,1.7,0,1,1-1.7-1.7A1.7,1.7,0,0,1,502.924,91.657Z"/><path class="g" d="M516.489,91.657a1.7,1.7,0,1,1-1.7-1.7A1.7,1.7,0,0,1,516.489,91.657Z"/><path class="g" d="M530.054,91.657a1.7,1.7,0,1,1-1.7-1.7A1.7,1.7,0,0,1,530.054,91.657Z"/><path class="g" d="M543.62,91.657a1.7,1.7,0,1,1-1.7-1.7A1.7,1.7,0,0,1,543.62,91.657Z"/><path class="g" d="M557.185,91.657a1.7,1.7,0,1,1-1.7-1.7A1.7,1.7,0,0,1,557.185,91.657Z"/><path class="g" d="M570.75,91.657a1.7,1.7,0,1,1-1.7-1.7A1.7,1.7,0,0,1,570.75,91.657Z"/><path class="g" d="M496.141,100.324a1.7,1.7,0,1,1-1.695-1.7A1.7,1.7,0,0,1,496.141,100.324Z"/><path class="g" d="M509.706,100.324a1.7,1.7,0,1,1-1.7-1.7A1.7,1.7,0,0,1,509.706,100.324Z"/><path class="g" d="M523.272,100.324a1.7,1.7,0,1,1-1.7-1.7A1.7,1.7,0,0,1,523.272,100.324Z"/><path class="g" d="M536.837,100.324a1.7,1.7,0,1,1-1.7-1.7A1.7,1.7,0,0,1,536.837,100.324Z"/><path class="g" d="M550.4,100.324a1.7,1.7,0,1,1-1.7-1.7A1.7,1.7,0,0,1,550.4,100.324Z"/><path class="g" d="M563.967,100.324a1.7,1.7,0,1,1-1.7-1.7A1.7,1.7,0,0,1,563.967,100.324Z"/></g><g transform="translate(-12550.082 -9451.748)"><path class="g" d="M502.924,73.57a1.7,1.7,0,1,1-1.7-1.7A1.7,1.7,0,0,1,502.924,73.57Z"/><path class="g" d="M516.489,73.57a1.7,1.7,0,1,1-1.7-1.7A1.7,1.7,0,0,1,516.489,73.57Z"/><path class="g" d="M530.054,73.57a1.7,1.7,0,1,1-1.7-1.7A1.7,1.7,0,0,1,530.054,73.57Z"/><path class="g" d="M543.62,73.57a1.7,1.7,0,1,1-1.7-1.7A1.7,1.7,0,0,1,543.62,73.57Z"/><path class="g" d="M557.185,73.57a1.7,1.7,0,1,1-1.7-1.7A1.7,1.7,0,0,1,557.185,73.57Z"/><path class="g" d="M570.75,73.57a1.7,1.7,0,1,1-1.7-1.7A1.7,1.7,0,0,1,570.75,73.57Z"/><path class="g" d="M496.141,82.237a1.7,1.7,0,1,1-1.695-1.7A1.7,1.7,0,0,1,496.141,82.237Z"/><path class="g" d="M509.706,82.237a1.7,1.7,0,1,1-1.7-1.7A1.7,1.7,0,0,1,509.706,82.237Z"/><path class="g" d="M523.272,82.237a1.7,1.7,0,1,1-1.7-1.7A1.7,1.7,0,0,1,523.272,82.237Z"/><path class="g" d="M536.837,82.237a1.7,1.7,0,1,1-1.7-1.7A1.7,1.7,0,0,1,536.837,82.237Z"/><path class="g" d="M550.4,82.237a1.7,1.7,0,1,1-1.7-1.7A1.7,1.7,0,0,1,550.4,82.237Z"/><path class="g" d="M563.967,82.237a1.7,1.7,0,1,1-1.7-1.7A1.7,1.7,0,0,1,563.967,82.237Z"/><path class="g" d="M502.924,91.657a1.7,1.7,0,1,1-1.7-1.7A1.7,1.7,0,0,1,502.924,91.657Z"/><path class="g" d="M516.489,91.657a1.7,1.7,0,1,1-1.7-1.7A1.7,1.7,0,0,1,516.489,91.657Z"/><path class="g" d="M530.054,91.657a1.7,1.7,0,1,1-1.7-1.7A1.7,1.7,0,0,1,530.054,91.657Z"/><path class="g" d="M543.62,91.657a1.7,1.7,0,1,1-1.7-1.7A1.7,1.7,0,0,1,543.62,91.657Z"/><path class="g" d="M557.185,91.657a1.7,1.7,0,1,1-1.7-1.7A1.7,1.7,0,0,1,557.185,91.657Z"/><path class="g" d="M570.75,91.657a1.7,1.7,0,1,1-1.7-1.7A1.7,1.7,0,0,1,570.75,91.657Z"/><path class="g" d="M496.141,100.324a1.7,1.7,0,1,1-1.695-1.7A1.7,1.7,0,0,1,496.141,100.324Z"/><path class="g" d="M509.706,100.324a1.7,1.7,0,1,1-1.7-1.7A1.7,1.7,0,0,1,509.706,100.324Z"/><path class="g" d="M523.272,100.324a1.7,1.7,0,1,1-1.7-1.7A1.7,1.7,0,0,1,523.272,100.324Z"/><path class="g" d="M536.837,100.324a1.7,1.7,0,1,1-1.7-1.7A1.7,1.7,0,0,1,536.837,100.324Z"/><path class="g" d="M550.4,100.324a1.7,1.7,0,1,1-1.7-1.7A1.7,1.7,0,0,1,550.4,100.324Z"/><path class="g" d="M563.967,100.324a1.7,1.7,0,1,1-1.7-1.7A1.7,1.7,0,0,1,563.967,100.324Z"/></g><g transform="translate(-12874.082 -9451.748)"><path class="g" d="M502.924,73.57a1.7,1.7,0,1,1-1.7-1.7A1.7,1.7,0,0,1,502.924,73.57Z"/><path class="g" d="M516.489,73.57a1.7,1.7,0,1,1-1.7-1.7A1.7,1.7,0,0,1,516.489,73.57Z"/><path class="g" d="M530.054,73.57a1.7,1.7,0,1,1-1.7-1.7A1.7,1.7,0,0,1,530.054,73.57Z"/><path class="g" d="M543.62,73.57a1.7,1.7,0,1,1-1.7-1.7A1.7,1.7,0,0,1,543.62,73.57Z"/><path class="g" d="M557.185,73.57a1.7,1.7,0,1,1-1.7-1.7A1.7,1.7,0,0,1,557.185,73.57Z"/><path class="g" d="M570.75,73.57a1.7,1.7,0,1,1-1.7-1.7A1.7,1.7,0,0,1,570.75,73.57Z"/><path class="g" d="M496.141,82.237a1.7,1.7,0,1,1-1.695-1.7A1.7,1.7,0,0,1,496.141,82.237Z"/><path class="g" d="M509.706,82.237a1.7,1.7,0,1,1-1.7-1.7A1.7,1.7,0,0,1,509.706,82.237Z"/><path class="g" d="M523.272,82.237a1.7,1.7,0,1,1-1.7-1.7A1.7,1.7,0,0,1,523.272,82.237Z"/><path class="g" d="M536.837,82.237a1.7,1.7,0,1,1-1.7-1.7A1.7,1.7,0,0,1,536.837,82.237Z"/><path class="g" d="M550.4,82.237a1.7,1.7,0,1,1-1.7-1.7A1.7,1.7,0,0,1,550.4,82.237Z"/><path class="g" d="M563.967,82.237a1.7,1.7,0,1,1-1.7-1.7A1.7,1.7,0,0,1,563.967,82.237Z"/><path class="g" d="M502.924,91.657a1.7,1.7,0,1,1-1.7-1.7A1.7,1.7,0,0,1,502.924,91.657Z"/><path class="g" d="M516.489,91.657a1.7,1.7,0,1,1-1.7-1.7A1.7,1.7,0,0,1,516.489,91.657Z"/><path class="g" d="M530.054,91.657a1.7,1.7,0,1,1-1.7-1.7A1.7,1.7,0,0,1,530.054,91.657Z"/><path class="g" d="M543.62,91.657a1.7,1.7,0,1,1-1.7-1.7A1.7,1.7,0,0,1,543.62,91.657Z"/><path class="g" d="M557.185,91.657a1.7,1.7,0,1,1-1.7-1.7A1.7,1.7,0,0,1,557.185,91.657Z"/><path class="g" d="M570.75,91.657a1.7,1.7,0,1,1-1.7-1.7A1.7,1.7,0,0,1,570.75,91.657Z"/><path class="g" d="M496.141,100.324a1.7,1.7,0,1,1-1.695-1.7A1.7,1.7,0,0,1,496.141,100.324Z"/><path class="g" d="M509.706,100.324a1.7,1.7,0,1,1-1.7-1.7A1.7,1.7,0,0,1,509.706,100.324Z"/><path class="g" d="M523.272,100.324a1.7,1.7,0,1,1-1.7-1.7A1.7,1.7,0,0,1,523.272,100.324Z"/><path class="g" d="M536.837,100.324a1.7,1.7,0,1,1-1.7-1.7A1.7,1.7,0,0,1,536.837,100.324Z"/><path class="g" d="M550.4,100.324a1.7,1.7,0,1,1-1.7-1.7A1.7,1.7,0,0,1,550.4,100.324Z"/><path class="g" d="M563.967,100.324a1.7,1.7,0,1,1-1.7-1.7A1.7,1.7,0,0,1,563.967,100.324Z"/></g><g transform="translate(-12469.082 -9451.748)"><path class="g" d="M502.924,73.57a1.7,1.7,0,1,1-1.7-1.7A1.7,1.7,0,0,1,502.924,73.57Z"/><path class="g" d="M516.489,73.57a1.7,1.7,0,1,1-1.7-1.7A1.7,1.7,0,0,1,516.489,73.57Z"/><path class="g" d="M530.054,73.57a1.7,1.7,0,1,1-1.7-1.7A1.7,1.7,0,0,1,530.054,73.57Z"/><path class="g" d="M543.62,73.57a1.7,1.7,0,1,1-1.7-1.7A1.7,1.7,0,0,1,543.62,73.57Z"/><path class="g" d="M557.185,73.57a1.7,1.7,0,1,1-1.7-1.7A1.7,1.7,0,0,1,557.185,73.57Z"/><path class="g" d="M570.75,73.57a1.7,1.7,0,1,1-1.7-1.7A1.7,1.7,0,0,1,570.75,73.57Z"/><path class="g" d="M496.141,82.237a1.7,1.7,0,1,1-1.695-1.7A1.7,1.7,0,0,1,496.141,82.237Z"/><path class="g" d="M509.706,82.237a1.7,1.7,0,1,1-1.7-1.7A1.7,1.7,0,0,1,509.706,82.237Z"/><path class="g" d="M523.272,82.237a1.7,1.7,0,1,1-1.7-1.7A1.7,1.7,0,0,1,523.272,82.237Z"/><path class="g" d="M536.837,82.237a1.7,1.7,0,1,1-1.7-1.7A1.7,1.7,0,0,1,536.837,82.237Z"/><path class="g" d="M550.4,82.237a1.7,1.7,0,1,1-1.7-1.7A1.7,1.7,0,0,1,550.4,82.237Z"/><path class="g" d="M563.967,82.237a1.7,1.7,0,1,1-1.7-1.7A1.7,1.7,0,0,1,563.967,82.237Z"/><path class="g" d="M502.924,91.657a1.7,1.7,0,1,1-1.7-1.7A1.7,1.7,0,0,1,502.924,91.657Z"/><path class="g" d="M516.489,91.657a1.7,1.7,0,1,1-1.7-1.7A1.7,1.7,0,0,1,516.489,91.657Z"/><path class="g" d="M530.054,91.657a1.7,1.7,0,1,1-1.7-1.7A1.7,1.7,0,0,1,530.054,91.657Z"/><path class="g" d="M543.62,91.657a1.7,1.7,0,1,1-1.7-1.7A1.7,1.7,0,0,1,543.62,91.657Z"/><path class="g" d="M557.185,91.657a1.7,1.7,0,1,1-1.7-1.7A1.7,1.7,0,0,1,557.185,91.657Z"/><path class="g" d="M570.75,91.657a1.7,1.7,0,1,1-1.7-1.7A1.7,1.7,0,0,1,570.75,91.657Z"/><path class="g" d="M496.141,100.324a1.7,1.7,0,1,1-1.695-1.7A1.7,1.7,0,0,1,496.141,100.324Z"/><path class="g" d="M509.706,100.324a1.7,1.7,0,1,1-1.7-1.7A1.7,1.7,0,0,1,509.706,100.324Z"/><path class="g" d="M523.272,100.324a1.7,1.7,0,1,1-1.7-1.7A1.7,1.7,0,0,1,523.272,100.324Z"/><path class="g" d="M536.837,100.324a1.7,1.7,0,1,1-1.7-1.7A1.7,1.7,0,0,1,536.837,100.324Z"/><path class="g" d="M550.4,100.324a1.7,1.7,0,1,1-1.7-1.7A1.7,1.7,0,0,1,550.4,100.324Z"/><path class="g" d="M563.967,100.324a1.7,1.7,0,1,1-1.7-1.7A1.7,1.7,0,0,1,563.967,100.324Z"/></g><g transform="translate(-12793.082 -9451.748)"><path class="g" d="M502.924,73.57a1.7,1.7,0,1,1-1.7-1.7A1.7,1.7,0,0,1,502.924,73.57Z"/><path class="g" d="M516.489,73.57a1.7,1.7,0,1,1-1.7-1.7A1.7,1.7,0,0,1,516.489,73.57Z"/><path class="g" d="M530.054,73.57a1.7,1.7,0,1,1-1.7-1.7A1.7,1.7,0,0,1,530.054,73.57Z"/><path class="g" d="M543.62,73.57a1.7,1.7,0,1,1-1.7-1.7A1.7,1.7,0,0,1,543.62,73.57Z"/><path class="g" d="M557.185,73.57a1.7,1.7,0,1,1-1.7-1.7A1.7,1.7,0,0,1,557.185,73.57Z"/><path class="g" d="M570.75,73.57a1.7,1.7,0,1,1-1.7-1.7A1.7,1.7,0,0,1,570.75,73.57Z"/><path class="g" d="M496.141,82.237a1.7,1.7,0,1,1-1.695-1.7A1.7,1.7,0,0,1,496.141,82.237Z"/><path class="g" d="M509.706,82.237a1.7,1.7,0,1,1-1.7-1.7A1.7,1.7,0,0,1,509.706,82.237Z"/><path class="g" d="M523.272,82.237a1.7,1.7,0,1,1-1.7-1.7A1.7,1.7,0,0,1,523.272,82.237Z"/><path class="g" d="M536.837,82.237a1.7,1.7,0,1,1-1.7-1.7A1.7,1.7,0,0,1,536.837,82.237Z"/><path class="g" d="M550.4,82.237a1.7,1.7,0,1,1-1.7-1.7A1.7,1.7,0,0,1,550.4,82.237Z"/><path class="g" d="M563.967,82.237a1.7,1.7,0,1,1-1.7-1.7A1.7,1.7,0,0,1,563.967,82.237Z"/><path class="g" d="M502.924,91.657a1.7,1.7,0,1,1-1.7-1.7A1.7,1.7,0,0,1,502.924,91.657Z"/><path class="g" d="M516.489,91.657a1.7,1.7,0,1,1-1.7-1.7A1.7,1.7,0,0,1,516.489,91.657Z"/><path class="g" d="M530.054,91.657a1.7,1.7,0,1,1-1.7-1.7A1.7,1.7,0,0,1,530.054,91.657Z"/><path class="g" d="M543.62,91.657a1.7,1.7,0,1,1-1.7-1.7A1.7,1.7,0,0,1,543.62,91.657Z"/><path class="g" d="M557.185,91.657a1.7,1.7,0,1,1-1.7-1.7A1.7,1.7,0,0,1,557.185,91.657Z"/><path class="g" d="M570.75,91.657a1.7,1.7,0,1,1-1.7-1.7A1.7,1.7,0,0,1,570.75,91.657Z"/><path class="g" d="M496.141,100.324a1.7,1.7,0,1,1-1.695-1.7A1.7,1.7,0,0,1,496.141,100.324Z"/><path class="g" d="M509.706,100.324a1.7,1.7,0,1,1-1.7-1.7A1.7,1.7,0,0,1,509.706,100.324Z"/><path class="g" d="M523.272,100.324a1.7,1.7,0,1,1-1.7-1.7A1.7,1.7,0,0,1,523.272,100.324Z"/><path class="g" d="M536.837,100.324a1.7,1.7,0,1,1-1.7-1.7A1.7,1.7,0,0,1,536.837,100.324Z"/><path class="g" d="M550.4,100.324a1.7,1.7,0,1,1-1.7-1.7A1.7,1.7,0,0,1,550.4,100.324Z"/><path class="g" d="M563.967,100.324a1.7,1.7,0,1,1-1.7-1.7A1.7,1.7,0,0,1,563.967,100.324Z"/></g><g transform="translate(-12631.082 -9451.748)"><path class="g" d="M502.924,73.57a1.7,1.7,0,1,1-1.7-1.7A1.7,1.7,0,0,1,502.924,73.57Z"/><path class="g" d="M516.489,73.57a1.7,1.7,0,1,1-1.7-1.7A1.7,1.7,0,0,1,516.489,73.57Z"/><path class="g" d="M530.054,73.57a1.7,1.7,0,1,1-1.7-1.7A1.7,1.7,0,0,1,530.054,73.57Z"/><path class="g" d="M543.62,73.57a1.7,1.7,0,1,1-1.7-1.7A1.7,1.7,0,0,1,543.62,73.57Z"/><path class="g" d="M557.185,73.57a1.7,1.7,0,1,1-1.7-1.7A1.7,1.7,0,0,1,557.185,73.57Z"/><path class="g" d="M570.75,73.57a1.7,1.7,0,1,1-1.7-1.7A1.7,1.7,0,0,1,570.75,73.57Z"/><path class="g" d="M496.141,82.237a1.7,1.7,0,1,1-1.695-1.7A1.7,1.7,0,0,1,496.141,82.237Z"/><path class="g" d="M509.706,82.237a1.7,1.7,0,1,1-1.7-1.7A1.7,1.7,0,0,1,509.706,82.237Z"/><path class="g" d="M523.272,82.237a1.7,1.7,0,1,1-1.7-1.7A1.7,1.7,0,0,1,523.272,82.237Z"/><path class="g" d="M536.837,82.237a1.7,1.7,0,1,1-1.7-1.7A1.7,1.7,0,0,1,536.837,82.237Z"/><path class="g" d="M550.4,82.237a1.7,1.7,0,1,1-1.7-1.7A1.7,1.7,0,0,1,550.4,82.237Z"/><path class="g" d="M563.967,82.237a1.7,1.7,0,1,1-1.7-1.7A1.7,1.7,0,0,1,563.967,82.237Z"/><path class="g" d="M502.924,91.657a1.7,1.7,0,1,1-1.7-1.7A1.7,1.7,0,0,1,502.924,91.657Z"/><path class="g" d="M516.489,91.657a1.7,1.7,0,1,1-1.7-1.7A1.7,1.7,0,0,1,516.489,91.657Z"/><path class="g" d="M530.054,91.657a1.7,1.7,0,1,1-1.7-1.7A1.7,1.7,0,0,1,530.054,91.657Z"/><path class="g" d="M543.62,91.657a1.7,1.7,0,1,1-1.7-1.7A1.7,1.7,0,0,1,543.62,91.657Z"/><path class="g" d="M557.185,91.657a1.7,1.7,0,1,1-1.7-1.7A1.7,1.7,0,0,1,557.185,91.657Z"/><path class="g" d="M570.75,91.657a1.7,1.7,0,1,1-1.7-1.7A1.7,1.7,0,0,1,570.75,91.657Z"/><path class="g" d="M496.141,100.324a1.7,1.7,0,1,1-1.695-1.7A1.7,1.7,0,0,1,496.141,100.324Z"/><path class="g" d="M509.706,100.324a1.7,1.7,0,1,1-1.7-1.7A1.7,1.7,0,0,1,509.706,100.324Z"/><path class="g" d="M523.272,100.324a1.7,1.7,0,1,1-1.7-1.7A1.7,1.7,0,0,1,523.272,100.324Z"/><path class="g" d="M536.837,100.324a1.7,1.7,0,1,1-1.7-1.7A1.7,1.7,0,0,1,536.837,100.324Z"/><path class="g" d="M550.4,100.324a1.7,1.7,0,1,1-1.7-1.7A1.7,1.7,0,0,1,550.4,100.324Z"/><path class="g" d="M563.967,100.324a1.7,1.7,0,1,1-1.7-1.7A1.7,1.7,0,0,1,563.967,100.324Z"/></g><g transform="translate(-12955.082 -9451.748)"><path class="g" d="M502.924,73.57a1.7,1.7,0,1,1-1.7-1.7A1.7,1.7,0,0,1,502.924,73.57Z"/><path class="g" d="M516.489,73.57a1.7,1.7,0,1,1-1.7-1.7A1.7,1.7,0,0,1,516.489,73.57Z"/><path class="g" d="M530.054,73.57a1.7,1.7,0,1,1-1.7-1.7A1.7,1.7,0,0,1,530.054,73.57Z"/><path class="g" d="M543.62,73.57a1.7,1.7,0,1,1-1.7-1.7A1.7,1.7,0,0,1,543.62,73.57Z"/><path class="g" d="M557.185,73.57a1.7,1.7,0,1,1-1.7-1.7A1.7,1.7,0,0,1,557.185,73.57Z"/><path class="g" d="M570.75,73.57a1.7,1.7,0,1,1-1.7-1.7A1.7,1.7,0,0,1,570.75,73.57Z"/><path class="g" d="M496.141,82.237a1.7,1.7,0,1,1-1.695-1.7A1.7,1.7,0,0,1,496.141,82.237Z"/><path class="g" d="M509.706,82.237a1.7,1.7,0,1,1-1.7-1.7A1.7,1.7,0,0,1,509.706,82.237Z"/><path class="g" d="M523.272,82.237a1.7,1.7,0,1,1-1.7-1.7A1.7,1.7,0,0,1,523.272,82.237Z"/><path class="g" d="M536.837,82.237a1.7,1.7,0,1,1-1.7-1.7A1.7,1.7,0,0,1,536.837,82.237Z"/><path class="g" d="M550.4,82.237a1.7,1.7,0,1,1-1.7-1.7A1.7,1.7,0,0,1,550.4,82.237Z"/><path class="g" d="M563.967,82.237a1.7,1.7,0,1,1-1.7-1.7A1.7,1.7,0,0,1,563.967,82.237Z"/><path class="g" d="M502.924,91.657a1.7,1.7,0,1,1-1.7-1.7A1.7,1.7,0,0,1,502.924,91.657Z"/><path class="g" d="M516.489,91.657a1.7,1.7,0,1,1-1.7-1.7A1.7,1.7,0,0,1,516.489,91.657Z"/><path class="g" d="M530.054,91.657a1.7,1.7,0,1,1-1.7-1.7A1.7,1.7,0,0,1,530.054,91.657Z"/><path class="g" d="M543.62,91.657a1.7,1.7,0,1,1-1.7-1.7A1.7,1.7,0,0,1,543.62,91.657Z"/><path class="g" d="M557.185,91.657a1.7,1.7,0,1,1-1.7-1.7A1.7,1.7,0,0,1,557.185,91.657Z"/><path class="g" d="M570.75,91.657a1.7,1.7,0,1,1-1.7-1.7A1.7,1.7,0,0,1,570.75,91.657Z"/><path class="g" d="M496.141,100.324a1.7,1.7,0,1,1-1.695-1.7A1.7,1.7,0,0,1,496.141,100.324Z"/><path class="g" d="M509.706,100.324a1.7,1.7,0,1,1-1.7-1.7A1.7,1.7,0,0,1,509.706,100.324Z"/><path class="g" d="M523.272,100.324a1.7,1.7,0,1,1-1.7-1.7A1.7,1.7,0,0,1,523.272,100.324Z"/><path class="g" d="M536.837,100.324a1.7,1.7,0,1,1-1.7-1.7A1.7,1.7,0,0,1,536.837,100.324Z"/><path class="g" d="M550.4,100.324a1.7,1.7,0,1,1-1.7-1.7A1.7,1.7,0,0,1,550.4,100.324Z"/><path class="g" d="M563.967,100.324a1.7,1.7,0,1,1-1.7-1.7A1.7,1.7,0,0,1,563.967,100.324Z"/></g></g></g></g></svg>