<svg xmlns="http://www.w3.org/2000/svg" width="89" height="89" viewBox="0 0 89 89"><defs><style>.a{fill:#b3ddff;}.b{fill:#ffcbbe;}.c{fill:#eaac9d;}.d{fill:#dd636e;}.e{fill:#da4a54;}.f{fill:#f9f6f9;}</style></defs><g transform="translate(-300 -1796)"><rect class="a" width="89" height="89" rx="5" transform="translate(300 1796)"/><g transform="translate(274.61 1862.656)"><g transform="translate(37.384 -59.656)"><path class="b" d="M51.724,255.28l-5.716,16.252-2.121,2.121,9.3,9.3,12.467-12.467,9.144-16.342-15.44-3.175A6.664,6.664,0,0,0,51.724,255.28Z" transform="translate(-43.887 -209.627)"/><path class="c" d="M160.83,291.791l.374.374,9.558-9.557-3.148-3.148-6.783,6.783A3.923,3.923,0,0,0,160.83,291.791Z" transform="translate(-144.315 -234.459)"/><ellipse class="d" cx="20.929" cy="22.175" rx="20.929" ry="22.175" transform="translate(4.251 29.593) rotate(-45)"/><path class="e" d="M168.5,50.468a22.6,22.6,0,0,1-18.6-6.61c-8.66-8.66-9.054-22.305-.881-30.478a20.438,20.438,0,0,1,17-5.729,20.07,20.07,0,0,0-11.883,5.729c-8.174,8.173-7.779,21.818.881,30.478A22.89,22.89,0,0,0,168.5,50.468Z" transform="translate(-129.975 1.411)"/><path class="f" d="M226.539,87.356l8.374-8.374a2.5,2.5,0,0,0-3.536-3.536L223,83.82l-8.374-8.374a2.5,2.5,0,1,0-3.536,3.536l8.374,8.374-8.374,8.374a2.5,2.5,0,1,0,3.536,3.536L223,90.892l8.374,8.374a2.5,2.5,0,0,0,3.536-3.536Z" transform="translate(-188.271 -56.884)"/><path class="b" d="M104.07,249.055,77.777,275.348l6.339,6.339,3.471-3.471,3.156.059a11.759,11.759,0,0,0,11.922-10.646l.321-3.4,8.13-8.13a4.983,4.983,0,0,0-7.046-7.047Z" transform="translate(-73.28 -206.825)"/><path class="c" d="M127.448,265.619a15.165,15.165,0,0,1-15.376,13.732l-3.471,3.471,2.249,2.249,3.471-3.471,3.156.058A11.759,11.759,0,0,0,129.4,271.012l.321-3.4,8.13-8.13a4.988,4.988,0,0,0-1.306-7.988,5,5,0,0,1-.942,5.739l-8.13,8.13Z" transform="translate(-100.014 -210.21)"/></g><g transform="translate(36.389 -51.74)"><path d="M224.394,75.089A1,1,0,1,0,225.8,76.5l3.307-3.307a3.5,3.5,0,0,0-4.944-4.944L216.5,75.917l-7.67-7.671a3.5,3.5,0,0,0-4.944,4.944l7.67,7.67-7.669,7.67a3.5,3.5,0,1,0,4.943,4.943L216.5,85.8l7.67,7.67a3.5,3.5,0,1,0,4.944-4.942l-7.67-7.671,1.547-1.547a1,1,0,0,0-1.407-1.408l-2.251,2.251a1,1,0,0,0,0,1.407l8.374,8.375a1.5,1.5,0,0,1-2.13,2.127L217.2,83.692a1,1,0,0,0-1.407,0l-8.373,8.373a1.5,1.5,0,1,1-2.129-2.128l8.373-8.375a1,1,0,0,0,0-1.407l-8.373-8.373a1.505,1.505,0,0,1,2.129-2.129l8.373,8.375a1,1,0,0,0,1.408,0l8.373-8.375a1.505,1.505,0,1,1,2.129,2.129Z" transform="translate(-180.768 -58.303)"/><path d="M94.663,23.151A24.116,24.116,0,0,0,71.522.01a21.066,21.066,0,0,0-21.9,19.7,23.377,23.377,0,0,0,2.744,12.63,7.691,7.691,0,0,0-8.078,5.07l-1.161,3.3A1,1,0,1,0,45,41.369l1.161-3.3A5.69,5.69,0,0,1,52.649,34.4l1.105.228a24.577,24.577,0,0,0,6.362,6.34l-4.048,4.048a1,1,0,0,0,1.407,1.407l11.4-11.4a3.987,3.987,0,1,1,5.639,5.639l-8.129,8.13a1,1,0,0,0-.287.61l-.322,3.4a10.763,10.763,0,0,1-10.912,9.745L51.71,62.48a.994.994,0,0,0-.722.291L48.22,65.538,38.792,56.11l1.417-1.417a1,1,0,0,0,.235-.373l3.238-9.2a1,1,0,0,0-1.878-.661l-3.163,8.991-1.96,1.96a1,1,0,0,0,0,1.407L47.517,67.65a1,1,0,0,0,1.407,0L52.1,64.478l2.733.051A12.753,12.753,0,0,0,67.76,52.981l.289-3.039,4.835-4.835q.255.006.51.006A21.089,21.089,0,0,0,94.663,23.151ZM87.092,37.534a19.045,19.045,0,0,1-12.167,5.53l1-1a5.978,5.978,0,1,0-8.454-8.454l-5.92,5.92a22.641,22.641,0,0,1-6.372-6.351A21.49,21.49,0,0,1,51.6,19.85,19.076,19.076,0,0,1,71.464,2,22.126,22.126,0,0,1,92.673,23.209,19.232,19.232,0,0,1,87.092,37.534Z" transform="translate(-36.389 0)"/></g></g></g></svg>