<svg xmlns="http://www.w3.org/2000/svg" width="89" height="89" viewBox="0 0 89 89"><defs><style>.a{fill:#b3ddff;}.b{fill:#699fcb;}.c{fill:#8ad24a;}.d{fill:#bae396;}.e{fill:#fffcdc;}.f{fill:#ea3065;}.g{fill:#fd5c6f;}</style></defs><g transform="translate(-274 -1108)"><rect class="a" width="89" height="89" rx="5" transform="translate(274 1108)"/><g transform="translate(348.791 1122) rotate(90)"><path class="a" d="M51.452,16.372l-6.63-7.622a3.627,3.627,0,0,0-5.478,0l-6.63,7.622a3.669,3.669,0,0,0,.347,5.151c2.467,2.192,5.385-.641,5.385-.641V49.374H45.72V20.881s2.925,2.863,5.385.641A3.68,3.68,0,0,0,51.452,16.372Zm0,0" transform="translate(-28.042 -6.609)"/><path class="b" d="M94.886,233.368a29.99,29.99,0,0,0-7.273-.256V248.1h7.273Zm0,0" transform="translate(-77.211 -205.335)"/><path class="c" d="M33.8,295.371a13.149,13.149,0,1,0-13.149,13.2A13.174,13.174,0,0,0,33.8,295.371Zm0,0" transform="translate(-6.609 -248.668)"/><path class="d" d="M14.291,295.367a13.2,13.2,0,0,1,9.755-12.755,13.2,13.2,0,1,0,0,25.509A13.2,13.2,0,0,1,14.291,295.367Zm0,0" transform="translate(-6.609 -248.665)"/><path class="e" d="M68,335.4H65.09v-2.922a2.278,2.278,0,1,0-4.557,0V335.4H57.622a2.287,2.287,0,0,0,0,4.575h2.911V342.9a2.278,2.278,0,1,0,4.557,0v-2.922H68a2.287,2.287,0,0,0,0-4.575Zm0,0" transform="translate(-48.773 -290.99)"/><path class="a" d="M326.971,184.831l-6.63,7.622a3.627,3.627,0,0,1-5.478,0l-6.629-7.622a3.669,3.669,0,0,1,.347-5.151c2.467-2.192,5.385.641,5.385.641V151.828h7.273v28.493s2.924-2.863,5.385-.641A3.68,3.68,0,0,1,326.971,184.831Zm0,0" transform="translate(-270.848 -133.801)"/><path class="b" d="M370.406,166.56a29.989,29.989,0,0,1-7.273.257V151.828h7.273Zm0,0" transform="translate(-320.016 -133.801)"/><path class="f" d="M309.317,20.7a13.149,13.149,0,1,0-13.148,13.2A13.174,13.174,0,0,0,309.317,20.7Zm0,0" transform="translate(-249.415 -6.609)"/><path class="g" d="M289.811,20.7a13.2,13.2,0,0,1,9.756-12.754,13.2,13.2,0,1,0,0,25.509A13.2,13.2,0,0,1,289.811,20.7Zm0,0" transform="translate(-249.415 -6.609)"/><path class="e" d="M0,2.283v.009A2.283,2.283,0,0,0,2.283,4.575h10.37a2.283,2.283,0,0,0,2.283-2.283V2.283A2.283,2.283,0,0,0,12.653,0H2.283A2.283,2.283,0,0,0,0,2.283Zm0,0" transform="translate(44.466 21.558) rotate(-90)"/><path d="M299.179,45.219a4.25,4.25,0,0,0-5.092-.426V27.427a13.955,13.955,0,1,0-1.781.481V46.52a.89.89,0,0,0,1.513.636,5.475,5.475,0,0,1,1.493-.97,2.32,2.32,0,0,1,2.672.353,2.775,2.775,0,0,1,.272,3.905l-6.629,7.622a2.737,2.737,0,0,1-4.135,0l-6.629-7.622a2.788,2.788,0,0,1,.267-3.9c1.812-1.611,4.079.524,4.173.614a.89.89,0,0,0,1.511-.639v-15.9a.891.891,0,0,0-1.781,0V44.8a4.286,4.286,0,0,0-5.086.413,4.575,4.575,0,0,0-.428,6.4l6.63,7.622a4.518,4.518,0,0,0,6.822,0l6.63-7.622A4.544,4.544,0,0,0,299.179,45.219ZM277.3,14.09A12.258,12.258,0,1,1,289.559,26.4,12.3,12.3,0,0,1,277.3,14.09Zm0,0" transform="translate(-242.806)"/><path d="M18.568,33.365V16a4.25,4.25,0,0,0,5.091-.426,4.544,4.544,0,0,0,.423-6.4l-6.63-7.622a4.518,4.518,0,0,0-6.822,0L4,9.178a4.575,4.575,0,0,0,.428,6.4,4.287,4.287,0,0,0,5.086.413V33.364A14.115,14.115,0,0,0,3,55.406a.89.89,0,0,0,1.4-1.1,12.238,12.238,0,1,1,2.618,2.486A.89.89,0,1,0,5.994,58.25a13.918,13.918,0,0,0,8.045,2.542,14.1,14.1,0,0,0,4.529-27.427ZM11.3,32.883V14.272a.89.89,0,0,0-1.511-.639,5.477,5.477,0,0,1-1.491.96,2.349,2.349,0,0,1-2.682-.346,2.789,2.789,0,0,1-.268-3.9l6.63-7.622a2.737,2.737,0,0,1,4.135,0l6.63,7.622a2.776,2.776,0,0,1-.273,3.905c-1.8,1.628-4.071-.526-4.165-.616a.89.89,0,0,0-1.513.636V32.884a14.031,14.031,0,0,0-5.492,0Zm0,0" transform="translate(0 0)"/><path d="M56.2,322.7a3.177,3.177,0,0,0-3.169,3.178V327.9H51.012a3.178,3.178,0,0,0,0,6.356h2.021v2.032a3.169,3.169,0,1,0,6.338,0V334.26h2.021a3.178,3.178,0,0,0,0-6.356H59.371v-2.032A3.177,3.177,0,0,0,56.2,322.7Zm5.19,6.99a1.4,1.4,0,0,1,0,2.794H58.481a.89.89,0,0,0-.891.89v2.922a1.388,1.388,0,1,1-2.776,0V333.37a.89.89,0,0,0-.891-.89H51.012a1.4,1.4,0,0,1,0-2.794h2.911a.89.89,0,0,0,.891-.891v-2.922a1.388,1.388,0,1,1,2.776,0V328.8a.89.89,0,0,0,.891.891Zm0,0" transform="translate(-42.163 -284.38)"/><path d="M13.544,0H3.173a3.178,3.178,0,0,0,0,6.356H9.839a.891.891,0,1,0,0-1.781H3.173a1.4,1.4,0,0,1,0-2.793h10.37a1.4,1.4,0,0,1,0,2.793.891.891,0,0,0,0,1.781,3.178,3.178,0,0,0,0-6.356Zm0,0" transform="translate(43.575 22.448) rotate(-90)"/></g></g></svg>