<svg xmlns="http://www.w3.org/2000/svg" width="260.495" height="246.244" viewBox="0 0 260.495 246.244"><defs><style>.a{fill:#fff;opacity:0.949;}.b{fill:#b3ddff;}.c{fill:#e6e9ed;}.d{fill:#8ad24a;}.e{fill:#fcd770;}.f{fill:#ffc729;}.g{fill:#f0d0b4;}.h{fill:#b4dd7f;}.i{fill:#ffd947;}</style></defs><g transform="translate(-213.5 -428.584)"><g transform="translate(1)"><g transform="translate(0 3)"><g transform="translate(212.5 425.584)"><rect class="a" width="260.495" height="246.244" rx="5"/></g></g></g><g transform="translate(268.585 467.301)"><g transform="translate(3.677 3.677)"><g transform="translate(0 21.413)"><path class="b" d="M2,10H119.772V149.185H2Z" transform="translate(-2 -10)"/></g><g transform="translate(16.06 10.707)"><path class="c" d="M8,6H93.653V70.239H8Z" transform="translate(-8 -6)"/></g><g transform="translate(40.15)"><path class="b" d="M54.473,17.15A15.157,15.157,0,0,1,50.03,27.856l-.91.91v-3.64A5.355,5.355,0,0,0,44.81,19.88L40.983,19.1a6.532,6.532,0,0,1-5.246-6.4,6.532,6.532,0,0,1-5.246,6.4l-3.828.776a5.355,5.355,0,0,0-4.309,5.246v3.64l-.91-.91A15.157,15.157,0,0,1,17,17.15a16.057,16.057,0,0,1,.642-4.443h.027A15.132,15.132,0,0,1,32.15,2h7.173A15.024,15.024,0,0,1,50.03,6.443,14.717,14.717,0,0,1,53.8,12.707h.027A16.057,16.057,0,0,1,54.473,17.15Z" transform="translate(-17 -2)"/></g><g transform="translate(32.12 46.574)"><path class="d" d="M38.09,34.389,35.413,47.772H14V32.623A13.362,13.362,0,0,1,25.349,19.4l7.388,12.313,2.677-2.677Z" transform="translate(-14 -19.4)"/></g><g transform="translate(61.563 46.574)"><path class="d" d="M27.677,29.036l2.677,2.677L37.741,19.4A13.362,13.362,0,0,1,49.09,32.623v15.15H27.677L25,34.389Z" transform="translate(-25 -19.4)"/></g><g transform="translate(53.533 61.563)"><path class="e" d="M30.03,25l2.677,13.383H22L24.677,25Z" transform="translate(-22 -25)"/></g><g transform="translate(53.533 50.856)"><path class="f" d="M32.707,26.353,30.03,31.707H24.677L22,26.353,27.353,21Z" transform="translate(-22 -21)"/></g><g transform="translate(58.886 45.503)"><path class="d" d="M39.417,20.071,32.03,32.383l-2.677-2.677L24,24.353,32.03,19l7.254,1.044a.241.241,0,0,1,.134.027Z" transform="translate(-24 -19)"/></g><g transform="translate(43.469 45.503)"><path class="d" d="M25.628,32.383,18.24,20.071a.241.241,0,0,1,.134-.027L25.628,19l8.03,5.353L28.3,29.707Z" transform="translate(-18.24 -19)"/></g><g transform="translate(50.856 38.838)"><path class="g" d="M29.03,17.822a13.5,13.5,0,0,0,5.808-1.312l2.222,6.665-8.03,5.353L21,23.175l2.222-6.665Z" transform="translate(-21 -16.51)"/></g><g transform="translate(45.503 10.707)"><path class="g" d="M45.766,22.06A13.344,13.344,0,0,1,32.383,35.443l-5.808-1.312-3.667-2.6A13.441,13.441,0,0,1,19,22.06V18.42a5.355,5.355,0,0,1,4.309-5.246l3.828-.776A6.532,6.532,0,0,0,32.383,6a6.532,6.532,0,0,0,5.246,6.4l3.828.776a5.355,5.355,0,0,1,4.309,5.246Z" transform="translate(-19 -6)"/></g><g transform="translate(16.06 107.066)"><path class="h" d="M8,42H18.707V52.707H8Z" transform="translate(-8 -42)"/></g><g transform="translate(16.06 128.479)"><path class="h" d="M8,50H18.707V60.707H8Z" transform="translate(-8 -50)"/></g><g transform="translate(58.886 128.479)"><path class="h" d="M24,50H34.707V60.707H24Z" transform="translate(-24 -50)"/></g><g transform="translate(58.886 107.066)"><path class="h" d="M24,42H34.707V52.707H24Z" transform="translate(-24 -42)"/></g><g transform="translate(91.006 107.066)"><path class="i" d="M84.688,53.429A26.763,26.763,0,1,1,36.535,74.12a26.761,26.761,0,0,1,48.153-20.69Z" transform="translate(-36 -42)"/></g></g><g transform="translate(1 1)"><path d="M7,33H23.06v5.353H7Z" transform="translate(9.06 52.653)"/><path d="M15,33H84.593v5.353H15Z" transform="translate(22.473 52.653)"/><path d="M7,37H98.006v5.353H7Z" transform="translate(9.06 59.359)"/><path d="M166.323,99.083l-4.1-3.448-18.811,22.337a29.353,29.353,0,0,0-19.291-9.77V22.413h-16.06V11.707H82.485A17.838,17.838,0,0,0,66.158,1H58.965A17.838,17.838,0,0,0,42.638,11.707H17.06V22.413H1V166.952H121.449a29.382,29.382,0,0,0,25.23-44.542ZM78.756,31.417a17.7,17.7,0,0,0,5.219-12.6c0-.594-.032-1.18-.088-1.759h18.825V75.946H92.006V63.462a16.138,16.138,0,0,0-13.787-15.9l-5.608-.8-1.017-3.051a16.07,16.07,0,0,0,6.973-12.1ZM63.585,62.563H61.54l-1.073-2.149,2.1-2.1,2.1,2.1Zm6.475-4.317-3.3-3.3,4.465-2.976,2.393.343Zm-7.5-17.1A10.724,10.724,0,0,1,51.856,30.438V26.8a2.685,2.685,0,0,1,2.152-2.626l3.83-.766a9.166,9.166,0,0,0,4.724-2.548,9.166,9.166,0,0,0,4.724,2.548l3.83.766A2.685,2.685,0,0,1,73.269,26.8v3.635A10.724,10.724,0,0,1,62.563,41.15ZM62.557,46.5h.011a15.911,15.911,0,0,0,4.125-.559l.715,2.144-4.845,3.228-4.845-3.231.715-2.144a15.8,15.8,0,0,0,4.125.562ZM53.9,51.974l4.465,2.976-3.3,3.3-3.557-5.931ZM45.853,53.3,54,66.88,56.476,64.4l.6,1.21L55.015,75.946H38.473V63.462A10.766,10.766,0,0,1,45.853,53.3Zm16.228,14.62h.964l1.606,8.03H60.475Zm8.03,8.03L68.045,65.614l.6-1.21,2.476,2.476L79.273,53.3a10.766,10.766,0,0,1,7.38,10.166V75.946ZM58.968,6.353H66.16A12.416,12.416,0,0,1,77.774,23.28a8.02,8.02,0,0,0-5.608-4.352l-3.83-.766a3.867,3.867,0,0,1-3.1-3.779V11.707H59.886v2.677a3.867,3.867,0,0,1-3.1,3.779l-3.83.766a8.025,8.025,0,0,0-5.608,4.352A12.416,12.416,0,0,1,58.968,6.353ZM22.413,17.06H41.238c-.056.578-.088,1.164-.088,1.759a17.693,17.693,0,0,0,5.219,12.6l.193.193a16.058,16.058,0,0,0,6.973,12.1l-1.017,3.051-5.608.8a16.143,16.143,0,0,0-13.79,15.9V75.946H22.413ZM6.353,161.6V27.766H17.06V81.3h91.006V27.766h10.707V108.2a29.175,29.175,0,0,0-10.707,3.116v-3.252H81.3v5.353h23.273a29.717,29.717,0,0,0-5.819,5.353H81.3v5.353H95.255a29.181,29.181,0,0,0-2.109,5.353H81.3v5.353H92.142c-.08.883-.137,1.772-.137,2.677s.056,1.793.137,2.677H81.3v5.353H93.146a29.522,29.522,0,0,0,11.427,16.06Zm139.185-24.09a24.135,24.135,0,1,1-5.6-15.409L121.28,144.262l-11.322-11.32-3.785,3.785,15.444,15.447,21.373-25.38A23.854,23.854,0,0,1,145.539,137.509Z" transform="translate(-1 -1)"/><path d="M7,57.06H23.06V41H7Zm5.353-10.707h5.353v5.353H12.353Z" transform="translate(9.06 66.066)"/><path d="M15,41H31.06v5.353H15Z" transform="translate(22.473 66.066)"/><path d="M15,45H31.06v5.353H15Z" transform="translate(22.473 72.772)"/><path d="M7,65.06H23.06V49H7Zm5.353-10.707h5.353v5.353H12.353Z" transform="translate(9.06 79.479)"/><path d="M15,49H31.06v5.353H15Z" transform="translate(22.473 79.479)"/><path d="M15,53H31.06v5.353H15Z" transform="translate(22.473 86.185)"/><path d="M23,57.06H39.06V41H23Zm5.353-10.707h5.353v5.353H28.353Z" transform="translate(35.886 66.066)"/><path d="M23,65.06H39.06V49H23Zm5.353-10.707h5.353v5.353H28.353Z" transform="translate(35.886 79.479)"/><path d="M7,57H23.06v5.353H7Z" transform="translate(9.06 92.892)"/><path d="M15,57H52.473v5.353H15Z" transform="translate(22.473 92.892)"/></g></g></g></svg>