<svg xmlns="http://www.w3.org/2000/svg" width="89" height="89" viewBox="0 0 89 89"><defs><style>.a{fill:#b3ddff;}.b{fill:#ffea99;}.c{fill:#ffd947;}.d{fill:#dbe6fd;}.e{fill:#8ad24a;}</style></defs><g transform="translate(-300 -1910)"><rect class="a" width="89" height="89" rx="5" transform="translate(300 1910)"/><g transform="translate(312 1922.002)"><circle class="b" cx="29" cy="29" r="29" transform="translate(3 3)"/><path class="c" d="M10,7.378H8.986A2.392,2.392,0,0,0,9.9,4.74,2.437,2.437,0,0,0,8.173,3.085,2.491,2.491,0,0,0,5,5.432,2.4,2.4,0,0,0,6.014,7.378H5A1.974,1.974,0,0,0,3,9.324V15H5v7h5V15h2V9.324a1.974,1.974,0,0,0-2-1.946Z"/><path class="a" d="M56,47.128H54.986A2.392,2.392,0,0,0,55.9,44.49a2.437,2.437,0,0,0-1.728-1.655A2.491,2.491,0,0,0,51,45.182a2.4,2.4,0,0,0,1.014,1.946H51a1.974,1.974,0,0,0-2,1.946v5.838h2V61h5V54.912h2V49.074a1.974,1.974,0,0,0-2-1.946Z"/><circle class="d" cx="19" cy="19" r="19" transform="translate(13 13)"/><path class="e" d="M35.466,24H34.62a4,4,0,1,0-5.241,0h-.845A5.534,5.534,0,0,0,23,29.534V39h4V53H37V39h4V29.534A5.534,5.534,0,0,0,35.466,24Z"/><path d="M36.534,23.087A4.927,4.927,0,0,0,37,21a5,5,0,0,0-10,0,4.927,4.927,0,0,0,.466,2.087A6.545,6.545,0,0,0,22,29.534V39a1,1,0,0,0,1,1h3V53a1,1,0,0,0,1,1H37a1,1,0,0,0,1-1V40h3a1,1,0,0,0,1-1V29.534a6.545,6.545,0,0,0-5.466-6.447ZM40,38H38V28H36V52H33V38H31V52H28V28H26V38H24V29.534A4.54,4.54,0,0,1,28.534,25h.845a1,1,0,0,0,.658-1.752A2.957,2.957,0,0,1,29,21a3,3,0,0,1,6,0,2.957,2.957,0,0,1-1.038,2.248A1,1,0,0,0,34.621,25h.845A4.54,4.54,0,0,1,40,29.534Z"/><path d="M59.766,43.38l-1.851-.76A28.006,28.006,0,0,0,15.587,9.312L14.413,7.693A30.01,30.01,0,0,1,59.766,43.38Z"/><path d="M32,62A30.024,30.024,0,0,1,3.035,24.162l1.931.521A28.012,28.012,0,0,0,45.517,56.527l.967,1.751A30.03,30.03,0,0,1,32,62Z"/><path d="M40.421,50.146l-.843-1.814a18,18,0,1,0-15.157,0l-.843,1.813a20,20,0,1,1,16.843,0Z"/><path d="M56,62H51a1,1,0,0,1-1-1V55.912H49a1,1,0,0,1-1-1V49.074a2.959,2.959,0,0,1,2.17-2.831,3.39,3.39,0,0,1,1.156-3.751,3.567,3.567,0,0,1,3.093-.626,3.458,3.458,0,0,1,2.443,2.348,3.418,3.418,0,0,1-.037,2.027A2.96,2.96,0,0,1,59,49.074v5.838a1,1,0,0,1-1,1H57V61a1,1,0,0,1-1,1Zm-4-2h3V54.912a1,1,0,0,1,1-1h1V49.074a.975.975,0,0,0-1-.946H54.986a1,1,0,0,1-.587-1.81,1.386,1.386,0,0,0,.54-1.554,1.444,1.444,0,0,0-1.013-.96,1.558,1.558,0,0,0-1.373.266,1.383,1.383,0,0,0,.046,2.248,1,1,0,0,1-.587,1.81H51a.975.975,0,0,0-1,.946v4.838h1a1,1,0,0,1,1,1Z"/><path d="M10,23H5a1,1,0,0,1-1-1V16H3a1,1,0,0,1-1-1V9.324A2.959,2.959,0,0,1,4.17,6.493,3.39,3.39,0,0,1,5.326,2.742a3.564,3.564,0,0,1,3.093-.626,3.458,3.458,0,0,1,2.443,2.348,3.418,3.418,0,0,1-.037,2.027A2.96,2.96,0,0,1,13,9.324V15a1,1,0,0,1-1,1H11v6A1,1,0,0,1,10,23ZM6,21H9V15a1,1,0,0,1,1-1h1V9.324a.975.975,0,0,0-1-.946H8.986A1,1,0,0,1,8.4,6.569a1.386,1.386,0,0,0,.54-1.554,1.444,1.444,0,0,0-1.013-.96,1.554,1.554,0,0,0-1.373.266A1.383,1.383,0,0,0,6.6,6.569a1,1,0,0,1-.587,1.81H5a.975.975,0,0,0-1,.946V14H5a1,1,0,0,1,1,1Z"/><path d="M60,2h2V4H60Z"/><path d="M57,5h2V7H57Z"/><path d="M5,57H7v2H5Z"/><path d="M2,60H4v2H2Z"/></g></g></svg>