<svg xmlns="http://www.w3.org/2000/svg" width="89" height="89" viewBox="0 0 89 89"><defs><style>.a{fill:#fff;}.b{fill:#e1ebf0;}.c{fill:#d2e4e7;}.d{fill:#f3d332;}.e{fill:#ecc52e;}.f{fill:#b4d2d7;}.g{fill:#3a67c1;}.h{fill:#30569f;}</style></defs><g transform="translate(7698 9434)"><g transform="translate(0 124)"><rect class="a" width="89" height="89" rx="5" transform="translate(-7698 -9558)"/></g><g transform="translate(-7679.022 -9416)"><g transform="translate(0.899 0.88)"><path class="b" d="M35.528,131.845H8.669a1.174,1.174,0,0,1-1.174-1.174V87.927a1.174,1.174,0,0,1,1.174-1.174H35.527A1.174,1.174,0,0,1,36.7,87.927v42.744a1.174,1.174,0,0,1-1.174,1.174Z" transform="translate(-7.495 -77.45)"/><path class="c" d="M58.307,87.924v39.854a1.174,1.174,0,0,1-1.174,1.174H33.149a1.174,1.174,0,0,1-1.174-1.174V87.924a1.174,1.174,0,0,1,1.174-1.174H57.134A1.174,1.174,0,0,1,58.307,87.924Z" transform="translate(-29.101 -77.447)"/><path class="b" d="M79.706,92.219H48.145a1.174,1.174,0,0,1-1.174-1.174V48.3a1.174,1.174,0,0,1,1.174-1.174H79.706A1.174,1.174,0,0,1,80.879,48.3V91.045A1.174,1.174,0,0,1,79.706,92.219Z" transform="translate(-42.337 -42.475)"/><path class="c" d="M102.481,48.3V88.158a1.174,1.174,0,0,1-1.174,1.174H72.619a1.174,1.174,0,0,1-1.174-1.174V48.3a1.174,1.174,0,0,1,1.174-1.174h28.688A1.174,1.174,0,0,1,102.481,48.3Z" transform="translate(-63.938 -42.478)"/><path class="b" d="M86.445,51.419V8.674A1.174,1.174,0,0,1,87.619,7.5H119.18a1.174,1.174,0,0,1,1.174,1.174V51.419a1.174,1.174,0,0,1-1.174,1.174H87.619A1.174,1.174,0,0,1,86.445,51.419Z" transform="translate(-77.178 -7.5)"/><path class="d" d="M254.225,63.694h9.293a.587.587,0,0,0,.587-.587V53.774a.587.587,0,0,0-.587-.587h-9.293a.587.587,0,0,0-.587.587v9.333A.587.587,0,0,0,254.225,63.694Z" transform="translate(-224.745 -47.824)"/><path class="e" d="M256.57,63.7h-2.348a.587.587,0,0,1-.587-.587V53.777a.587.587,0,0,1,.587-.587h2.348a.587.587,0,0,0-.587.587V63.11A.587.587,0,0,0,256.57,63.7Z" transform="translate(-224.742 -47.827)"/><g transform="translate(12.203 13.567)"><path class="f" d="M124.33,124.836H112.336a.88.88,0,0,1,0-1.761H124.33a.88.88,0,0,1,0,1.761Z" transform="translate(-111.456 -123.075)"/></g><g transform="translate(19.29 21.009)"><path class="f" d="M184.814,188.24h-12.1a.88.88,0,0,1,0-1.761h12.1a.88.88,0,0,1,0,1.761Z" transform="translate(-171.831 -186.479)"/></g><g transform="translate(12.203 9.736)"><path class="f" d="M124.33,92.2H112.336a.88.88,0,0,1,0-1.761H124.33a.88.88,0,0,1,0,1.761Z" transform="translate(-111.456 -90.442)"/></g><g transform="translate(12.203 5.905)"><path class="f" d="M124.33,59.57H112.336a.88.88,0,0,1,0-1.761H124.33a.88.88,0,0,1,0,1.761Z" transform="translate(-111.456 -57.809)"/></g><g transform="translate(12.203 30.75)"><path class="f" d="M130.4,271.222h-18.06a.88.88,0,0,1,0-1.761H130.4a.88.88,0,0,1,0,1.761Z" transform="translate(-111.456 -269.461)"/></g><g transform="translate(12.203 25.825)"><path class="f" d="M126.619,229.265H112.336a.88.88,0,0,1,0-1.761h14.283a.88.88,0,0,1,0,1.761Z" transform="translate(-111.456 -227.504)"/></g><g transform="translate(30.302 25.825)"><path class="f" d="M274.756,229.265h-8.232a.88.88,0,0,1,0-1.761h8.232a.88.88,0,0,1,0,1.761Z" transform="translate(-265.644 -227.504)"/></g><path class="c" d="M163.708,328.24a1.174,1.174,0,0,1,1.174,1.174v.8a5.462,5.462,0,0,1-5.451,5.472l-17.8.587-9.678-.587a5.463,5.463,0,0,0,5.452-5.472v-.8a1.174,1.174,0,0,1,1.174-1.174Z" transform="translate(-117.346 -290.591)"/><path class="c" d="M283.329,264.691v7.45H271.1a12.978,12.978,0,0,1,11.728-7.461C282.992,264.68,283.161,264.684,283.329,264.691Z" transform="translate(-240.153 -234.491)"/><path class="f" d="M269.455,328.24v8.03a1.174,1.174,0,0,1-1.174,1.174h-7.127a12.731,12.731,0,0,1-.322-1.359,12.989,12.989,0,0,1,1.022-7.845Z" transform="translate(-230.912 -290.591)"/><path class="d" d="M421.713,424.094l5.959,5.3a2.432,2.432,0,0,1,.081,3.461,2.469,2.469,0,0,1-3.479-.087l-5.952-5.331Z" transform="translate(-370.098 -375.193)"/><path class="e" d="M423.484,425.664a13.058,13.058,0,0,1-3.355,3.388l-1.8-1.615,3.391-3.347Z" transform="translate(-370.101 -375.189)"/><path class="c" d="M273.426,396.65v2.89a1.174,1.174,0,0,1-1.174,1.174h-5.875a12.837,12.837,0,0,1-1.252-2.89h7.127A1.174,1.174,0,0,0,273.426,396.65Z" transform="translate(-234.884 -350.97)"/><path class="g" d="M280.622,295.325a10.609,10.609,0,1,1,10.609,10.642,10.654,10.654,0,0,1-10.609-10.642Z" transform="translate(-248.562 -252.146)"/><path class="h" d="M299.36,317.536a10.6,10.6,0,0,1-18.735-6.839,10.62,10.62,0,0,1,4.357-8.6,10.623,10.623,0,0,0,14.378,15.436Z" transform="translate(-248.564 -267.519)"/><path class="b" d="M314.572,325.383a6.624,6.624,0,1,1,6.624,6.644A6.649,6.649,0,0,1,314.572,325.383Z" transform="translate(-278.526 -282.205)"/><path class="c" d="M326.9,335.641a6.63,6.63,0,1,1-9.056-9.111,6.533,6.533,0,0,0-.547,1.175,6.628,6.628,0,0,0,9.6,7.936Z" transform="translate(-278.529 -289.081)"/></g><g transform="translate(0.022)"><path d="M247.632,57.955h9.293a1.469,1.469,0,0,0,1.467-1.467V47.155a1.469,1.469,0,0,0-1.467-1.467h-9.293a1.469,1.469,0,0,0-1.467,1.467v2.208a.88.88,0,1,0,1.761,0V47.449h8.706v8.746h-8.706V53.6a.88.88,0,1,0-1.761,0v2.889A1.469,1.469,0,0,0,247.632,57.955Z" transform="translate(-217.272 -40.325)"/><path d="M112.363,124.836h11.993a.88.88,0,0,0,0-1.761H112.363a.88.88,0,1,0,0,1.761Z" transform="translate(-98.399 -108.628)"/><path d="M185.721,187.359a.88.88,0,0,0-.88-.88h-12.1a.88.88,0,0,0,0,1.761h12.1A.88.88,0,0,0,185.721,187.359Z" transform="translate(-151.687 -164.59)"/><path d="M112.363,92.2h11.993a.88.88,0,0,0,0-1.761H112.363a.88.88,0,1,0,0,1.761Z" transform="translate(-98.399 -79.826)"/><path d="M112.363,59.57h11.993a.88.88,0,0,0,0-1.761H112.363a.88.88,0,1,0,0,1.761Z" transform="translate(-98.399 -51.023)"/><path d="M112.363,271.222h18.06a.88.88,0,1,0,0-1.761h-18.06a.88.88,0,1,0,0,1.761Z" transform="translate(-98.399 -237.831)"/><path d="M112.363,229.265h14.283a.88.88,0,1,0,0-1.761H112.363a.88.88,0,1,0,0,1.761Z" transform="translate(-98.399 -200.799)"/><path d="M274.783,227.5h-8.232a.88.88,0,0,0,0,1.761h8.232a.88.88,0,0,0,0-1.761Z" transform="translate(-234.488 -200.799)"/><path d="M59.095,54.457l-.033-.031-5.418-4.821a11.486,11.486,0,0,0,1.409-5.128.88.88,0,0,0-1.76-.063,9.747,9.747,0,1,1-.557-3.637.88.88,0,0,0,1.659-.59,11.524,11.524,0,0,0-9.437-7.566V1.467A1.469,1.469,0,0,0,43.491,0H10.757A1.469,1.469,0,0,0,9.289,1.467V4.652H6.123A1.469,1.469,0,0,0,4.656,6.119V9.3H1.489A1.469,1.469,0,0,0,.022,10.77V54.689a1.469,1.469,0,0,0,1.467,1.467H29.522a1.469,1.469,0,0,0,1.467-1.467V51.5h3.822a11.464,11.464,0,0,0,14.2,2.7L54.474,59.1a3.276,3.276,0,1,0,4.621-4.641ZM11.05,1.761H43.2V32.544a11.505,11.505,0,0,0-9.174,5.106H30.449a.88.88,0,0,0,0,1.761h2.607q-.177.4-.325.821a11.525,11.525,0,0,0-.649,3.827c0,.348.016.693.047,1.033H19.881A6.343,6.343,0,0,0,21.844,40.5v-1.09h4.789a.88.88,0,1,0,0-1.761H20.964a.88.88,0,0,0-.88.88V40.5a4.587,4.587,0,0,1-4.571,4.592H11.05ZM6.417,49.743V37.709a.88.88,0,0,0-1.761,0V50.037A1.469,1.469,0,0,0,6.123,51.5H29.228v2.891H1.783V11.064H4.656V33.988a.88.88,0,0,0,1.761,0V6.412H9.29v39.56a.88.88,0,0,0,.88.88H32.425a11.467,11.467,0,0,0,1.156,2.891H6.417Zm51.521,8.176a1.6,1.6,0,0,1-2.272-.117l-5.12-4.586a11.663,11.663,0,0,0,2.125-2.12l5.2,4.629a1.559,1.559,0,0,1,.065,2.194Z" transform="translate(-0.022)"/><path d="M314.6,311.233a7.525,7.525,0,1,0,7.5,7.525A7.548,7.548,0,0,0,314.6,311.233Zm0,13.288a5.764,5.764,0,1,1,5.743-5.764A5.76,5.76,0,0,1,314.6,324.521Z" transform="translate(-271.047 -274.699)"/></g></g></g></svg>