<svg xmlns="http://www.w3.org/2000/svg" width="89" height="89" viewBox="0 0 89 89"><defs><style>.a{fill:#fff;}.b{fill:#ffd947;}.c{fill:#f9b767;}.d{fill:#ea7596;}.e{fill:#b3ddff;}</style></defs><g transform="translate(-289 -2363)"><rect class="a" width="89" height="89" rx="5" transform="translate(289 2363)"/><g transform="translate(300.25 2358.494)"><g transform="translate(0.974 19.48)"><g transform="translate(0 0)"><circle class="b" cx="15.946" cy="15.946" r="15.946" transform="translate(2.087)"/><g transform="translate(0 17.904)"><circle class="c" cx="2.087" cy="2.087" r="2.087"/></g><g transform="translate(10.057 7.847)"><circle class="c" cx="2.087" cy="2.087" r="2.087"/></g><g transform="translate(20.722 18.513)"><circle class="c" cx="2.087" cy="2.087" r="2.087"/></g><g transform="translate(34.573 4.662)"><g transform="translate(0)"><circle class="c" cx="2.087" cy="2.087" r="2.087"/></g></g><g transform="translate(43.77 13.859)"><circle class="c" cx="2.087" cy="2.087" r="2.087"/></g></g><g transform="translate(9.348 15.946)"><rect class="d" width="5.71" height="16.061" transform="translate(0 27.737)"/><rect class="d" width="5.71" height="16.061" transform="translate(9.618 27.737)"/><rect class="b" width="5.71" height="20.813" transform="translate(19.237 22.986)"/><rect class="e" width="5.71" height="27.895" transform="translate(28.855 15.904)"/><rect class="e" width="5.71" height="35.22" transform="translate(38.474 8.578)"/><rect class="e" width="5.71" height="43.799" transform="translate(48.092)"/></g></g><g transform="translate(0 18.506)"><path d="M3.625,42.48a16.853,16.853,0,0,0,3.55,5.04.974.974,0,0,0,1.362-1.392,14.92,14.92,0,0,1-3.208-4.6,3.054,3.054,0,0,0,.47-3.419l5.952-5.952a3.052,3.052,0,0,0,2.655.037l6.546,6.546c.018.018.037.035.056.051a3.061,3.061,0,1,0,5.623.174l6.953-6.953a14.976,14.976,0,0,1-22.045,16.4.974.974,0,0,0-.973,1.688,16.924,16.924,0,0,0,24.6-19.672l1.344-1.344a3.054,3.054,0,0,0,2.578-.158l5.046,5.046a3.066,3.066,0,1,0,1.427-1.328l-5.146-5.146a3.061,3.061,0,1,0-5.4.327l-.608.608a16.919,16.919,0,0,0-32.324,7c0,.376.014.754.039,1.13a3.061,3.061,0,0,0,1.5,5.923Zm43.206-8.167a1.113,1.113,0,1,1-1.113,1.113A1.114,1.114,0,0,1,46.831,34.313Zm-9.2-9.2a1.113,1.113,0,1,1-1.113,1.113A1.114,1.114,0,0,1,37.635,25.117ZM12,29.415a1.113,1.113,0,1,1,1.113,1.113A1.114,1.114,0,0,1,12,29.415ZM23.784,41.194A1.113,1.113,0,1,1,24.9,40.08,1.114,1.114,0,0,1,23.784,41.194ZM19.008,20.454a15,15,0,0,1,13.92,9.458l-7.553,7.553a3.055,3.055,0,0,0-3.026-.088l-.017-.019-6.51-6.51a3.061,3.061,0,1,0-5.445-.075L4.421,36.729a3.045,3.045,0,0,0-.341-.145c-.029-.384-.044-.772-.044-1.158A14.989,14.989,0,0,1,19.008,20.454ZM1.948,39.471a1.113,1.113,0,1,1,1.113,1.113A1.114,1.114,0,0,1,1.948,39.471Z" transform="translate(0 -18.506)"/><path d="M71.625,187.026a.974.974,0,1,0,0-1.948H71.2V163.753a.974.974,0,1,0-1.948,0v21.325H65.487v-41.85h3.761v16.549a.974.974,0,0,0,1.948,0V142.253a.974.974,0,0,0-.974-.974h-5.71a.974.974,0,0,0-.974.974v42.824H61.578V150.832a.974.974,0,0,0-.974-.974H54.895a.974.974,0,0,0-.974.974v34.246H51.96V158.157a.974.974,0,0,0-.974-.974h-5.71a.974.974,0,0,0-.974.974v26.921H42.341V165.239a.974.974,0,0,0-.974-.974h-5.71a.974.974,0,0,0-.974.974v19.839H32.723V169.99a.974.974,0,0,0-.974-.974h-5.71a.974.974,0,0,0-.974.974v5.631a.974.974,0,0,0,1.948,0v-4.657h3.761v14.113H27.013V179.6a.974.974,0,0,0-1.948,0v5.479H23.1V169.99a.974.974,0,0,0-.974-.974H16.421a.974.974,0,0,0-.974.974v15.087H7.983a.974.974,0,0,0,0,1.948H71.625Zm-15.756-35.22H59.63v33.272H55.869Zm-9.618,7.325h3.761v25.947H46.25Zm-9.618,7.082h3.761v18.864H36.632ZM17.4,170.964h3.761v14.113H17.4Z" transform="translate(-6.099 -125.333)"/><path d="M487.179,32.935a.974.974,0,0,0,.974-.974v-.214a.974.974,0,0,0-1.948,0v.214A.974.974,0,0,0,487.179,32.935Z" transform="translate(-423.055 -29.18)"/><path d="M461.643,32.935a.974.974,0,0,0,.974-.974v-.214a.974.974,0,0,0-1.948,0v.214A.974.974,0,0,0,461.643,32.935Z" transform="translate(-400.836 -29.18)"/><path d="M461.643,64.287h3.293a.974.974,0,1,0,0-1.948h-3.293a.974.974,0,1,0,0,1.948Z" transform="translate(-400.836 -56.646)"/><path d="M419.39,88.49h8.781a.974.974,0,0,0,0-1.948H419.39a.974.974,0,0,0,0,1.948Z" transform="translate(-364.071 -77.705)"/></g></g></g></svg>