<svg xmlns="http://www.w3.org/2000/svg" width="89" height="89" viewBox="0 0 89 89"><defs><style>.a{fill:#fff;}.b{fill:#b3ddff;}.c{fill:#e6e6e6;}.d{fill:#0071bc;}.e{fill:#ffd947;}</style></defs><g transform="translate(7698 9310)"><g transform="translate(0 248)"><rect class="a" width="89" height="89" rx="5" transform="translate(-7698 -9558)"/></g><g transform="translate(-7682.82 -9296.151)"><path class="b" d="M233.956,85.6V81.508l3.065-3.065-6.13-6.13,3.065-3.065V42.684H259.5V85.6Zm0,0" transform="translate(-202.805 -37.574)"/><path class="c" d="M43.164,153.861V110.949H68.707V129.34L65.642,132.4l6.13,6.13L68.707,141.6v12.261Zm0,0" transform="translate(-37.556 -97.666)"/><path class="d" d="M45.479,299.225,40.4,297.957v-2.043a3.7,3.7,0,0,0,2.043-3.306v-5.889a5.108,5.108,0,1,0-10.217,0v5.889a3.7,3.7,0,0,0,2.043,3.306v2.043l-5.078,1.269a4.088,4.088,0,0,0-3.1,3.965v4.983h3.065v-4.087h2.043v4.087h12.26v-4.087H45.51v4.087h3.065v-4.983A4.086,4.086,0,0,0,45.479,299.225Zm0,0" transform="translate(-22.533 -247.892)"/><path class="e" d="M318.538,26.167,313.46,24.9V22.855a3.7,3.7,0,0,0,2.043-3.306V13.66a5.109,5.109,0,1,0-10.217,0v5.889a3.7,3.7,0,0,0,2.043,3.306V24.9l-5.078,1.269a4.086,4.086,0,0,0-3.1,3.965v4.983h3.065V31.028h2.043v4.087h12.26V31.028h2.043v4.087h3.065V30.133A4.087,4.087,0,0,0,318.538,26.167Zm0,0" transform="translate(-262.897 -7.528)"/><path d="M19.61,13.284V51.23A5.087,5.087,0,0,0,17.566,55.3v4.983A1.022,1.022,0,0,0,18.588,61.3H41.065a1.022,1.022,0,0,0,1.022-1.021V57.217h4.086A1.022,1.022,0,0,0,47.2,56.2V49.043H71.717a1.022,1.022,0,0,0,1.021-1.022V28.609H73.76a1.022,1.022,0,0,0,1.021-1.022V22.6a5.087,5.087,0,0,0-2.043-4.068V5.11a1.022,1.022,0,0,0-1.021-1.021H68.294a6.12,6.12,0,0,0-11.546,0H46.174A1.022,1.022,0,0,0,45.152,5.11v7.152H20.631A1.022,1.022,0,0,0,19.61,13.284ZM40.044,59.26H38V56.2H35.957V59.26H23.7V56.2H21.653V59.26H19.61V55.3a3.065,3.065,0,0,1,2.321-2.974l5.078-1.269a1.022,1.022,0,0,0,.774-.991V48.021a1.021,1.021,0,0,0-.565-.92,2.658,2.658,0,0,1-1.478-2.387V38.826a4.087,4.087,0,1,1,8.174,0v5.889a2.657,2.657,0,0,1-1.478,2.392,1.022,1.022,0,0,0-.565.914v2.043a1.022,1.022,0,0,0,.775.991l5.078,1.269A3.066,3.066,0,0,1,40.044,55.3ZM68.651,12.021V6.132h2.043V17.594l-4.087-1.021v-.664A4.689,4.689,0,0,0,68.651,12.021ZM58.435,6.132a4.087,4.087,0,1,1,8.173,0v5.889a2.656,2.656,0,0,1-1.478,2.392,1.022,1.022,0,0,0-.565.914v2.043a1.022,1.022,0,0,0,.775.991l5.078,1.269A3.065,3.065,0,0,1,72.738,22.6v3.961H70.695V23.5H68.651v3.065H56.391V23.5H54.348v3.065H52.3V22.6a3.065,3.065,0,0,1,2.321-2.974L59.7,18.362a1.022,1.022,0,0,0,.775-.991V15.327a1.022,1.022,0,0,0-.565-.914,2.656,2.656,0,0,1-1.478-2.392Zm-11.239,0h9.2v5.889a4.691,4.691,0,0,0,2.043,3.888v.664l-4.3,1.076a5.1,5.1,0,0,0-3.87,4.956v4.983a1.022,1.022,0,0,0,1.022,1.022H70.695V47H47.2V44.358l2.766-2.766a1.021,1.021,0,0,0,0-1.444l-5.408-5.408L46.9,32.4a1.022,1.022,0,0,0,.3-.722Zm-2.043,8.173V31.251l-2.766,2.766a1.022,1.022,0,0,0,0,1.445l5.408,5.408-2.343,2.343a1.02,1.02,0,0,0-.3.722V55.173H42.077a5.1,5.1,0,0,0-3.86-4.831l-4.3-1.076V48.6a4.689,4.689,0,0,0,2.043-3.883V38.826a6.13,6.13,0,1,0-12.26,0v5.889A4.689,4.689,0,0,0,25.74,48.6v.664l-4.086,1.021V14.305Zm0,0" transform="translate(-15.023)"/><path d="M85.828,136.547h2.043v2.043H85.828Zm0,0" transform="translate(-75.111 -120.198)"/><path d="M119.961,136.547h13.282v2.043H119.961Zm0,0" transform="translate(-105.157 -120.198)"/><path d="M68.766,170.68H88.178v2.043H68.766Zm0,0" transform="translate(-60.092 -150.244)"/><path d="M68.766,204.813H88.178v2.043H68.766Zm0,0" transform="translate(-60.092 -180.29)"/><path d="M68.766,238.945H84.091v2.043H68.766Zm0,0" transform="translate(-60.092 -210.336)"/><path d="M324.754,256.008H326.8v2.043h-2.043Zm0,0" transform="translate(-285.429 -225.355)"/><path d="M358.887,256.008H369.1v2.043H358.887Zm0,0" transform="translate(-315.475 -225.355)"/><path d="M307.688,290.141h16.347v2.043H307.688Zm0,0" transform="translate(-270.406 -255.401)"/><path d="M307.688,324.273h16.347v2.043H307.688Zm0,0" transform="translate(-270.406 -285.447)"/><path d="M307.688,358.406h12.26v2.043h-12.26Zm0,0" transform="translate(-270.406 -315.493)"/><path d="M412.79,319.468a2.044,2.044,0,0,1-2.043,2.043h-9.2v2.043h9.2a4.087,4.087,0,0,0,4.087-4.086V307.207H412.79Zm0,0" transform="translate(-353.031 -270.424)"/><path d="M495.414,273.074h2.043v2.043h-2.043Zm0,0" transform="translate(-435.655 -240.378)"/><path d="M2.543,72.368a2.044,2.044,0,0,1,2.043-2.043h9.2V68.281h-9.2A4.087,4.087,0,0,0,.5,72.368V93.824H2.543Zm0,0" transform="translate(0 -60.106)"/><path d="M128.5,68.281h2.043v2.043H128.5Zm0,0" transform="translate(-112.67 -60.106)"/></g></g></svg>