<svg xmlns="http://www.w3.org/2000/svg" width="209" height="209" viewBox="0 0 209 209"><defs><style>.a{fill:#fff;}.b{fill:#79b2ff;}.c{fill:#ff6977;}.d{fill:#bdd9ff;}.e{fill:#ffc15a;}.f{fill:#98a1b3;}.g{fill:#cbe558;}</style></defs><g transform="translate(7042 7497)"><g transform="translate(-247 -175)"><rect class="a" width="209" height="209" rx="19" transform="translate(-6795 -7322)"/></g><g transform="translate(-6993 -7459)"><path class="b" d="M16.188,10h86.628A6.188,6.188,0,0,1,109,16.188V130.661a6.188,6.188,0,0,1-6.188,6.188H16.188A6.188,6.188,0,0,1,10,130.661V16.188A6.188,6.188,0,0,1,16.188,10Zm0,0" transform="translate(-7.422 -7.422)"/><path class="a" d="M109.385,50h18.993V156.223H50V50H68.993" transform="translate(-37.109 -37.109)"/><path class="c" d="M132.311,28.563h27.8a5.479,5.479,0,0,0,5.479-5.479V10H126.832V23.084A5.479,5.479,0,0,0,132.311,28.563Zm0,0" transform="translate(-94.132 -7.422)"/><path class="d" d="M132.311,28.563h27.8a5.479,5.479,0,0,0,5.479-5.479V10H126.832V23.084A5.479,5.479,0,0,0,132.311,28.563Zm0,0" transform="translate(-94.132 -7.422)"/><path class="e" d="M317.4,167.85l30.208-30.208a6.819,6.819,0,0,1,9.643,9.643l-30.208,30.208-17.383,7.739Zm0,0" transform="translate(-229.826 -100.672)"/><path class="f" d="M327.047,270.2l-9.643-9.643-7.74,17.382Zm0,0" transform="translate(-229.826 -193.381)"/><path class="c" d="M453.635,150.6l3.315-3.315a6.819,6.819,0,0,0-9.643-9.643l-3.315,3.314Zm0,0" transform="translate(-329.521 -100.672)"/><path class="g" d="M98,130h16.5v16.5H98Zm0,0" transform="translate(-72.733 -96.483)"/><path class="g" d="M98,240h16.5v16.5H98Zm0,0" transform="translate(-72.733 -178.123)"/><path class="c" d="M98,350h16.5v16.5H98Zm0,0" transform="translate(-72.733 -259.762)"/><path d="M194.578,452a2.579,2.579,0,1,0,1.823.755A2.6,2.6,0,0,0,194.578,452Zm0,0" transform="translate(-142.498 -335.465)"/><path d="M129.252,35.146a9.407,9.407,0,0,0-13.289,0l-11.8,11.8V8.766A8.776,8.776,0,0,0,95.394,0H8.766A8.776,8.776,0,0,0,0,8.766V123.239A8.776,8.776,0,0,0,8.766,132H95.394a8.776,8.776,0,0,0,8.766-8.766V73.529l25.092-25.093A9.407,9.407,0,0,0,129.252,35.146ZM99,8.766v43.34l-5.156,5.156V12.891a2.578,2.578,0,0,0-2.578-2.578H74.038V5.156H95.394A3.614,3.614,0,0,1,99,8.766ZM84.926,79.473l3.481-7.819,4.339,4.339ZM68.882,5.156V15.663a2.9,2.9,0,0,1-2.9,2.9h-27.8a2.9,2.9,0,0,1-2.9-2.9V5.156ZM95.394,126.848H8.766a3.614,3.614,0,0,1-3.61-3.61V8.766a3.614,3.614,0,0,1,3.61-3.61H30.122v5.156H12.891a2.578,2.578,0,0,0-2.578,2.578V119.114a2.578,2.578,0,0,0,2.578,2.578H41.767a2.578,2.578,0,0,0,0-5.156h-26.3V15.469H30.122v.193a8.066,8.066,0,0,0,8.057,8.057h27.8a8.066,8.066,0,0,0,8.057-8.057v-.193H88.691v46.95l-2.937,2.936a2.609,2.609,0,0,0-.532.774L77.484,83.511a2.579,2.579,0,0,0,3.4,3.405l7.8-3.475v33.094h-26.3a2.578,2.578,0,1,0,0,5.156H91.269a2.579,2.579,0,0,0,2.578-2.578V81.145l4.422-1.969a2.57,2.57,0,0,0,.734-.5v44.558A3.614,3.614,0,0,1,95.394,126.848ZM116,54.4,97.221,73.175l-6-6L114.471,43.93l6,6Zm9.61-9.609-1.493,1.492-6-6,1.492-1.492a4.24,4.24,0,1,1,6,6Zm0,0"/><path d="M107.079,120h-16.5A2.578,2.578,0,0,0,88,122.578v16.5a2.578,2.578,0,0,0,2.578,2.578h16.5a2.578,2.578,0,0,0,2.578-2.578v-16.5A2.578,2.578,0,0,0,107.079,120ZM104.5,136.5H93.156V125.156H104.5Zm0,0" transform="translate(-65.312 -89.061)"/><path d="M107.079,230h-16.5A2.578,2.578,0,0,0,88,232.578v16.5a2.578,2.578,0,0,0,2.578,2.578h16.5a2.578,2.578,0,0,0,2.578-2.578v-16.5A2.578,2.578,0,0,0,107.079,230ZM104.5,246.5H93.156V235.156H104.5Zm0,0" transform="translate(-65.312 -170.701)"/><path d="M107.079,340h-16.5A2.578,2.578,0,0,0,88,342.578v16.5a2.578,2.578,0,0,0,2.578,2.578h16.5a2.578,2.578,0,0,0,2.578-2.578v-16.5A2.578,2.578,0,0,0,107.079,340ZM104.5,356.5H93.156V345.156H104.5Zm0,0" transform="translate(-65.312 -252.341)"/><path d="M214.892,145.467a2.577,2.577,0,0,0,3.646,0l11.64-11.64a2.578,2.578,0,1,0-3.647-3.646L216.715,140l-3.913-3.913a2.578,2.578,0,1,0-3.647,3.646Zm0,0" transform="translate(-154.671 -96.057)"/><path d="M214.892,255.469a2.577,2.577,0,0,0,3.646,0l11.64-11.639a2.579,2.579,0,1,0-3.647-3.647L216.715,250l-3.913-3.913a2.578,2.578,0,0,0-3.647,3.646Zm0,0" transform="translate(-154.671 -177.699)"/><path d="M227.924,361.471l4,4a2.578,2.578,0,1,0,3.646-3.646l-4-4,4-4a2.578,2.578,0,0,0-3.646-3.646l-4,4-4-4a2.578,2.578,0,1,0-3.647,3.646l4,4-4,4a2.578,2.578,0,0,0,3.647,3.646Zm0,0" transform="translate(-162.928 -259.336)"/></g></g></svg>