<svg xmlns="http://www.w3.org/2000/svg" width="209" height="209" viewBox="0 0 209 209"><defs><style>.a{fill:#fff;}.b{fill:#ffd947;}</style></defs><g transform="translate(7030 7749)"><rect class="a" width="209" height="209" rx="19" transform="translate(-7030 -7749)"/><g transform="translate(-7009.289 -7736.438)"><g transform="translate(30.994 67.968)"><path class="b" d="M88.3,48.021l5.243,10.606,9.153,3.791L113.9,58.625c4.405,4.4,5.13,5.128,9.533,9.533l-3.791,11.207,3.791,9.151,10.606,5.243v13.484l-10.607,5.24-3.79,9.151,3.793,11.207-9.533,9.533L102.7,138.584l-9.153,3.791L88.3,152.981H74.829l-5.243-10.606-9.151-3.791-11.207,3.793-9.533-9.533,3.793-11.207L39.7,112.484l-10.613-5.24V93.76l10.606-5.243,3.791-9.151L39.686,68.159c4.4-4.405,5.13-5.13,9.533-9.533l11.207,3.793,9.151-3.791,5.25-10.606Z" transform="translate(-29.082 -48.021)"/><circle class="b" cx="31.127" cy="31.127" r="31.127" transform="translate(21.353 21.353)"/><path class="b" d="M74.443,86.072A7.793,7.793,0,1,1,66.65,78.28a7.794,7.794,0,0,1,7.793,7.792Z" transform="translate(-14.078 -32.772)"/></g><g transform="translate(25.289 8.438)"><path d="M112.251,77.642l-4.182-2.06a2.632,2.632,0,1,0-2.327,4.721l2.707,1.338V91.858L99.314,96.37a2.635,2.635,0,0,0-1.268,1.354l-3.79,9.159a2.609,2.609,0,0,0-.06,1.848l3.265,9.657-7.219,7.219-9.657-3.267a2.632,2.632,0,0,0-1.856.065l-2.471,1.018a2.632,2.632,0,1,0,2,4.867l1.571-.647,10.27,3.474a2.671,2.671,0,0,0,.842.138,2.632,2.632,0,0,0,1.865-.766l9.535-9.535a2.63,2.63,0,0,0,.63-2.707L99.5,107.979l3.033-7.33,9.714-4.793a2.633,2.633,0,0,0,1.468-2.361V80a2.633,2.633,0,0,0-1.468-2.361Z" transform="translate(-0.425 25.261)"/><path d="M99.212,63.627l-9.535-9.535a2.632,2.632,0,0,0-2.707-.633l-4.333,1.459a2.634,2.634,0,1,0,1.686,4.99l2.787-.937,7.219,7.219-3.261,9.66a2.614,2.614,0,0,0,.06,1.85c.3.738.665,1.6.981,2.391A2.632,2.632,0,0,0,97,78.135c-.2-.49-.406-1-.627-1.534l3.473-10.269a2.63,2.63,0,0,0-.63-2.706Z" transform="translate(2.709 14.179)"/><path d="M92.373,147.445a2.635,2.635,0,0,0-3.528,1.187l-1.289,2.6H77.329l-4.512-9.136a2.629,2.629,0,0,0-1.354-1.266l-9.159-3.79a2.63,2.63,0,0,0-1.85-.062L50.8,140.243l-7.219-7.219,3.267-9.657a2.618,2.618,0,0,0-.059-1.839c-.916-2.239-1.624-3.942-2.393-5.793l-1.4-3.375a2.635,2.635,0,0,0-1.268-1.354l-9.135-4.512V96.268l9.135-4.512A2.635,2.635,0,0,0,42.995,90.4l1.4-3.375c.769-1.851,1.477-3.554,2.393-5.793a2.618,2.618,0,0,0,.059-1.839L43.58,69.738,50.8,62.52l9.657,3.267a2.639,2.639,0,0,0,1.85-.062l9.159-3.788a2.638,2.638,0,0,0,1.354-1.268l4.512-9.136H87.556l4.524,9.139a2.627,2.627,0,0,0,1.369,1.271c.15.065,2.006.833,2.479,1.018a2.632,2.632,0,0,0,1.925-4.9c-.426-.165-.859-.347-1.313-.537l-.18-.075-4.813-9.717a2.632,2.632,0,0,0-2.358-1.463H75.7a2.629,2.629,0,0,0-2.36,1.466l-4.8,9.715-7.33,3.033L50.943,57.009a2.638,2.638,0,0,0-2.707.633L38.7,67.177a2.629,2.629,0,0,0-.632,2.707l3.474,10.273c-.738,1.8-1.354,3.273-2.011,4.858l-1.023,2.466L28.8,92.276a2.633,2.633,0,0,0-1.468,2.361v13.49a2.633,2.633,0,0,0,1.468,2.361l9.716,4.795,1.023,2.466c.659,1.587,1.272,3.061,2.011,4.858l-3.474,10.273a2.629,2.629,0,0,0,.632,2.707l9.536,9.536a2.635,2.635,0,0,0,2.707.633l10.269-3.474,7.33,3.033,4.8,9.714A2.63,2.63,0,0,0,75.7,156.5h13.49a2.63,2.63,0,0,0,2.357-1.462l2.015-4.061a2.632,2.632,0,0,0-1.19-3.531Z" transform="translate(-24.261 10.626)"/><path d="M75.289,60.469a33.759,33.759,0,1,0,33.759,33.759A33.759,33.759,0,0,0,75.289,60.469Zm0,62.254a28.5,28.5,0,1,1,28.5-28.5A28.5,28.5,0,0,1,75.289,122.723Z" transform="translate(-17.104 17.782)"/><path d="M61.717,20.083,64.7,17.225v38.83a2.632,2.632,0,1,0,5.264,0V17.146l3.068,2.937a2.633,2.633,0,0,0,3.64-3.8L69.237,9.169a2.745,2.745,0,0,0-3.73,0l-7.429,7.109a2.633,2.633,0,0,0,3.64,3.8Z" transform="translate(-9.152 -8.438)"/><path d="M77.744,25.81l2.976-2.848V61.779a2.632,2.632,0,1,0,5.264,0V22.874l3.068,2.936a2.632,2.632,0,1,0,3.64-3.8L85.263,14.9a2.749,2.749,0,0,0-3.731,0L74.1,22.006a2.632,2.632,0,1,0,3.64,3.8Z" transform="translate(-1.098 -5.552)"/><path d="M45.719,25.809,48.7,22.96V61.779a2.632,2.632,0,0,0,5.264,0V22.873l3.068,2.936a2.632,2.632,0,1,0,3.64-3.8l-7.429-7.111a2.754,2.754,0,0,0-3.73,0l-7.428,7.111a2.632,2.632,0,1,0,3.638,3.8Z" transform="translate(-17.236 -5.551)"/><path d="M32.675,32.187v38.82a2.632,2.632,0,0,0,5.264,0V32.1l3.068,2.936a2.633,2.633,0,1,0,3.64-3.8l-7.428-7.108a2.754,2.754,0,0,0-3.731,0l-7.429,7.108a2.633,2.633,0,0,0,3.64,3.8Z" transform="translate(-25.289 -0.901)"/><path d="M108.686,31.231l-7.428-7.108a2.751,2.751,0,0,0-3.731,0L90.1,31.231a2.633,2.633,0,0,0,3.64,3.8l2.976-2.848v38.82a2.632,2.632,0,0,0,5.264,0V32.1l3.068,2.936a2.633,2.633,0,1,0,3.64-3.8Z" transform="translate(6.984 -0.901)"/><path d="M80.738,97.631l-3.679-2.94a10.385,10.385,0,0,0-3.773-12.926l2.961-8.7a2.631,2.631,0,1,0-4.981-1.695L68.3,80.07c-.253-.018-.5-.039-.761-.039A10.427,10.427,0,1,0,73.767,98.8l3.685,2.945a2.632,2.632,0,0,0,3.286-4.113ZM62.381,90.457a5.162,5.162,0,1,1,5.162,5.162,5.162,5.162,0,0,1-5.162-5.162Z" transform="translate(-9.265 22.374)"/></g></g></g></svg>