<svg xmlns="http://www.w3.org/2000/svg" width="209" height="209" viewBox="0 0 209 209"><defs><style>.a{fill:#fff;}.b{fill:#ea7596;}.c{fill:#ffcbc2;}.d{fill:#f0c020;}.e{fill:#f9e5af;}</style></defs><g transform="translate(6844 7230)"><rect class="a" width="209" height="209" rx="19" transform="translate(-6844 -7230)"/><g transform="translate(-6811 -7197.015)"><g transform="translate(6.353 6.36)"><path class="b" d="M136.09,88.014a65.6,65.6,0,0,0,0-30.626H126.3a55.43,55.43,0,0,0-4.875-11.752l6.931-6.926a65.511,65.511,0,0,0-21.665-21.665l-6.926,6.931A55.429,55.429,0,0,0,88.015,19.1V9.313a65.6,65.6,0,0,0-30.626,0V19.1a55.429,55.429,0,0,0-11.752,4.875L38.71,17.045A65.51,65.51,0,0,0,17.045,38.71l6.931,6.926A55.429,55.429,0,0,0,19.1,57.389H9.313a65.6,65.6,0,0,0,0,30.626H19.1a55.429,55.429,0,0,0,4.875,11.752l-6.931,6.926A65.51,65.51,0,0,0,38.71,128.358l6.926-6.931A55.43,55.43,0,0,0,57.389,126.3v9.788a65.612,65.612,0,0,0,30.626,0V126.3a55.43,55.43,0,0,0,11.752-4.875l6.926,6.931a65.51,65.51,0,0,0,21.665-21.665l-6.931-6.926A55.43,55.43,0,0,0,126.3,88.014ZM72.7,115.2a42.489,42.489,0,1,1,42.5-42.5A42.479,42.479,0,0,1,72.7,115.2Z" transform="translate(-7.501 -7.501)"/></g><g transform="translate(34.74 34.748)"><path class="c" d="M66.825,138.686a1.353,1.353,0,0,1,1.576-2.2,48.8,48.8,0,0,0,62.883-74.213,1.353,1.353,0,0,1,1.913-1.913,51.506,51.506,0,0,1-66.372,78.324Zm-4.333-3.473c-.725-.648-1.442-1.326-2.131-2.016a1.353,1.353,0,1,1,1.913-1.913c.654.654,1.334,1.3,2.022,1.911a1.353,1.353,0,0,1-1.8,2.018Z" transform="translate(-59.964 -59.966)"/></g><g transform="translate(5 5.015)"><path d="M55.921,136.264a1.344,1.344,0,0,1-1.033-1.315v-8.776a56.749,56.749,0,0,1-10.157-4.215l-6.211,6.218a1.381,1.381,0,0,1-1.667.195,67.016,67.016,0,0,1-22.109-22.114,1.343,1.343,0,0,1,.195-1.661l6.217-6.212a56.626,56.626,0,0,1-4.215-10.156H8.165A1.35,1.35,0,0,1,6.85,87.193a66.943,66.943,0,0,1,0-31.264A1.35,1.35,0,0,1,8.165,54.9h8.776a56.647,56.647,0,0,1,4.215-10.157L14.94,38.527a1.343,1.343,0,0,1-.195-1.661,65.892,65.892,0,0,1,5.746-8c0-.005,0-.011.005-.011A1.385,1.385,0,0,1,22.4,28.69,1.355,1.355,0,0,1,22.57,30.6a64.362,64.362,0,0,0-4.956,6.779l6.168,6.164a1.351,1.351,0,0,1,.227,1.612,54.579,54.579,0,0,0-4.756,11.471,1.357,1.357,0,0,1-1.3.98H9.237a64.4,64.4,0,0,0,0,27.92h8.716a1.357,1.357,0,0,1,1.3.979,54.381,54.381,0,0,0,4.756,11.466,1.361,1.361,0,0,1-.227,1.618l-6.168,6.163A64.449,64.449,0,0,0,37.367,125.5l6.164-6.174a1.367,1.367,0,0,1,1.612-.222,54.636,54.636,0,0,0,11.471,4.756,1.357,1.357,0,0,1,.98,1.3v8.717a64.707,64.707,0,0,0,27.92,0v-8.717a1.356,1.356,0,0,1,.979-1.3,54.438,54.438,0,0,0,11.466-4.756,1.377,1.377,0,0,1,1.618.222l6.163,6.173A64.544,64.544,0,0,0,125.5,105.746l-6.173-6.163a1.37,1.37,0,0,1-.228-1.618A54.158,54.158,0,0,0,123.856,86.5a1.357,1.357,0,0,1,1.3-.979h8.712a64.179,64.179,0,0,0,0-27.92h-8.712a1.356,1.356,0,0,1-1.3-.98,54.331,54.331,0,0,0-4.762-11.471,1.353,1.353,0,0,1,.228-1.612l6.173-6.164A64.5,64.5,0,0,0,105.74,17.62l-6.163,6.174a1.375,1.375,0,0,1-1.618.222,54.091,54.091,0,0,0-11.466-4.751,1.363,1.363,0,0,1-.979-1.3V9.249a64.523,64.523,0,0,0-27.92-.005V17.96a1.368,1.368,0,0,1-.98,1.3,54.029,54.029,0,0,0-11.471,4.751,1.368,1.368,0,0,1-1.612-.222L37.367,17.62a64.255,64.255,0,0,0-7.353,5.444,1.389,1.389,0,0,1-1.91-.147,1.352,1.352,0,0,1,.146-1.9,66.951,66.951,0,0,1,8.6-6.26,1.381,1.381,0,0,1,1.667.195l6.212,6.217a56.631,56.631,0,0,1,10.157-4.215V8.172a1.343,1.343,0,0,1,1.033-1.315,67.237,67.237,0,0,1,31.264,0,1.35,1.35,0,0,1,1.033,1.315v8.776a57.069,57.069,0,0,1,10.156,4.215l6.212-6.217a1.373,1.373,0,0,1,1.661-.195,66.986,66.986,0,0,1,22.114,22.114,1.344,1.344,0,0,1-.195,1.661l-6.217,6.211A56.731,56.731,0,0,1,126.166,54.9h8.776a1.351,1.351,0,0,1,1.315,1.033,66.95,66.95,0,0,1,0,31.264,1.351,1.351,0,0,1-1.315,1.033h-8.776a56.942,56.942,0,0,1-4.215,10.162l6.217,6.206a1.343,1.343,0,0,1,.195,1.661,67.037,67.037,0,0,1-22.114,22.114,1.374,1.374,0,0,1-1.661-.195l-6.212-6.217a56.71,56.71,0,0,1-10.156,4.215v8.776a1.351,1.351,0,0,1-1.033,1.315,66.942,66.942,0,0,1-31.265,0Zm15.633-20.854A43.842,43.842,0,1,1,115.4,71.458a1.353,1.353,0,0,1-2.705.005A41.108,41.108,0,1,0,111.4,81.83a1.376,1.376,0,0,1,1.651-.974,1.36,1.36,0,0,1,.974,1.65A43.883,43.883,0,0,1,71.554,115.411Zm42.172-37.2a1.352,1.352,0,1,1,1.342-1.186.005.005,0,0,1-.005.005,1.354,1.354,0,0,1-1.337,1.18Zm-89.5-51.523a1.354,1.354,0,0,1-.016-1.915h.005a1.381,1.381,0,0,1,1.91-.006,1.349,1.349,0,0,1,.016,1.905l-.005.005a1.35,1.35,0,0,1-1.91.01Z" transform="translate(-5 -5.015)"/></g><g transform="translate(45.63 46.579)"><g transform="translate(1.352 1.354)"><path class="d" d="M111.463,86.55l6.207,8.7L128.063,98.6a5.285,5.285,0,0,1,2.567,8.257l-6.464,8.389.2,10.959a5.285,5.285,0,0,1-7.086,5.064L107.161,127.6l-10.117,3.668a5.285,5.285,0,0,1-7.086-5.064l.2-10.959-6.464-8.389A5.285,5.285,0,0,1,86.258,98.6L96.65,95.254l6.207-8.7A5.285,5.285,0,0,1,111.463,86.55Z" transform="translate(-82.589 -84.333)"/><g transform="translate(11.984 5.08)"><path class="e" d="M104.818,130.111a1.353,1.353,0,0,1,.811-1.733l.973-.353a1.353,1.353,0,0,1,.923,2.544l-.973.353A1.353,1.353,0,0,1,104.818,130.111Zm23.28.811-10.774-3.906-4.713,1.708a1.353,1.353,0,1,1-.921-2.544l5.174-1.875a1.354,1.354,0,0,1,.921,0l9.386,3.4-.182-10.111a1.356,1.356,0,0,1,.281-.85l5.986-7.767-9.536-3.069a1.349,1.349,0,0,1-.687-.5l-6.809-9.548a1.352,1.352,0,1,1,2.2-1.57l6.549,9.183,10.941,3.521a1.353,1.353,0,0,1,.657,2.113l-6.87,8.915.209,11.6A1.355,1.355,0,0,1,128.1,130.922Z" transform="translate(-104.736 -93.722)"/></g></g><path d="M87.46,125.015l.189-10.47L81.47,106.53a6.638,6.638,0,0,1-.308-7.667,1.379,1.379,0,0,1,1.867-.4,1.356,1.356,0,0,1,.406,1.873,3.927,3.927,0,0,0,.179,4.545l6.466,8.392a1.328,1.328,0,0,1,.281.85c0,.009-.2,11.019-.2,11.027a3.935,3.935,0,0,0,5.276,3.7l10.118-3.663a1.284,1.284,0,0,1,.92,0l10.118,3.663a3.928,3.928,0,0,0,5.27-3.766l-.195-10.957a1.326,1.326,0,0,1,.282-.85l6.46-8.392a3.929,3.929,0,0,0-1.91-6.141l-10.388-3.344a1.4,1.4,0,0,1-.688-.5l-6.206-8.706a3.935,3.935,0,0,0-6.407,0L96.6,94.891a1.4,1.4,0,0,1-.687.5l-3.528,1.137a1.373,1.373,0,0,1-1.7-.877,1.359,1.359,0,0,1,.871-1.7l3.105-1,5.947-8.338a6.636,6.636,0,0,1,10.811,0l5.946,8.338,9.967,3.209a6.636,6.636,0,0,1,3.225,10.367l-6.179,8.014c0,.193.19,10.418.19,10.61a6.635,6.635,0,0,1-8.9,6.234l-9.658-3.5-9.659,3.5c-4.819,1.738-9.245-2.418-8.895-6.374Zm-1.927-27.7a1.351,1.351,0,0,1,.877-1.7,1.353,1.353,0,0,1,.828,2.575A1.353,1.353,0,0,1,85.533,97.31Z" transform="translate(-80.09 -81.83)"/></g></g></g></svg>