<svg xmlns="http://www.w3.org/2000/svg" width="132" height="132" viewBox="0 0 132 132"><defs><style>.a,.h{fill:none;}.b{fill:#dff6fd;}.c{fill:#c8effe;}.d{fill:#dc8758;}.e{fill:#d77f4a;}.f{fill:#e19974;}.g{fill:#c86d36;}.h{stroke:#000;stroke-linecap:round;stroke-linejoin:round;stroke-miterlimit:10;stroke-width:15px;}.i{fill:#fee45a;}.j{fill:#fedf30;}</style></defs><g transform="translate(-642 -2395)"><rect class="a" width="132" height="132" transform="translate(642 2395)"/><g transform="translate(635.56 2417)"><path class="b" d="M79.892,9.232V98.127H15.675a1.735,1.735,0,0,1-1.734-1.736V27.776h18.72a1.815,1.815,0,0,0,1.817-1.816V7.5H78.157a1.735,1.735,0,0,1,1.736,1.736Z" transform="translate(-6.138 -6.134)"/><path class="c" d="M288.255,65.337h-1.247a.592.592,0,0,1-.523-.313,6.643,6.643,0,0,0-5.863-3.53h-5.4a6.638,6.638,0,0,0-6.638,6.638V89.071a6.638,6.638,0,0,0,6.638,6.638s2.408,0,4.151-.01a1.754,1.754,0,0,1,1.76,1.754v9.417a10.576,10.576,0,0,0,.977,4.461l1.289,2.8v24.256a8.423,8.423,0,0,0,.959,3.92h3.9V65.337Z" transform="translate(-214.5 -50.318)"/><path class="d" d="M375,158.106v27.82a6.113,6.113,0,0,1-.562,2.562l-1.7,3.707v25.25a3.919,3.919,0,0,1-7.838,0V192.2l-1.7-3.707a6.113,6.113,0,0,1-.562-2.562v-27.82Z" transform="translate(-291.459 -129.373)"/><g transform="translate(7.803 1.362)"><path class="e" d="M367.955,158.105H362.63v27.82a6.113,6.113,0,0,0,.562,2.562l1.7,3.707v25.25a3.919,3.919,0,0,0,6.936,2.5,3.9,3.9,0,0,1-.751-2.3V192.4l-1.7-3.707a6.114,6.114,0,0,1-.562-2.562v-10.96a4.247,4.247,0,0,1,4.247-4.247H375V158.105h-7.046Z" transform="translate(-299.262 -130.734)"/><path class="f" d="M310.54,107.641h31.427v17.442H310.54Z" transform="translate(-256.638 -89.441)"/><g transform="translate(63.369 45.081)"><path class="e" d="M375,255.556v6.973H362.631v-6.973H375Z" transform="translate(-362.631 -255.556)"/></g><path class="g" d="M368.816,262.529v-6.973H362.63v6.973h6.185Z" transform="translate(-299.262 -210.475)"/><g transform="translate(0)"><path class="b" d="M34.479,7.5V25.96a1.815,1.815,0,0,1-1.817,1.816H13.941a1.732,1.732,0,0,1,.509-1.225L32.994,8A1.736,1.736,0,0,1,34.221,7.5h.258Z" transform="translate(-13.941 -7.496)"/></g><path class="h" d="M74.716,185.544h2.166" transform="translate(-63.671 -153.187)"/></g><path class="d" d="M321.594,113.5v-5.861H310.54v17.442h31.427v-6.351H326.824A5.231,5.231,0,0,1,321.594,113.5Z" transform="translate(-248.835 -88.079)"/><path class="e" d="M301.078,111.622h-5.4a2.1,2.1,0,0,1-2.095-2.095V88.588a2.1,2.1,0,0,1,2.095-2.095h5.4a2.1,2.1,0,0,1,2.095,2.095v20.939A2.1,2.1,0,0,1,301.078,111.622Z" transform="translate(-234.957 -70.774)"/><path class="e" d="M449.064,111.622h5.4a2.1,2.1,0,0,0,2.095-2.095V88.588a2.1,2.1,0,0,0-2.095-2.095h-5.4a2.1,2.1,0,0,0-2.095,2.095v20.939A2.1,2.1,0,0,0,449.064,111.622Z" transform="translate(-360.47 -70.774)"/><path class="c" d="M34.478,7.5V25.96a1.815,1.815,0,0,1-1.817,1.816H13.94V96.391a1.736,1.736,0,0,0,1.736,1.736H36.8a1.735,1.735,0,0,1-1.734-1.736V34.346a4.441,4.441,0,0,1,1.6-3.454,6.346,6.346,0,0,0,2.352-4.932V7.5Z" transform="translate(-6.137 -6.134)"/><path class="i" d="M114.853,367.893H68.691a.874.874,0,0,1-.874-.874v-9.651a.874.874,0,0,1,.874-.874h46.162a.874.874,0,0,1,.874.874v9.651A.874.874,0,0,1,114.853,367.893Z" transform="translate(-50.223 -291.708)"/><path class="j" d="M68.691,356.495a.874.874,0,0,0-.874.874v9.651a.874.874,0,0,0,.874.874H79.153v-11.4Z" transform="translate(-50.223 -291.708)"/><g transform="translate(6.44 0)"><path d="M322.817,78.993h-5.4a3.462,3.462,0,0,0-3.458,3.458v.385H298.4v-.385a3.462,3.462,0,0,0-3.458-3.458h-5.4a3.462,3.462,0,0,0-3.458,3.458V103.39a3.462,3.462,0,0,0,3.458,3.458h5.4a3.462,3.462,0,0,0,3.458-3.458V103h.23V121.19a7.445,7.445,0,0,0,.686,3.133l1.581,3.436v12.528a1.363,1.363,0,1,0,2.726,0V127.46a1.361,1.361,0,0,0-.125-.57l-1.705-3.707a4.737,4.737,0,0,1-.436-1.993v-1.774H311v1.774a4.738,4.738,0,0,1-.436,1.993l-1.705,3.707a1.362,1.362,0,0,0-.125.57v25.25a2.556,2.556,0,0,1-5.111,0V146.1a1.363,1.363,0,1,0-2.726,0v6.615a5.282,5.282,0,1,0,10.563,0V127.759l1.581-3.436a7.445,7.445,0,0,0,.686-3.132V103h.23v.385a3.462,3.462,0,0,0,3.458,3.458h5.4a3.462,3.462,0,0,0,3.458-3.458V82.451a3.462,3.462,0,0,0-3.458-3.458Zm-27.144,24.4a.733.733,0,0,1-.732.732h-5.4a.733.733,0,0,1-.732-.732V82.451a.733.733,0,0,1,.732-.732h5.4a.733.733,0,0,1,.732.732Zm5.682,13.3v-4.246H311v4.246ZM311,109.718h-9.645V103H311Zm12.549-6.328a.733.733,0,0,1-.732.732h-5.4a.733.733,0,0,1-.732-.732V92.215a1.363,1.363,0,1,0-2.726,0v8.064H298.4V85.562h15.557v.844a1.363,1.363,0,0,0,2.726,0V82.451a.733.733,0,0,1,.732-.732h5.4a.733.733,0,0,1,.732.732Z" transform="translate(-235.26 -64.637)"/><path d="M67.1,90.629H9.538a.372.372,0,0,1-.372-.372V23.006H26.524a3.184,3.184,0,0,0,3.18-3.18V2.726H72.02a.372.372,0,0,1,.372.372v8.935a1.363,1.363,0,1,0,2.726,0V3.1A3.1,3.1,0,0,0,72.02,0H28.083a3.078,3.078,0,0,0-2.19.907L7.347,19.452a3.077,3.077,0,0,0-.907,2.19V90.258a3.1,3.1,0,0,0,3.1,3.1H67.1a1.363,1.363,0,0,0,0-2.726ZM26.978,3.677V19.826a.455.455,0,0,1-.454.454H10.375Z" transform="translate(-6.44 0)"/><path d="M68.579,180.77h2.166a1.363,1.363,0,1,0,0-2.726H68.579a1.363,1.363,0,1,0,0,2.726Z" transform="translate(-56.171 -145.687)"/><path d="M139.728,180.77a1.363,1.363,0,0,0,0-2.726H114.993a1.363,1.363,0,1,0,0,2.726Z" transform="translate(-94.15 -145.687)"/><path d="M104.133,233.866H68.579a1.363,1.363,0,1,0,0,2.726h35.554a1.363,1.363,0,1,0,0-2.726Z" transform="translate(-56.171 -191.365)"/><path d="M114.1,289.688H68.579a1.363,1.363,0,0,0,0,2.726H114.1a1.363,1.363,0,1,0,0-2.726Z" transform="translate(-56.171 -237.042)"/><path d="M68.276,351.721a1.363,1.363,0,0,0,0-2.726H62.554a2.239,2.239,0,0,0-2.237,2.237v9.651a2.239,2.239,0,0,0,2.237,2.237h46.162a2.239,2.239,0,0,0,2.237-2.237v-9.651a2.239,2.239,0,0,0-2.237-2.237H74.085a1.363,1.363,0,1,0,0,2.726h34.142v8.673H63.043v-8.673Z" transform="translate(-50.526 -285.571)"/></g></g></g></svg>