<svg xmlns="http://www.w3.org/2000/svg" width="132" height="132" viewBox="0 0 132 132"><defs><style>.a{fill:none;}.b{fill:#e087a6;}.c{fill:#efbe9a;}.d{fill:#8bd2f5;}</style></defs><g transform="translate(-642 -2814)"><rect class="a" width="132" height="132" transform="translate(642 2814)"/><g transform="translate(642 2831)"><path class="b" d="M23.6,333.449H8V296H23.6Zm0,0" transform="translate(-6.44 -238.267)"/><path class="c" d="M88,221.845H98.922l3.121-3.121V200h2.525a6.015,6.015,0,0,1,5.378,3.323,13.812,13.812,0,0,1,1.459,6.179v9.222h24.966a4.681,4.681,0,0,1,0,9.362,4.681,4.681,0,0,1,0,9.362,4.681,4.681,0,1,1,0,9.362H133.25a4.681,4.681,0,0,1,0,9.362H103.6l-6.241-3.121H88" transform="translate(-70.836 -160.991)"/><path class="d" d="M282.328,54.811H271.405a23.405,23.405,0,1,1,23.405-23.405V67.294Zm0,0" transform="translate(-199.629 -6.44)"/><path d="M17.164,328.569H1.56A1.56,1.56,0,0,1,0,327.009V289.56A1.56,1.56,0,0,1,1.56,288h15.6a1.56,1.56,0,0,1,1.56,1.56v37.449A1.56,1.56,0,0,1,17.164,328.569ZM3.121,325.449H15.6V291.121H3.121Zm0,0" transform="translate(0 -231.827)"/><path d="M133.25,444.483H103.6a1.565,1.565,0,0,1-.7-.164l-5.912-2.957H88v-3.121h9.362a1.564,1.564,0,0,1,.7.164l5.912,2.957H133.25a3.121,3.121,0,1,0,0-6.241h-6.241V432h6.241a6.241,6.241,0,0,1,0,12.483Zm0,0" transform="translate(-70.836 -347.741)"/><path d="M297.362,396.483h-3.121v-3.121h3.121a3.121,3.121,0,1,0,0-6.241H288V384h9.362a6.241,6.241,0,1,1,0,12.483Zm0,0" transform="translate(-231.827 -309.103)"/><path d="M297.362,348.483H288v-3.121h9.362a3.121,3.121,0,1,0,0-6.241H288V336h9.362a6.241,6.241,0,0,1,0,12.483Zm0,0" transform="translate(-231.827 -270.465)"/><path d="M136.371,223.207h-9.362v-3.121h9.362a3.121,3.121,0,1,0,0-6.241H111.405a1.56,1.56,0,0,1-1.56-1.56v-9.222a12.323,12.323,0,0,0-1.294-5.48,4.428,4.428,0,0,0-3.983-2.462H103.6v17.164a1.553,1.553,0,0,1-.457,1.1l-3.121,3.121a1.556,1.556,0,0,1-1.1.457H88v-3.121H98.276l2.206-2.206V193.56a1.56,1.56,0,0,1,1.56-1.56h2.525a7.531,7.531,0,0,1,6.775,4.188,15.453,15.453,0,0,1,1.623,6.875v7.662h23.405a6.241,6.241,0,1,1,0,12.483Zm0,0" transform="translate(-70.836 -154.551)"/><path d="M40,448h3.121v3.121H40Zm0,0" transform="translate(-32.198 -360.62)"/><path d="M40,320h3.121v3.121H40Zm0,0" transform="translate(-32.198 -257.586)"/><path d="M288.371,62.414a1.562,1.562,0,0,1-1.1-.457L275.242,49.931H264.966a24.966,24.966,0,1,1,24.966-24.966V60.854a1.561,1.561,0,0,1-.963,1.441A1.533,1.533,0,0,1,288.371,62.414ZM264.966,3.121a21.845,21.845,0,1,0,0,43.69h10.922a1.556,1.556,0,0,1,1.1.457l9.819,9.819V24.966A21.869,21.869,0,0,0,264.966,3.121Zm0,0" transform="translate(-193.189)"/><path d="M272,120h37.449v3.121H272Zm0,0" transform="translate(-218.948 -96.595)"/><path d="M272,152h37.449v3.121H272Zm0,0" transform="translate(-218.948 -122.353)"/><path d="M288,88h34.328v3.121H288Zm0,0" transform="translate(-231.827 -70.836)"/></g></g></svg>