<svg xmlns="http://www.w3.org/2000/svg" width="260.495" height="246.244" viewBox="0 0 260.495 246.244"><defs><style>.a{fill:#fff;opacity:0.949;}.b{fill:#e6e9ed;}.c{fill:#cf9e76;}.d{fill:#b4dd7f;}.e{fill:#ffc729;}.f{fill:#fcd770;}.g{fill:#ff826e;}.h{fill:#969faa;}.i{fill:#f0d0b4;}.j{fill:#aab2bd;}.k{fill:#69d6f4;}</style></defs><g transform="translate(-214 -448)"><g transform="translate(1.5 19.416)"><g transform="translate(0 3)"><g transform="translate(212.5 425.584)"><rect class="a" width="260.495" height="246.244" rx="5"/></g></g></g><g transform="translate(260 488)"><g transform="translate(2.689 2.689)"><g transform="translate(64.544 16.136)"><path class="b" d="M108.37,141.467H25V9.689A2.69,2.69,0,0,1,27.689,7h80.68a2.69,2.69,0,0,1,2.689,2.689V138.778A2.69,2.69,0,0,1,108.37,141.467Z" transform="translate(-25 -7)"/></g><g transform="translate(53.787 5.379)"><path class="c" d="M29.068,148.225h86.059a2.7,2.7,0,0,0,2.689-2.689V16.447a2.7,2.7,0,0,0-2.689-2.689H98.991a2.7,2.7,0,0,0,2.689-2.689V3h24.2a2.7,2.7,0,0,1,2.689,2.689v150.6a2.7,2.7,0,0,1-2.689,2.689H23.689A2.7,2.7,0,0,1,21,156.293V142.846a5.4,5.4,0,0,0,5.379,5.379Z" transform="translate(-21 -3)"/></g><g transform="translate(53.787 5.379)"><path class="c" d="M50.583,13.757H34.447a2.7,2.7,0,0,0-2.689,2.689v8.176c-.887-.081-1.775-.108-2.689-.108A31.89,31.89,0,0,0,21,25.537V5.689A2.7,2.7,0,0,1,23.689,3h24.2v8.068A2.7,2.7,0,0,0,50.583,13.757Z" transform="translate(-21 -3)"/></g><g transform="translate(80.68)"><path class="d" d="M84.787,6.379v8.068A2.7,2.7,0,0,1,82.1,17.136H33.689A2.7,2.7,0,0,1,31,14.447V3.689A2.7,2.7,0,0,1,33.689,1H82.1a2.7,2.7,0,0,1,2.689,2.689Z" transform="translate(-31 -1)"/></g><g transform="translate(104.884 37.651)"><path class="e" d="M85.719,84.788v16.271H72.272V98.235a5.821,5.821,0,0,0-3.631-5.406l-.081-.027a5.8,5.8,0,0,0-6.347,1.264L60.2,96.057,45,80.862l2.017-2.044a5.808,5.808,0,0,0,1.264-6.293l-.054-.134a5.8,5.8,0,0,0-5.379-3.6H40V47.272h2.824a5.821,5.821,0,0,0,5.406-3.631l.027-.081a5.8,5.8,0,0,0-1.264-6.347L45,35.2,60.2,20l2.044,2.017a5.746,5.746,0,0,0,6.32,1.237.1.1,0,0,0,.081-.027,5.784,5.784,0,0,0,3.631-5.379V15H85.719V31.271c-.887-.081-1.775-.134-2.689-.134a26.893,26.893,0,1,0,0,53.787c.914,0,1.829-.054,2.689-.134Z" transform="translate(-40 -15)"/></g><g transform="translate(121.02 53.787)"><path class="f" d="M75.583,63.787V74.652c-.861.081-1.775.134-2.689.134a26.893,26.893,0,1,1,0-53.787c.914,0,1.8.054,2.689.134V31.973a17.842,17.842,0,0,0-2.689-.215,16.136,16.136,0,1,0,0,32.272A14.712,14.712,0,0,0,75.583,63.787Z" transform="translate(-46 -21)"/></g><g transform="translate(0 102.195)"><path class="g" d="M22.515,41.689V68.583a2.7,2.7,0,0,1-2.689,2.689H1V39H19.825A2.7,2.7,0,0,1,22.515,41.689Z" transform="translate(-1 -39)"/></g><g transform="translate(53.787 102.034)"><path class="h" d="M36.06,39.209a5.4,5.4,0,0,0-2.716,1.479,5.258,5.258,0,0,0-1.587,3.792,5.4,5.4,0,0,0,5.379,5.379,5.418,5.418,0,0,0-5.379,5.379,5.4,5.4,0,0,0,5.379,5.379,5.418,5.418,0,0,0-5.379,5.379,5.4,5.4,0,0,0,5.379,5.379V82.131a5.4,5.4,0,0,1-5.379,5.379H26.379A5.4,5.4,0,0,1,21,82.131V47.169c4.464-5.755,4.975-6.885,5.379-8.068h8.068a7.746,7.746,0,0,0,1.587-.161Z" transform="translate(-21 -38.94)"/></g><g transform="translate(64.544 102.195)"><path class="i" d="M35.757,39a5.394,5.394,0,0,1,5.379,5.379,5.418,5.418,0,0,1-5.379,5.379H30.379A5.4,5.4,0,0,1,25,44.379a5.258,5.258,0,0,1,1.587-3.792A5.4,5.4,0,0,1,29.3,39.108,4.712,4.712,0,0,1,30.379,39Z" transform="translate(-25 -39)"/></g><g transform="translate(64.544 112.952)"><path class="i" d="M35.757,43a5.4,5.4,0,0,1,5.379,5.379,5.418,5.418,0,0,1-5.379,5.379H30.379A5.4,5.4,0,0,1,25,48.379,5.418,5.418,0,0,1,30.379,43Z" transform="translate(-25 -43)"/></g><g transform="translate(64.544 123.71)"><path class="i" d="M30.379,57.757A5.4,5.4,0,0,1,25,52.379,5.418,5.418,0,0,1,30.379,47h5.379a5.4,5.4,0,0,1,5.379,5.379,5.418,5.418,0,0,1-5.379,5.379Z" transform="translate(-25 -47)"/></g><g transform="translate(21.515 91.438)"><path class="i" d="M41.272,53.825V83.408h-12.8A27.566,27.566,0,0,1,9,75.34V48.447A27.692,27.692,0,0,1,32.747,35H60.1a2.7,2.7,0,0,1,2.689,2.689,8.049,8.049,0,0,1-2.367,5.7A7.906,7.906,0,0,1,56.306,45.6a7.746,7.746,0,0,1-1.587.161H46.651C46.247,46.941,45.736,48.07,41.272,53.825Z" transform="translate(-9 -35)"/></g><g transform="translate(29.583 26.893)"><path class="j" d="M46.961,11.108a32.278,32.278,0,1,1-10.757.914A31.89,31.89,0,0,1,44.272,11C45.186,11,46.074,11.027,46.961,11.108Z" transform="translate(-12 -11)"/></g><g transform="translate(40.34 37.651)"><circle class="k" cx="21.5" cy="21.5" r="21.5" transform="translate(-0.029 0.399)"/></g></g><g transform="translate(0)"><path d="M63.408,38.2a24.2,24.2,0,1,0-24.2,24.2A24.234,24.234,0,0,0,63.408,38.2Zm-43.029,0A18.825,18.825,0,1,1,39.2,57.029,18.846,18.846,0,0,1,20.379,38.2Z" transform="translate(25.34 23.651)"/><path d="M40.808,19.293,26.573,33.528,23.1,30.05l-3.8,3.8,7.28,7.28L44.61,23.1Z" transform="translate(32.592 32.592)"/><path d="M4,56H9.379v5.379H4Z" transform="translate(6.757 94.603)"/><path d="M8,56h5.379v5.379H8Z" transform="translate(13.515 94.603)"/><path d="M12,56h5.379v5.379H12Z" transform="translate(20.272 94.603)"/><path d="M2,3H39.651V8.379H2Z" transform="translate(3.379 5.068)"/><path d="M2,7H34.272v5.379H2Z" transform="translate(3.379 11.825)"/><path d="M2,11H28.893v5.379H2Z" transform="translate(3.379 18.583)"/><path d="M2,15H7.379v5.379H2Z" transform="translate(3.379 25.34)"/><path d="M6,15h5.379v5.379H6Z" transform="translate(10.136 25.34)"/><path d="M161.361,5.379H139.846A5.384,5.384,0,0,0,134.467,0H86.059A5.384,5.384,0,0,0,80.68,5.379H59.166a5.384,5.384,0,0,0-5.379,5.379V28.6a34.906,34.906,0,0,0-7.6,62.949,30.552,30.552,0,0,0-22.02,11.368,5.332,5.332,0,0,0-2.654-.726H0v37.651H21.515a5.315,5.315,0,0,0,3.354-1.208,29.979,29.979,0,0,0,18.815,6.586h10.1v16.136a5.384,5.384,0,0,0,5.379,5.379h102.2a5.384,5.384,0,0,0,5.379-5.379V10.757A5.384,5.384,0,0,0,161.361,5.379ZM21.515,134.467H5.379V107.574H21.515ZM150.6,96.816a13.447,13.447,0,1,1,0-26.893ZM131.778,83.37A18.846,18.846,0,0,0,150.6,102.2v5.379a24.2,24.2,0,1,1,0-48.408v5.379A18.846,18.846,0,0,0,131.778,83.37Zm-10.757,0A29.618,29.618,0,0,0,150.6,112.952V123.71h-8.068v-.132a8.6,8.6,0,0,0-14.657-6.075l-.094.094-11.411-11.411.118-.116a8.6,8.6,0,0,0-6.062-14.633h-.167V75.3h.132a8.6,8.6,0,0,0,6.075-14.657l-.094-.094L127.787,49.14l.116.118a8.6,8.6,0,0,0,14.635-6.064v-.164h8.068V53.787A29.618,29.618,0,0,0,121.02,83.37ZM150.6,37.651H137.156V43.2a3.226,3.226,0,0,1-5.454,2.259l-3.921-3.921L108.765,60.551l3.9,3.9a3.223,3.223,0,0,1-2.267,5.476h-5.51V96.816h5.545a3.161,3.161,0,0,1,2.937,2.065,3.112,3.112,0,0,1-.678,3.389l-3.921,3.921,19.016,19.016,3.9-3.9a3.223,3.223,0,0,1,5.476,2.267v5.51H150.6V150.6h-75.8a7.977,7.977,0,0,0,.495-2.689v-8.068h2.689a8.033,8.033,0,0,0,5.97-13.447,7.945,7.945,0,0,0,0-10.757,8,8,0,0,0-4.841-13.334,10.63,10.63,0,0,0,1.56-5.492,5.325,5.325,0,0,0-1.232-3.383,34.9,34.9,0,0,0-9.526-66.083V21.515H150.6Zm-80.68,83.37a2.694,2.694,0,0,1,2.689-2.689h5.379a2.689,2.689,0,1,1,0,5.379H72.612A2.694,2.694,0,0,1,69.923,121.02Zm8.068-8.068H72.612a2.689,2.689,0,0,1,0-5.379h5.379a2.689,2.689,0,1,1,0,5.379Zm0,16.136a2.689,2.689,0,1,1,0,5.379H72.612a2.689,2.689,0,1,1,0-5.379ZM86.059,5.379h48.408l0,10.757H86.059ZM59.166,10.757H80.68v5.379H69.923a5.384,5.384,0,0,0-5.379,5.379v5.379a35.112,35.112,0,0,0-5.379.457Zm-24.2,51.1A29.583,29.583,0,1,1,64.544,91.438,29.618,29.618,0,0,1,34.961,61.855Zm8.722,77.991a24.667,24.667,0,0,1-16.79-6.565V108.4a25.115,25.115,0,0,1,21.06-11.588H75.3a5.384,5.384,0,0,1-5.379,5.379H59.916l-.613,1.84a15.622,15.622,0,0,1-9.034,9.582l-5.551,2.221,2,4.991,5.548-2.219c.519-.207,1.022-.449,1.519-.7v21.932Zm15.483-25.734a21.01,21.01,0,0,0,4.532-6.538h1.342a7.82,7.82,0,0,0,1.6,8.068,7.945,7.945,0,0,0,0,10.757,7.994,7.994,0,0,0,3.281,12.952v8.563a2.694,2.694,0,0,1-2.689,2.689H61.855a2.694,2.694,0,0,1-2.689-2.689Zm102.2,47.249H59.166v-5.874a7.977,7.977,0,0,0,2.689.495H150.6a5.384,5.384,0,0,0,5.379-5.379V21.515a5.384,5.384,0,0,0-5.379-5.379H139.846V10.757h21.515Z" transform="translate(0)"/><path d="M36,52h5.379v5.379H36Z" transform="translate(60.816 87.846)"/><path d="M40,52h5.379v5.379H40Z" transform="translate(67.574 87.846)"/><path d="M44,52h5.379v5.379H44Z" transform="translate(74.331 87.846)"/></g></g></g></svg>