<svg xmlns="http://www.w3.org/2000/svg" width="89" height="89" viewBox="0 0 89 89"><defs><style>.a{fill:#b3ddff;}.b{fill:#ffd947;}.c{fill:#183651;}.d{fill:#e1e6e8;}.e{fill:#fff;}.f{fill:#f05f50;}</style></defs><g transform="translate(-300 -1568)"><rect class="a" width="89" height="89" rx="5" transform="translate(300 1568)"/><g transform="translate(311.657 1581.308)"><path class="b" d="M354.855,19.455v-6.7a4.875,4.875,0,0,1,9.75,0v6.6h-9.75Z" transform="translate(-308.758 -6.861)"/><path class="c" d="M357.846,13.609h-9.852a.96.96,0,0,1-1.016-1.016v-6.7a5.891,5.891,0,0,1,11.781,0v6.6A.917.917,0,0,1,357.846,13.609Zm-8.836-2.031h7.82V5.891a3.859,3.859,0,0,0-7.719,0v5.688Z" transform="translate(-301.897)"/><path class="b" d="M18.809,290.658v13.2a4.875,4.875,0,1,1-9.75,0v-13.2Z" transform="translate(-7.548 -253.181)"/><path class="c" d="M6.285,302.891A5.9,5.9,0,0,1,.394,297V283.8a.96.96,0,0,1,1.016-1.016h9.852a.96.96,0,0,1,1.016,1.016V297A5.917,5.917,0,0,1,6.285,302.891ZM2.425,284.813V297a3.859,3.859,0,0,0,7.719,0V284.813Z" transform="translate(0 -246.321)"/><path class="d" d="M51.057,57.541V12.752a4.876,4.876,0,0,1,4.875-4.875H90.869a4.876,4.876,0,0,0-4.875,4.875V57.541a4.876,4.876,0,0,1-4.875,4.875H46.08A4.964,4.964,0,0,0,51.057,57.541Z" transform="translate(-39.795 -6.861)"/><path class="c" d="M74.156,56.57H39.219a1.016,1.016,0,0,1,0-2.031,3.858,3.858,0,0,0,3.859-3.859V5.891A5.9,5.9,0,0,1,48.969,0H83.906a.96.96,0,0,1,1.016,1.016.96.96,0,0,1-1.016,1.016,3.858,3.858,0,0,0-3.859,3.859V50.68A5.831,5.831,0,0,1,74.156,56.57ZM43.687,54.539H74.156a3.858,3.858,0,0,0,3.859-3.859V5.891a5.646,5.646,0,0,1,1.422-3.859H49.07a3.858,3.858,0,0,0-3.859,3.859V50.68A5.93,5.93,0,0,1,43.687,54.539Z" transform="translate(-32.934)"/><g transform="translate(15.324 5.078)"><path class="e" d="M142.082,85.7a.8.8,0,0,0,.813-.813v-45.5H117a.8.8,0,0,0-.813.813V85.8h25.9Z" transform="translate(-116.184 -39.384)"/><path class="e" d="M283.94,269.149v-4.063l-3.859-.711a12.191,12.191,0,0,0-1.523-3.758l2.234-3.25-2.844-2.844-3.25,2.234a12.187,12.187,0,0,0-3.758-1.523l-.711-3.961h-4.063l-.711,3.859a12.191,12.191,0,0,0-3.758,1.523l-3.25-2.234-2.844,2.844,2.234,3.25a12.188,12.188,0,0,0-1.523,3.758l-3.859.711v4.063l3.859.711a12.192,12.192,0,0,0,1.523,3.758l-2.234,3.25,2.844,2.844,3.25-2.234a12.189,12.189,0,0,0,3.758,1.523l.711,3.859h4.063l.711-3.859a12.192,12.192,0,0,0,3.758-1.523l3.25,2.234,2.844-2.844-2.234-3.25a12.189,12.189,0,0,0,1.523-3.758Z" transform="translate(-234.886 -223.954)"/></g><path class="c" d="M263.368,277.7h-4.063a1.094,1.094,0,0,1-1.016-.813l-.609-3.25a14.119,14.119,0,0,1-2.844-1.219l-2.641,1.93a1.075,1.075,0,0,1-1.32-.1l-2.844-2.844a1.065,1.065,0,0,1-.1-1.32l1.93-2.641a14.117,14.117,0,0,1-1.219-2.844l-3.25-.609a.989.989,0,0,1-.813-1.016v-4.063a1.094,1.094,0,0,1,.813-1.016l3.25-.609a14.118,14.118,0,0,1,1.219-2.844l-2.031-2.641a1.075,1.075,0,0,1,.1-1.32l2.844-2.844a1.065,1.065,0,0,1,1.32-.1l2.641,1.93a14.118,14.118,0,0,1,2.844-1.219l.609-3.25a.989.989,0,0,1,1.016-.813h4.063a1.094,1.094,0,0,1,1.016.813l.609,3.25a14.119,14.119,0,0,1,2.844,1.219l2.641-1.93a1.076,1.076,0,0,1,1.32.1l2.844,2.844a1.065,1.065,0,0,1,.1,1.32l-1.93,2.641a14.119,14.119,0,0,1,1.219,2.844l3.25.609a.989.989,0,0,1,.813,1.016v4.063a1.094,1.094,0,0,1-.813,1.016l-3.25.609a14.118,14.118,0,0,1-1.219,2.844l1.93,2.641a1.075,1.075,0,0,1-.1,1.32l-2.844,2.844a1.065,1.065,0,0,1-1.32.1l-2.641-1.93a14.119,14.119,0,0,1-2.844,1.219l-.609,3.25A.889.889,0,0,1,263.368,277.7Zm-3.25-2.031h2.336l.508-3.047a1.1,1.1,0,0,1,.813-.813,10.347,10.347,0,0,0,3.453-1.422,1.1,1.1,0,0,1,1.117,0l2.539,1.727,1.727-1.727-1.727-2.539a1.1,1.1,0,0,1,0-1.117,11.294,11.294,0,0,0,1.422-3.453,1.1,1.1,0,0,1,.813-.813l3.047-.508v-2.336l-3.047-.508a1.1,1.1,0,0,1-.813-.813,10.346,10.346,0,0,0-1.422-3.453,1.1,1.1,0,0,1,0-1.117l1.727-2.539-1.727-1.727-2.539,1.727a1.1,1.1,0,0,1-1.117,0,11.3,11.3,0,0,0-3.453-1.422,1.1,1.1,0,0,1-.813-.813l-.508-3.047h-2.336l-.508,3.047a1.1,1.1,0,0,1-.813.813,10.347,10.347,0,0,0-3.453,1.422,1.1,1.1,0,0,1-1.117,0l-2.539-1.727-1.727,1.727,1.727,2.539a1.1,1.1,0,0,1,0,1.117,11.3,11.3,0,0,0-1.422,3.453,1.1,1.1,0,0,1-.813.813l-3.047.508v2.336l3.047.508a1.1,1.1,0,0,1,.813.813,10.346,10.346,0,0,0,1.422,3.453,1.1,1.1,0,0,1,0,1.117l-1.727,2.539,1.727,1.727,2.539-1.727a1.1,1.1,0,0,1,1.117,0,11.3,11.3,0,0,0,3.453,1.422,1.1,1.1,0,0,1,.813.813Z" transform="translate(-212.701 -212.701)"/><circle class="f" cx="8.734" cy="8.734" r="8.734" transform="translate(39.9 39.427)"/><circle class="e" cx="3.758" cy="3.758" r="3.758" transform="translate(44.877 44.403)"/><g transform="translate(17.863 9.344)"><path class="c" d="M342.3,346.678h0a4.6,4.6,0,0,1-3.352-1.422,4.74,4.74,0,0,1,3.352-8.125,4.6,4.6,0,0,1,3.352,1.422,4.779,4.779,0,0,1,1.422,3.352A4.834,4.834,0,0,1,342.3,346.678Zm0-7.516a2.731,2.731,0,0,0-2.742,2.742,2.775,2.775,0,0,0,2.742,2.742v0a2.731,2.731,0,0,0,2.742-2.742,2.774,2.774,0,0,0-.813-1.93A2.4,2.4,0,0,0,342.3,339.162Z" transform="translate(-311.526 -303.006)"/><rect class="c" width="2.031" height="2.031"/><rect class="c" width="2.031" height="2.031" transform="translate(4.977)"/><rect class="c" width="2.031" height="2.031" transform="translate(9.852)"/><rect class="c" width="2.031" height="2.031" transform="translate(14.727)"/><rect class="c" width="2.031" height="2.031" transform="translate(19.602)"/><rect class="c" width="21.531" height="2.031" transform="translate(0 8.328)"/><rect class="c" width="21.531" height="2.031" transform="translate(0 16.656)"/><rect class="c" width="14.422" height="2.031" transform="translate(0 24.984)"/><rect class="c" width="12.492" height="2.031" transform="translate(0 33.211)"/></g></g></g></svg>