<svg xmlns="http://www.w3.org/2000/svg" width="89" height="89" viewBox="0 0 89 89"><defs><style>.a{fill:#b3ddff;}.b{fill:#dff3ff;}.c{fill:#fff;}.d{fill:#ffc870;}.e{fill:#baee83;}.f{fill:#fe6663;}.g{fill:#ffcdac;}.h{fill:#ffd947;}</style></defs><g transform="translate(-830 -1108)"><rect class="a" width="89" height="89" rx="5" transform="translate(830 1108)"/><g transform="translate(845 1123)"><path class="b" d="M99.852,225.855H86.108A14.158,14.158,0,0,0,71.95,240.013v6.222h42.06v-6.222A14.158,14.158,0,0,0,99.852,225.855Z" transform="translate(-63.729 -200.048)"/><path class="c" d="M203.032,225.855l-7.845,7.845-7.845-7.845Z" transform="translate(-165.936 -200.048)"/><circle class="d" cx="2.742" cy="2.742" r="2.742" transform="translate(1.143 51.868)"/><circle class="e" cx="2.742" cy="2.742" r="2.742" transform="translate(9.566 43.445)"/><circle class="f" cx="2.742" cy="2.742" r="2.742" transform="translate(28.794 43.445)"/><path class="g" d="M198.2,93.766v6.57a8.524,8.524,0,0,1-8.524,8.524h0a8.524,8.524,0,0,1-8.524-8.524v-6.57Z" transform="translate(-160.449 -83.052)"/><path class="a" d="M177.77,10h13.3v5.734a5.385,5.385,0,0,1-5.385,5.385h-9.765a3.691,3.691,0,0,1-3.691-3.691V15.544A5.544,5.544,0,0,1,177.77,10Z" transform="translate(-152.547 -8.857)"/><ellipse class="h" cx="8.611" cy="9.021" rx="8.611" ry="9.021" transform="translate(39.591 39.413)"/><path d="M63.093,348.354a1.143,1.143,0,1,0-.808-.335A1.15,1.15,0,0,0,63.093,348.354Z" transform="translate(-54.871 -306.527)"/><path d="M66.046,37.86a1.141,1.141,0,0,0,1.371-.854,12.941,12.941,0,0,1,11.305-9.983L86.16,34.46a1.143,1.143,0,0,0,1.616,0l7.438-7.437a12.929,12.929,0,0,1,5.87,2.127,1.143,1.143,0,1,0,1.274-1.9,15.229,15.229,0,0,0-8.518-2.588h-.667a9.648,9.648,0,0,0,3.433-7.381V9.953a6.487,6.487,0,0,0,.773-3.077V1.143A1.143,1.143,0,0,0,96.235,0h-13.3a6.694,6.694,0,0,0-6.686,6.686V8.57a4.807,4.807,0,0,0,1.019,2.963v5.75a9.648,9.648,0,0,0,3.433,7.381H80.1a15.306,15.306,0,0,0-14.9,11.824A1.143,1.143,0,0,0,66.046,37.86ZM78.538,6.686a4.406,4.406,0,0,1,4.4-4.4H95.093V6.876a4.247,4.247,0,0,1-4.242,4.242H81.086A2.551,2.551,0,0,1,78.538,8.57V6.686Zm1.019,10.6V13.154a4.809,4.809,0,0,0,1.529.249h9.765a6.486,6.486,0,0,0,3.47-1v4.882a7.389,7.389,0,0,1-7.338,7.381h-.088A7.389,7.389,0,0,1,79.557,17.284Zm7.382,9.667h5.115l-5.086,5.086-5.086-5.086h5.058Z" transform="translate(-57.717)"/><path d="M31.536,370.219a3.891,3.891,0,0,0-3.713,2.742h-11.8a3.885,3.885,0,1,0-7.146,2.959L5.7,379.094a3.888,3.888,0,1,0,1.616,1.616l3.174-3.174a3.882,3.882,0,0,0,5.53-2.29h11.8a3.885,3.885,0,1,0,3.713-5.027ZM3.885,384.127a1.6,1.6,0,1,1,1.6-1.6A1.6,1.6,0,0,1,3.885,384.127Zm8.423-8.423a1.6,1.6,0,1,1,1.6-1.6A1.6,1.6,0,0,1,12.308,375.7Zm19.228,0a1.6,1.6,0,1,1,1.6-1.6A1.6,1.6,0,0,1,31.536,375.7Z" transform="translate(0 -327.917)"/><path d="M312.154,353.2a1.141,1.141,0,1,0,.808.335A1.151,1.151,0,0,0,312.154,353.2Z" transform="translate(-275.474 -312.843)"/><path d="M357.057,172.05h-4.1a1.143,1.143,0,0,0,0,2.285h1.362l-15.624,15.624a1.143,1.143,0,1,0,1.616,1.616l15.6-15.6v1.323a1.143,1.143,0,0,0,2.285,0v-4.1A1.143,1.143,0,0,0,357.057,172.05Z" transform="translate(-299.698 -152.391)"/><path d="M220.3,139.5a1.143,1.143,0,1,0,.335.809A1.152,1.152,0,0,0,220.3,139.5Z" transform="translate(-193.401 -123.268)"/><path d="M274.513,141.455a1.141,1.141,0,1,0-.808-.334A1.15,1.15,0,0,0,274.513,141.455Z" transform="translate(-242.134 -123.268)"/><path d="M346.055,336a10.055,10.055,0,1,0,10.055,10.055A10.066,10.066,0,0,0,346.055,336Zm0,17.825a7.77,7.77,0,1,1,7.77-7.77A7.779,7.779,0,0,1,346.055,353.825Z" transform="translate(-297.608 -297.608)"/><path d="M398.736,376.532a.9.9,0,0,1,.974.778,1.143,1.143,0,1,0,2.285,0,3.083,3.083,0,0,0-2.12-2.87,1.141,1.141,0,0,0-2.277,0,3.083,3.083,0,0,0-2.12,2.87,3.17,3.17,0,0,0,3.259,3.064.8.8,0,1,1-.974.778,1.143,1.143,0,1,0-2.285,0,3.084,3.084,0,0,0,2.128,2.873,1.141,1.141,0,0,0,2.262,0A3.084,3.084,0,0,0,402,381.152a3.17,3.17,0,0,0-3.259-3.063.8.8,0,1,1,0-1.557Z" transform="translate(-350.289 -330.712)"/></g></g></svg>