<svg xmlns="http://www.w3.org/2000/svg" width="89" height="89" viewBox="0 0 89 89"><defs><style>.a{fill:#b3ddff;}.b{fill:#edf6ff;}.c{fill:#d8e2f3;}.d{fill:#c9dbfd;}.e{fill:#c1e3a0;}.f{fill:#a8d4a4;}.g{fill:#aecafc;}.h{fill:#f6e2c1;}.i{fill:#f2d0ac;}.j{fill:#817d84;}.k{fill:#756e79;}</style></defs><g transform="translate(-300 -1454)"><rect class="a" width="89" height="89" rx="5" transform="translate(300 1454)"/><g transform="translate(315.165 1471)"><g transform="translate(0.863 0.858)"><path class="b" d="M326.111,7.5h11.372a3.791,3.791,0,0,1,3.791,3.791v7.583a3.791,3.791,0,0,1-3.791,3.791h-1.578a.947.947,0,0,0-.569.19l-5.813,4.36a.948.948,0,0,1-1.517-.758V23.613a.948.948,0,0,0-.948-.948h-.948a3.791,3.791,0,0,1-3.791-3.791V11.291A3.791,3.791,0,0,1,326.111,7.5Z" transform="translate(-286.301 -7.5)"/><g transform="translate(41.706 0)"><path class="c" d="M434.469,7.5h-2.632a3.791,3.791,0,0,1,3.791,3.791v7.583a3.791,3.791,0,0,1-3.791,3.791h2.632a3.791,3.791,0,0,0,3.791-3.791V11.291A3.791,3.791,0,0,0,434.469,7.5Z" transform="translate(-424.992 -7.5)"/><path class="c" d="M376.716,140.223l-4.7,3.524v.078a.948.948,0,0,0,1.516.758l5.813-4.36a.948.948,0,0,1,.569-.189h-2.632A.948.948,0,0,0,376.716,140.223Z" transform="translate(-372.018 -124.868)"/></g><g transform="translate(0 0)"><path class="d" d="M35.964,305.534h1.895a7.578,7.578,0,0,1,7.578,7.578v14.242a.947.947,0,0,1-.947.947h-36a.947.947,0,0,1-.947-.947V313.112a7.578,7.578,0,0,1,7.578-7.578H35.964Z" transform="translate(-7.545 -271.431)"/><g transform="translate(15.157 44.688)"><path class="e" d="M145.686,398.819l1.895,11.4H140l1.895-11.4v-.783h3.8Z" transform="translate(-140.002 -398.036)"/><path class="f" d="M169.306,398.819l.006-.783H166.68l-.006.783,1.895,11.4H171.2Z" transform="translate(-163.622 -398.036)"/></g><path class="g" d="M259.689,313.111a7.578,7.578,0,0,0-7.578-7.578h-2.63a7.578,7.578,0,0,1,7.576,7.578v14.242a.947.947,0,0,1-.947.947h2.632a.947.947,0,0,0,.947-.947Z" transform="translate(-221.797 -271.43)"/><path class="e" d="M147.58,346.069l-1.895,3.157H141.9L140,346.069v-4.033l3.789,1.507,3.789-1.507Z" transform="translate(-124.845 -303.756)"/><path class="f" d="M169.292,342.785v2.03l-2.648,4.412h2.635l1.895-3.157v-4.033Z" transform="translate(-148.44 -303.756)"/><path class="h" d="M131.722,240.7H141.2v13.1h-9.473Z" transform="translate(-117.513 -214.02)"/><path class="i" d="M191.51,240.706h2.632v13.1H191.51Z" transform="translate(-170.459 -214.021)"/><path class="b" d="M95.065,288.973l-4.737,1.9,3.356,8.389a.947.947,0,0,0,1.4.436l4.712-3.141Z" transform="translate(-80.856 -256.765)"/><path class="b" d="M177.854,288.973l4.736,1.9-3.356,8.389a.947.947,0,0,1-1.4.436l-4.712-3.141Z" transform="translate(-154.171 -256.765)"/><g transform="translate(5.684)"><path class="h" d="M79.951,106.846h1.895a1.9,1.9,0,0,1,1.895,1.895v3.789a1.9,1.9,0,0,1-1.895,1.895H59.111a1.9,1.9,0,0,1-1.895-1.895v-3.789a1.9,1.9,0,0,1,1.895-1.895H79.951Z" transform="translate(-57.216 -95.478)"/><path class="h" d="M99.8,10.5l-9.473,8.558V29.1a9.473,9.473,0,0,0,18.946,0V19.058Z" transform="translate(-86.542 -10.157)"/><path class="i" d="M169.774,64.51V76.933a9.473,9.473,0,0,1-8.157,9.38,9.465,9.465,0,0,0,10.789-9.38V66.888Z" transform="translate(-149.671 -57.986)"/><path class="j" d="M104.54,7.5H95.067a4.737,4.737,0,0,0-4.737,4.737v4.737h1.894a1.9,1.9,0,0,0,1.895-1.895V13.184h11.368v1.895a1.9,1.9,0,0,0,1.895,1.895h1.895V12.237A4.737,4.737,0,0,0,104.54,7.5Z" transform="translate(-86.541 -7.5)"/><path class="k" d="M194.141,7.5h-2.632a4.737,4.737,0,0,1,4.737,4.737v4.588a1.889,1.889,0,0,0,.737.149h1.895V12.237A4.737,4.737,0,0,0,194.141,7.5Z" transform="translate(-176.142 -7.5)"/></g><path class="c" d="M204.477,295.98l-3.559,8.9,1.531,1.021a.947.947,0,0,0,1.405-.436l3.356-8.389Z" transform="translate(-178.791 -262.97)"/></g><g transform="translate(7.591 28.435)"><path class="k" d="M94.735,475.15h-19.9a.948.948,0,0,1-.948-.948v-1.9a.948.948,0,0,1,.948-.948h19.9Z" transform="translate(-73.888 -446.716)"/><path class="j" d="M267.935,280.643a1.9,1.9,0,0,0,1.9-1.9V257.9a1.9,1.9,0,0,0-1.9-1.9H241.4a1.9,1.9,0,0,0-1.9,1.9v20.852a1.9,1.9,0,0,0,1.9,1.9v.572h26.532Z" transform="translate(-220.557 -256)"/><path class="k" d="M467.57,256h-2.632a1.9,1.9,0,0,1,1.9,1.9v20.852a1.9,1.9,0,0,1-1.9,1.9v.572h2.632v-.572a1.9,1.9,0,0,0,1.9-1.9V257.9A1.9,1.9,0,0,0,467.57,256Z" transform="translate(-420.191 -256)"/><path class="j" d="M268.915,475.15H240.423a.915.915,0,0,1-.915-.915v-1.96a.915.915,0,0,1,.915-.915h28.492a.915.915,0,0,1,.915.915v1.96A.915.915,0,0,1,268.915,475.15Z" transform="translate(-220.557 -446.716)"/><path class="k" d="M476.191,471.359h-2.624a.915.915,0,0,1,.915.915v1.96a.915.915,0,0,1-.915.915h2.624a.915.915,0,0,0,.915-.915v-1.96A.915.915,0,0,0,476.191,471.359Z" transform="translate(-427.833 -446.716)"/></g></g><g transform="translate(0 0)"><path d="M134.209,126.057v-.948a.858.858,0,1,0-1.716,0v.948a.858.858,0,0,0,1.716,0Z" transform="translate(-117.332 -110.033)"/><path d="M199.6,126.915a.858.858,0,0,0,.858-.858v-.948a.858.858,0,1,0-1.716,0v.948A.858.858,0,0,0,199.6,126.915Z" transform="translate(-176 -110.033)"/><path d="M150.623,177.309a.858.858,0,1,0-1.486-.86,1.985,1.985,0,0,1-3.439,0,.858.858,0,0,0-1.486.859,3.7,3.7,0,0,0,6.41,0Z" transform="translate(-127.608 -155.879)"/><path d="M58.587,31.189a2.757,2.757,0,0,0-2.753-2.754H34.788a.858.858,0,0,0,0,1.716H55.834a1.038,1.038,0,0,1,1.037,1.037V52.041a1.038,1.038,0,0,1-1.037,1.038H29.3a1.038,1.038,0,0,1-1.037-1.038V31.189A1.038,1.038,0,0,1,29.3,30.152h2.054a.858.858,0,0,0,0-1.716H29.3a2.757,2.757,0,0,0-2.753,2.754v1.772L25.406,32.5v-4a10.346,10.346,0,0,0,4.7-7.828H31.18a2.757,2.757,0,0,0,2.753-2.754V14.128a2.757,2.757,0,0,0-2.753-2.754H30.143V5.6a5.6,5.6,0,0,0-5.6-5.6H15.072a5.6,5.6,0,0,0-5.6,5.6v5.777H8.439a2.757,2.757,0,0,0-2.753,2.754v3.791a2.757,2.757,0,0,0,2.753,2.754H9.512a10.345,10.345,0,0,0,4.7,7.828v4l-4.045,1.619H8.438A8.449,8.449,0,0,0,0,42.563V49.17a.858.858,0,0,0,1.716,0V42.563a6.731,6.731,0,0,1,6.722-6.724H9.753l3.141,7.854a1.8,1.8,0,0,0,2.678.832l.175-.116,1.27,2.116-1.092,6.553H9.4A1.808,1.808,0,0,0,7.6,54.884v1.9c0,.031,0,.06,0,.091h-5.8a.09.09,0,0,1-.089-.09V52.6A.858.858,0,0,0,0,52.6v4.178a1.808,1.808,0,0,0,1.806,1.806H56.813a1.776,1.776,0,0,0,1.774-1.774v-1.96a1.767,1.767,0,0,0-.5-1.232,2.738,2.738,0,0,0,.5-1.58ZM23.695,53.078,22.6,46.525l1.27-2.116.174.116a1.8,1.8,0,0,0,2.5-.5v8.013a2.737,2.737,0,0,0,.2,1.038H23.695Zm2.853-13.565-1.417,3.542a.084.084,0,0,1-.057.052A.083.083,0,0,1,25,43.1l-4.021-2.681,3.916-6.268,1.653.662v4.7ZM31.18,13.091a1.038,1.038,0,0,1,1.037,1.038V17.92a1.038,1.038,0,0,1-1.037,1.037H30.143V13.091ZM15.072,1.716h9.476A3.885,3.885,0,0,1,28.427,5.6V9.478H27.39a1.038,1.038,0,0,1-1.037-1.037V7.4h.09a.858.858,0,0,0,0-1.716H13.176a.858.858,0,0,0,0,1.716h.089V8.441a1.038,1.038,0,0,1-1.037,1.037H11.192V5.6A3.885,3.885,0,0,1,15.072,1.716ZM7.4,17.92V14.128a1.038,1.038,0,0,1,1.037-1.037H9.476v5.866H8.438A1.039,1.039,0,0,1,7.4,17.92Zm3.79,1.9V11.195h1.037a2.757,2.757,0,0,0,2.753-2.754V7.4h9.654V8.441a2.757,2.757,0,0,0,2.753,2.754h1.037v8.621a8.617,8.617,0,1,1-17.235,0Zm8.617,10.336a10.275,10.275,0,0,0,3.88-.757v3.444l-3.88,6.21-3.88-6.21V29.4A10.278,10.278,0,0,0,19.809,30.152ZM14.544,43.108a.084.084,0,0,1-.057-.052l-3.038-7.6,3.275-1.311,3.916,6.268L14.62,43.1a.084.084,0,0,1-.076.011ZM19.809,41.7l2.634,1.756L21.219,45.5H18.4l-1.224-2.041Zm-1.168,5.513h2.336l.977,5.865H17.664ZM9.313,54.884a.09.09,0,0,1,.089-.09H26.551c0,.019,0,.038,0,.057v1.96c0,.019,0,.038,0,.057H9.4a.09.09,0,0,1-.089-.09v-1.9Zm47.557,1.928a.057.057,0,0,1-.057.057H28.322a.057.057,0,0,1-.057-.057v-1.96a.057.057,0,0,1,.057-.057H56.813a.057.057,0,0,1,.057.057Z" transform="translate(0 0)"/><path d="M281.694,311.412a1.776,1.776,0,0,0,1.774,1.774h17.121a1.776,1.776,0,0,0,1.774-1.774V299.974a1.776,1.776,0,0,0-1.774-1.774H283.468a1.776,1.776,0,0,0-1.774,1.774Zm1.716-11.439a.057.057,0,0,1,.057-.057h17.121a.057.057,0,0,1,.057.057v11.439a.057.057,0,0,1-.057.057H283.468a.057.057,0,0,1-.057-.057Z" transform="translate(-249.46 -264.078)"/><path d="M319.467,16.882h.948a.09.09,0,0,1,.089.09v2.844a1.8,1.8,0,0,0,2.889,1.445L329.2,16.9a.089.089,0,0,1,.053-.018h1.579a4.654,4.654,0,0,0,4.649-4.65V4.65A4.654,4.654,0,0,0,330.837,0H319.467a4.654,4.654,0,0,0-4.648,4.65v7.583a4.654,4.654,0,0,0,4.648,4.65ZM316.534,4.65a2.936,2.936,0,0,1,2.932-2.933h11.371A2.936,2.936,0,0,1,333.77,4.65v7.583a2.936,2.936,0,0,1-2.932,2.933h-1.579a1.815,1.815,0,0,0-1.083.361l-5.812,4.36a.089.089,0,0,1-.143-.072V16.971a1.808,1.808,0,0,0-1.806-1.806h-.948a2.936,2.936,0,0,1-2.932-2.933Z" transform="translate(-278.794 0)"/><path d="M348.8,34.85h11.371a.858.858,0,0,0,0-1.716H348.8a.858.858,0,0,0,0,1.716Z" transform="translate(-308.128 -29.343)"/><path d="M348.8,67.983h11.371a.858.858,0,0,0,0-1.716H348.8a.858.858,0,0,0,0,1.716Z" transform="translate(-308.128 -58.684)"/><path d="M348.8,101.116h3.79a.858.858,0,1,0,0-1.716H348.8a.858.858,0,0,0,0,1.716Z" transform="translate(-308.128 -88.026)"/></g></g></g></svg>