<svg xmlns="http://www.w3.org/2000/svg" width="89" height="89" viewBox="0 0 89 89"><defs><style>.a{fill:#b3ddff;}.b{fill:#d8ec84;}.c{fill:#f6838d;}.d{fill:#ffbf9e;}.e{fill:#8690a6;}.f{fill:#91def5;}.g{fill:#fff;}</style></defs><g transform="translate(-300 -1682)"><rect class="a" width="89" height="89" rx="5" transform="translate(300 1682)"/><g transform="translate(312 1694)"><circle class="b" cx="10.5" cy="10.5" r="10.5" transform="translate(43 0.949)"/><circle class="c" cx="10.5" cy="10.5" r="10.5" transform="translate(1 0.949)"/><g transform="translate(12.685 22.827)"><path class="d" d="M201.865,201.522A7.865,7.865,0,0,1,194,193.657v-5.842a7.865,7.865,0,1,1,15.73,0v5.842A7.865,7.865,0,0,1,201.865,201.522Z" transform="translate(-182.076 -179.95)"/><path class="e" d="M201.865,179.95A7.865,7.865,0,0,0,194,187.815V189.1h1.274a12.035,12.035,0,0,0,6.591-1.966,12.035,12.035,0,0,0,6.591,1.966h1.274v-1.281A7.865,7.865,0,0,0,201.865,179.95Z" transform="translate(-182.076 -179.95)"/><path class="f" d="M127.745,350H111.833A11.833,11.833,0,0,0,100,361.833v7.449h39.578v-7.449A11.833,11.833,0,0,0,127.745,350Z" transform="translate(-100 -328.428)"/><path class="g" d="M209.193,350l-7.956,19.282L193.281,350Z" transform="translate(-181.448 -328.428)"/></g><path d="M351.341,11.671a11.671,11.671,0,1,0-12.939,11.6V35.265h-5.2a1.269,1.269,0,1,0,0,2.537h6.47a1.269,1.269,0,0,0,1.269-1.269V23.272A11.687,11.687,0,0,0,351.341,11.671ZM339.671,20.8a9.133,9.133,0,1,1,9.133-9.133A9.144,9.144,0,0,1,339.671,20.8Z" transform="translate(-286.392)"/><path d="M388.921,64.17,385.2,67.891l-1.777-1.777a1.269,1.269,0,0,0-1.794,1.794l2.674,2.674a1.269,1.269,0,0,0,1.794,0l4.618-4.618a1.268,1.268,0,0,0-1.794-1.794Z" transform="translate(-332.893 -55.705)"/><path d="M64.873,56.521a1.269,1.269,0,0,0-1.794,0L60.7,58.9l-2.382-2.382a1.269,1.269,0,0,0-1.794,1.794L58.9,60.7l-2.382,2.382a1.269,1.269,0,1,0,1.794,1.794L60.7,62.491l2.382,2.382a1.269,1.269,0,1,0,1.794-1.794L62.491,60.7l2.382-2.382a1.269,1.269,0,0,0,0-1.794Z" transform="translate(-49.027 -49.026)"/><path d="M119.014,191.522h-1.649a9.106,9.106,0,0,0,2.826-6.6v-5.842a9.133,9.133,0,1,0-18.267,0v5.842a9.106,9.106,0,0,0,2.826,6.6H103.1a13.116,13.116,0,0,0-13.1,13.1v7.449a1.269,1.269,0,0,0,1.269,1.269h39.578a1.269,1.269,0,0,0,1.269-1.269v-7.449A13.116,13.116,0,0,0,119.014,191.522Zm-7.956,6.85a1.269,1.269,0,0,0,1.269-1.269v-3.044h4.792l-6.06,14.688L105,194.059h4.792V197.1A1.269,1.269,0,0,0,111.058,198.372Zm0-25.885a6.6,6.6,0,0,1,6.6,6.6v.013h-.005a10.741,10.741,0,0,1-5.9-1.759,1.268,1.268,0,0,0-1.389,0,10.741,10.741,0,0,1-5.9,1.759h-.006v-.013A6.6,6.6,0,0,1,111.058,172.487Zm-6.6,12.438v-3.292h.005a13.267,13.267,0,0,0,6.591-1.748,13.267,13.267,0,0,0,6.591,1.748h.005v3.292a6.6,6.6,0,1,1-13.193,0Zm-11.924,19.7a10.576,10.576,0,0,1,9.73-10.528l6.895,16.709H92.537Zm37.041,6.18H112.953l6.895-16.709a10.576,10.576,0,0,1,9.73,10.528Z" transform="translate(-78.583 -148.391)"/><path d="M18.14,37.8a1.269,1.269,0,0,0,1.266-1.347,1.3,1.3,0,0,0-1.316-1.19H12.946a.007.007,0,0,1-.007-.007V23.272a11.6,11.6,0,0,0,8.645-5.441,1.269,1.269,0,0,0-2.154-1.341,9.134,9.134,0,1,1,0-9.64,1.269,1.269,0,1,0,2.154-1.341A11.671,11.671,0,1,0,10.4,23.272V36.527A1.275,1.275,0,0,0,11.677,37.8Z"/><path d="M164,83.269a1.269,1.269,0,1,0,.372-.9A1.278,1.278,0,0,0,164,83.269Z" transform="translate(-143.196 -71.598)"/></g></g></svg>