<svg xmlns="http://www.w3.org/2000/svg" width="89" height="89" viewBox="0 0 89 89"><defs><style>.a{fill:#fff;}.b{fill:#60a4ff;}.c{fill:#cbe558;}.d{fill:#ffdcd5;}.d,.e,.f,.g{fill-rule:evenodd;}.e{fill:#ff5d7d;}.f{fill:#f5c6af;}.g{fill:#ffc144;}</style></defs><g transform="translate(7698 9558)"><rect class="a" width="89" height="89" rx="5" transform="translate(-7698 -9558)"/><g transform="translate(-7694.402 -9515.559)"><g transform="translate(11.111 -31.371)"><circle class="b" cx="12.305" cy="12.305" r="12.305" transform="translate(27.493 17.399) rotate(-45)"/><circle class="c" cx="12.305" cy="12.305" r="12.305" transform="translate(0 9.228) rotate(-17.04)"/><path class="d" d="M106.987,54.736a4.735,4.735,0,1,0-9.471,0V57.1a4.735,4.735,0,0,0,9.471,0Z" transform="translate(-86.884 -39.988)"/><path class="e" d="M81.085,133.394a4.718,4.718,0,0,1-7.041,0,8.334,8.334,0,0,0-4.679,6.3,12.3,12.3,0,0,0,16.4,0A8.333,8.333,0,0,0,81.085,133.394Z" transform="translate(-62.197 -113.12)"/><path class="f" d="M346.988,54.736a4.735,4.735,0,1,0-9.471,0V57.1a4.735,4.735,0,0,0,9.471,0Z" transform="translate(-297.354 -39.988)"/><path class="g" d="M321.086,133.394a4.718,4.718,0,0,1-7.041,0,8.334,8.334,0,0,0-4.679,6.3,12.3,12.3,0,0,0,16.4,0A8.334,8.334,0,0,0,321.086,133.394Z" transform="translate(-272.667 -113.12)"/><path class="d" d="M146.414,201.076c-1.483.607-2.31.86-3.061,2.414-.7,1.457-1.356,4.479-.776,6.033,2.273,6.091,5.718,5.807,5.769,11.853h17.888c.017-3.4,2.878-8.735,2.878-12.135v-8.324c0-4.245-4.565-5.391-5.93-3.972h0a3.873,3.873,0,0,0-5.452-1.641h0c-1.109-2.246-4.6-2.507-5.434-1.011l-.2-9.335A3,3,0,0,0,150,182.108a2.682,2.682,0,0,0-.748-.106,2.884,2.884,0,0,0-2.792,2.433,3.07,3.07,0,0,0-.045.527v16.115Z" transform="translate(-126.205 -155.747)"/></g><g transform="translate(12.943 -27.511)"><path d="M64.793,35.93a4.91,4.91,0,0,0-3.232-.222,4.961,4.961,0,0,0-1.612-1.239,5.245,5.245,0,0,0-3.867-.342,4.955,4.955,0,0,0-2.445-1.436,5.058,5.058,0,0,0-2.2-.094l-.158-7.27a4.329,4.329,0,0,0-1.368-3.1A13.539,13.539,0,0,0,35.131.734a1.23,1.23,0,1,0,.8,2.327A11.074,11.074,0,0,1,48.324,20.271a9.539,9.539,0,0,0-3.5-4.26,5.927,5.927,0,0,0,.677-2.755V10.888a5.966,5.966,0,0,0-11.932,0v2.368a5.927,5.927,0,0,0,.676,2.753,9.569,9.569,0,0,0-3.5,4.257A11.074,11.074,0,0,1,29.062,9.93a1.23,1.23,0,0,0-2.327-.8,13.536,13.536,0,0,0,16.413,17.45V40.643a4.961,4.961,0,0,0-2.939,2.7c-.812,1.681-1.549,5.048-.821,7a18.158,18.158,0,0,0,3.4,5.659,7.619,7.619,0,0,1,2.289,5.774A1.23,1.23,0,0,0,46.31,63H64.2a1.23,1.23,0,0,0,1.23-1.224A21.838,21.838,0,0,1,66.8,56.111a23.013,23.013,0,0,0,1.5-6.477V41.31a5.578,5.578,0,0,0-3.514-5.38ZM36.031,10.888a3.5,3.5,0,0,1,7.01,0v2.368a3.5,3.5,0,1,1-7.01,0ZM32.686,22.231a7.085,7.085,0,0,1,3.138-4.31,5.947,5.947,0,0,0,7.424,0A7.084,7.084,0,0,1,46.1,21.327a4.136,4.136,0,0,0-2.7,2.585,11.044,11.044,0,0,1-10.71-1.681Zm33.159,27.4a21.669,21.669,0,0,1-1.379,5.709,32.022,32.022,0,0,0-1.4,5.2H47.482a9.953,9.953,0,0,0-2.791-6.1,15.614,15.614,0,0,1-3-4.955c-.4-1.08.065-3.689.731-5.067a2.662,2.662,0,0,1,.723-.992v3.7a1.23,1.23,0,1,0,2.461,0V25.354a1.673,1.673,0,0,1,1.607-1.729,1.717,1.717,0,0,1,1.607,1.756l.284,13.046a1.23,1.23,0,0,0,2.46-.054l-.07-3.228a2.224,2.224,0,0,1,1.524-.072A2.185,2.185,0,0,1,54.8,37.223a1.23,1.23,0,1,0,2.461,0,4.836,4.836,0,0,0-.072-.835,3.019,3.019,0,0,1,1.68.293,2.162,2.162,0,0,1,1.3,1.967,1.23,1.23,0,1,0,2.461,0A4.7,4.7,0,0,0,62.588,38a2.828,2.828,0,0,1,1.285.213,3.142,3.142,0,0,1,1.973,3.1v8.323Z" transform="translate(-26.001 0)"/><path d="M279.536,0a13.535,13.535,0,1,0,13.535,13.535A13.55,13.55,0,0,0,279.536,0Zm-6.85,22.231a7.086,7.086,0,0,1,3.138-4.31,5.947,5.947,0,0,0,7.423,0,7.091,7.091,0,0,1,3.138,4.31,11.052,11.052,0,0,1-13.7,0Zm10.355-8.975a3.5,3.5,0,0,1-7.01,0V10.888a3.5,3.5,0,1,1,7.01,0Zm5.283,7.01a9.579,9.579,0,0,0-3.5-4.257,5.927,5.927,0,0,0,.676-2.753V10.888a5.966,5.966,0,1,0-11.931,0v2.368a5.928,5.928,0,0,0,.676,2.753,9.568,9.568,0,0,0-3.5,4.257,11.074,11.074,0,1,1,17.576,0Z" transform="translate(-236.47 0)"/><path d="M56.523,31.745A1.231,1.231,0,1,0,55.7,29.6h0a1.23,1.23,0,0,0,.828,2.141Z" transform="translate(-51.688 -25.681)"/></g></g></g></svg>