<svg xmlns="http://www.w3.org/2000/svg" width="89" height="89" viewBox="0 0 89 89"><defs><style>.a{fill:#fff;}.b{fill:#e4f6ff;}.c{fill:#ea7596;}.d{fill:#dd5790;}.e{fill:#3342aa;}</style></defs><g transform="translate(7698 9356)"><g transform="translate(0 -46)"><g transform="translate(0 248)"><rect class="a" width="89" height="89" rx="5" transform="translate(-7698 -9558)"/></g></g><g transform="translate(-7688.852 -9375.257)"><g transform="translate(1.036 33.992)"><path class="b" d="M41.816,40.456C20.038,40.456,7.5,61.573,7.5,61.573S20.038,82.691,41.816,82.691,76.131,61.573,76.131,61.573,63.593,40.456,41.816,40.456Z" transform="translate(-7.5 -40.456)"/><g transform="translate(1.65 17.712)"><path class="b" d="M84.052,168.722c-2.666,4-14.656,20.233-33.75,20.233-13.582,0-24.532-8.214-30.851-14.4,4.063,5.551,15.489,18.685,32.665,18.685,21.777,0,34.316-21.117,34.316-21.117A38.428,38.428,0,0,0,84.052,168.722Z" transform="translate(-19.452 -168.722)"/></g><g transform="translate(19.138 5.939)"><circle class="c" cx="15.178" cy="15.178" r="15.178"/></g><g transform="translate(29.366 16.168)"><circle class="d" cx="4.949" cy="4.949" r="4.949"/></g><g transform="translate(22.131 8.932)"><path class="e" d="M189,105.14a15.179,15.179,0,0,1-21.236,21.236A15.178,15.178,0,1,0,189,105.14Z" transform="translate(-167.761 -105.14)"/></g></g><g transform="translate(0 32.956)"><path d="M213.812,154.537a1.036,1.036,0,0,0-1.127.936c-.017.18-.025.364-.025.548a5.984,5.984,0,1,0,3.168-5.281,1.036,1.036,0,0,0,.978,1.826,3.914,3.914,0,1,1-2.074,3.455c0-.121.006-.241.016-.358A1.036,1.036,0,0,0,213.812,154.537Z" transform="translate(-183.293 -133.868)"/><path d="M70.558,54.58a51.692,51.692,0,0,0-9.189-10.8,45.058,45.058,0,0,0-11.03-7.428,35.2,35.2,0,0,0-14.987-3.4,35.692,35.692,0,0,0-17.46,4.659,1.036,1.036,0,0,0,1,1.811,33.644,33.644,0,0,1,16.455-4.4c10.9,0,19.384,5.574,24.584,10.25a52.2,52.2,0,0,1,8.507,9.831,52.042,52.042,0,0,1-8.46,9.789c-5.209,4.7-13.71,10.293-24.631,10.293-10.9,0-19.384-5.574-24.584-10.251a52.2,52.2,0,0,1-8.507-9.832A51.859,51.859,0,0,1,14.9,41.952a1.036,1.036,0,0,0-1.2-1.686A52.48,52.48,0,0,0,.145,54.58a1.036,1.036,0,0,0,0,1.058,51.694,51.694,0,0,0,9.189,10.8,46.327,46.327,0,0,0,8.888,6.347C12.1,74.521,8.649,77.125,8.649,80.1c0,2.761,2.846,5.154,8.231,6.919A58.8,58.8,0,0,0,32.843,89.5l-3.375,3.284a1.036,1.036,0,1,0,1.444,1.484l5.161-5.022a1.036,1.036,0,0,0,.01-1.475l-5.161-5.161a1.036,1.036,0,0,0-1.465,1.465l3.352,3.352a56.567,56.567,0,0,1-15.285-2.376c-4.261-1.4-6.8-3.248-6.8-4.951,0-2.188,4.062-4.489,10.376-5.9a34.668,34.668,0,0,0,28.51,0c6.314,1.409,10.376,3.711,10.376,5.9,0,2.83-7.154,6.273-19.126,7.138a1.036,1.036,0,0,0,.074,2.069l.076,0c10.477-.757,21.048-3.9,21.048-9.2,0-2.97-3.449-5.574-9.573-7.311a46.323,46.323,0,0,0,8.888-6.347,51.69,51.69,0,0,0,9.189-10.8A1.036,1.036,0,0,0,70.558,54.58Z" transform="translate(0 -32.956)"/><path d="M168.613,98.571a1.036,1.036,0,0,0,1.338-.6,16.229,16.229,0,1,0-2.595,4.47,1.036,1.036,0,0,0-1.6-1.312,14.091,14.091,0,1,1,2.263-3.9A1.035,1.035,0,0,0,168.613,98.571Z" transform="translate(-119.453 -70.027)"/></g></g></g></svg>