<svg xmlns="http://www.w3.org/2000/svg" width="89" height="89" viewBox="0 0 89 89"><defs><style>.a{fill:#fff;}.b{fill:#b3ddff;}.c{fill:#ffd947;}.d{fill:#ffcb7c;}</style></defs><g transform="translate(7698 9701)"><g transform="translate(0 -143)"><rect class="a" width="89" height="89" rx="5" transform="translate(-7698 -9558)"/></g><g transform="translate(-7685.5 -9688.215)"><path class="b" d="M170.469,358.43v18.494l9.273-7.073,9.273,7.073V358.43Zm0,0" transform="translate(-148.075 -312.26)"/><path class="c" d="M81.968,11.843a6.234,6.234,0,0,1,8.669,0,6.234,6.234,0,0,0,5.208,1.692,6.234,6.234,0,0,1,7.014,5.1,6.235,6.235,0,0,0,3.219,4.43,6.234,6.234,0,0,1,2.679,8.245,6.236,6.236,0,0,0,0,5.476,6.234,6.234,0,0,1-2.679,8.245,6.235,6.235,0,0,0-3.219,4.43,6.234,6.234,0,0,1-7.014,5.1,6.234,6.234,0,0,0-5.208,1.692,6.234,6.234,0,0,1-8.669,0,6.234,6.234,0,0,0-5.208-1.692,6.235,6.235,0,0,1-7.014-5.1,6.234,6.234,0,0,0-3.219-4.43,6.234,6.234,0,0,1-2.679-8.245,6.236,6.236,0,0,0,0-5.476,6.234,6.234,0,0,1,2.679-8.245,6.234,6.234,0,0,0,3.219-4.43,6.235,6.235,0,0,1,7.014-5.1A6.235,6.235,0,0,0,81.968,11.843Zm0,0" transform="translate(-54.635 -8.79)"/><path class="a" d="M150.393,88.021a15.974,15.974,0,1,1-15.974-15.974A15.974,15.974,0,0,1,150.393,88.021Zm0,0" transform="translate(-102.752 -62.767)"/><path class="d" d="M171.633,128.095l-5.225,3.814a1.036,1.036,0,0,1-1.6-1.159l2.012-6.148-5.251-3.8a1.036,1.036,0,0,1,.607-1.876h6.48l1.986-6.143a1.036,1.036,0,0,1,1.971,0l1.986,6.143h6.481a1.036,1.036,0,0,1,.607,1.876l-5.251,3.8,2.013,6.148a1.036,1.036,0,0,1-1.6,1.159Zm0,0" transform="translate(-139.95 -97.632)"/><path d="M97.913,37.375a7.492,7.492,0,0,0,3.233-9.948,4.916,4.916,0,0,1,0-4.345,7.491,7.491,0,0,0-3.233-9.948,4.917,4.917,0,0,1-2.554-3.515A7.492,7.492,0,0,0,86.9,3.47a4.916,4.916,0,0,1-4.132-1.342,7.491,7.491,0,0,0-10.461,0A4.915,4.915,0,0,1,68.172,3.47a7.492,7.492,0,0,0-8.463,6.149,4.915,4.915,0,0,1-2.554,3.515,7.492,7.492,0,0,0-3.232,9.948,4.916,4.916,0,0,1,0,4.345,7.492,7.492,0,0,0,3.232,9.948,4.915,4.915,0,0,1,2.554,3.515,7.487,7.487,0,0,0,7.264,6.222V64.663a1.288,1.288,0,0,0,2.069,1.024l8.492-6.477,8.492,6.477a1.288,1.288,0,0,0,2.069-1.024V47.112a7.487,7.487,0,0,0,7.264-6.222A4.917,4.917,0,0,1,97.913,37.375Zm-28.364,9.66A4.915,4.915,0,0,1,72.3,48.381,7.514,7.514,0,0,0,76.247,50.4v6.557l-6.7,5.109Zm9.273,9.918V50.4a7.514,7.514,0,0,0,3.942-2.015,4.915,4.915,0,0,1,2.755-1.345V62.061Zm14-16.508a4.927,4.927,0,0,1-5.565,4.044,7.472,7.472,0,0,0-6.284,2.041,4.927,4.927,0,0,1-6.879,0,7.467,7.467,0,0,0-5.212-2.117,7.625,7.625,0,0,0-1.071.076,4.927,4.927,0,0,1-5.565-4.043A7.476,7.476,0,0,0,58.363,35.1a4.926,4.926,0,0,1-2.126-6.542,7.473,7.473,0,0,0,0-6.607,4.926,4.926,0,0,1,2.126-6.542,7.475,7.475,0,0,0,3.884-5.345A4.925,4.925,0,0,1,67.811,6.02,7.474,7.474,0,0,0,74.1,3.978l-.9-.926.9.926a4.927,4.927,0,0,1,6.879,0A7.474,7.474,0,0,0,87.258,6.02a4.926,4.926,0,0,1,5.565,4.043,7.476,7.476,0,0,0,3.884,5.345,4.926,4.926,0,0,1,2.126,6.542,7.473,7.473,0,0,0,0,6.607A4.927,4.927,0,0,1,96.706,35.1,7.474,7.474,0,0,0,92.822,40.444Zm0,0" transform="translate(-45.867)"/><path d="M118.056,63.787a1.288,1.288,0,0,0,1.137,2.311,14.686,14.686,0,1,1-6.7,6.7,1.288,1.288,0,0,0-2.311-1.137,17.261,17.261,0,1,0,7.872-7.872Zm0,0" transform="translate(-94.011 -54.026)"/><path d="M151.264,110.539a2.318,2.318,0,0,0,.849,2.6l4.489,3.247-1.72,5.254a2.324,2.324,0,0,0,3.579,2.6l4.466-3.26,4.466,3.26a2.324,2.324,0,0,0,3.579-2.6l-1.72-5.255,4.489-3.247a2.324,2.324,0,0,0-1.362-4.207h-5.544l-1.7-5.252a2.324,2.324,0,0,0-4.423,0l-1.7,5.251h-5.543A2.319,2.319,0,0,0,151.264,110.539Zm8.692.968a1.289,1.289,0,0,0,1.226-.892l1.746-5.4,1.746,5.4a1.289,1.289,0,0,0,1.226.892h5.7l-4.621,3.342a1.288,1.288,0,0,0-.469,1.444l1.77,5.406-4.595-3.353a1.288,1.288,0,0,0-1.519,0l-4.595,3.353,1.77-5.406a1.288,1.288,0,0,0-.469-1.444l-4.622-3.342Zm0,0" transform="translate(-131.245 -88.923)"/><path d="M146.061,100.951a1.288,1.288,0,1,0-.91-.377A1.3,1.3,0,0,0,146.061,100.951Zm0,0" transform="translate(-125.689 -85.704)"/><path d="M41.78,4.526a1.288,1.288,0,0,0,1.288-1.288V1.381a1.288,1.288,0,0,0-2.576,0V3.238A1.288,1.288,0,0,0,41.78,4.526Zm0,0" transform="translate(-34.841 -0.083)"/><path d="M43.068,68.809V66.952a1.288,1.288,0,1,0-2.576,0v1.857a1.288,1.288,0,0,0,2.576,0Zm0,0" transform="translate(-34.841 -57.207)"/><path d="M67.362,42.662h1.857a1.288,1.288,0,0,0,0-2.576H67.362a1.288,1.288,0,0,0,0,2.576Zm0,0" transform="translate(-57.127 -34.923)"/><path d="M3.644,40.086H1.788a1.288,1.288,0,0,0,0,2.576H3.644a1.288,1.288,0,0,0,0-2.576Zm0,0" transform="translate(0 -34.923)"/><path d="M425.71,412.016a1.288,1.288,0,0,0-1.288,1.288v1.856a1.288,1.288,0,1,0,2.576,0V413.3A1.288,1.288,0,0,0,425.71,412.016Zm0,0" transform="translate(-369.315 -358.943)"/><path d="M425.71,477.59a1.288,1.288,0,0,0-1.288,1.288v1.856a1.288,1.288,0,1,0,2.576,0v-1.856A1.288,1.288,0,0,0,425.71,477.59Zm0,0" transform="translate(-369.315 -416.071)"/><path d="M453.148,452.008h-1.857a1.288,1.288,0,0,0,0,2.576h1.857a1.288,1.288,0,0,0,0-2.576Zm0,0" transform="translate(-391.602 -393.784)"/><path d="M387.574,452.008h-1.857a1.288,1.288,0,0,0,0,2.576h1.857a1.288,1.288,0,0,0,0-2.576Zm0,0" transform="translate(-334.475 -393.784)"/></g></g></svg>