<svg xmlns="http://www.w3.org/2000/svg" width="260.495" height="246.244" viewBox="0 0 260.495 246.244"><defs><style>.a{fill:#fff;opacity:0.949;}.b{fill:#ecf4ff;}.b,.c,.d,.e,.f,.g,.h,.i,.j{fill-rule:evenodd;}.c{fill:#cbe2ff;}.d{fill:#ea7596;}.e{fill:#ffd947;}.f{fill:#ffcbbe;}.g{fill:#f2ce7e;}.h{fill:#8ad24a;}.i{fill:#bed8fb;}.j{fill:#ffea99;}</style></defs><g transform="translate(-214 -448)"><g transform="translate(1.5 19.416)"><g transform="translate(0 3)"><g transform="translate(212.5 425.584)"><rect class="a" width="260.495" height="246.244" rx="5"/></g></g></g><g transform="translate(244 438.296)"><g transform="translate(2.923 56.629)"><path class="b" d="M7.511,156.773H194.541a7.947,7.947,0,0,1,6.422,6.421V264.8a7.96,7.96,0,0,1-6.422,6.421H26.1a18.6,18.6,0,0,1-18.592-18.6V156.773Z" transform="translate(-7.511 -119.58)"/><path class="c" d="M26.1,61.218A18.586,18.586,0,0,0,7.511,79.809V194.258A18.586,18.586,0,0,1,26.1,175.667a17.37,17.37,0,0,1,9.224,2.439,1.292,1.292,0,0,0,1.986-1.214V67.341A4.523,4.523,0,0,0,35.051,63.5,18.4,18.4,0,0,0,26.1,61.218Z" transform="translate(-7.511 -61.218)"/><path class="d" d="M126.842,195.041h27.782a2.849,2.849,0,0,1,2.836,2.836v27.771a2.842,2.842,0,0,1-2.836,2.836H126.842a2.832,2.832,0,0,1-2.825-2.836V197.877a2.839,2.839,0,0,1,2.825-2.836Z" transform="translate(-78.669 -142.953)"/><path class="e" d="M425.318,109.8l-13.031-3.961L400.371,109.8v92.989l12.545,3.266,12.4-3.266Z" transform="translate(-247.457 -88.469)"/><path class="f" d="M414.416,376.375l4.667-9.18,6.234-12.28H400.371L406.6,367.2l4.667,9.18A1.712,1.712,0,0,0,414.416,376.375Z" transform="translate(-247.457 -240.598)"/><path class="e" d="M425.318,82.545v-13.7a7.647,7.647,0,0,0-7.624-7.624h-9.687a7.649,7.649,0,0,0-7.635,7.624v13.7Z" transform="translate(-247.457 -61.218)"/><path class="g" d="M120.489,389.205h19.022l3.122-10.327-3.122-8.033H120.489a5.916,5.916,0,0,0-4.777,4.789v8.794a5.917,5.917,0,0,0,4.777,4.777Z" transform="translate(-73.597 -250.329)"/><path class="h" d="M176.856,358.526h23.81l3.255-11.739-3.255-18.062V325.4a5.916,5.916,0,0,0-4.788-4.789H181.645a5.915,5.915,0,0,0-4.788,4.789v33.122Z" transform="translate(-110.941 -219.65)"/><path class="g" d="M238.028,371.252h23.8l2.405-7.911-2.405-10.449v-6.664a5.916,5.916,0,0,0-4.788-4.777H238.028Z" transform="translate(-148.303 -232.375)"/><path class="d" d="M299.172,389.205h19.022a5.917,5.917,0,0,0,4.777-4.777v-8.794a5.916,5.916,0,0,0-4.777-4.789H299.172Z" transform="translate(-185.648 -250.329)"/><path class="c" d="M187.607,261.778H19.169a18.508,18.508,0,0,1-7.547-1.6,18.583,18.583,0,0,0,16.992,11.044H197.051a7.96,7.96,0,0,0,6.422-6.421V163.194a7.947,7.947,0,0,0-6.422-6.421h-3.023v98.583A7.96,7.96,0,0,1,187.607,261.778Z" transform="translate(-10.022 -119.58)"/><path class="i" d="M49.648,98.411v77.322a16.826,16.826,0,0,1,7.459,2.372,1.292,1.292,0,0,0,1.986-1.214V67.341A4.523,4.523,0,0,0,56.831,63.5a18.4,18.4,0,0,0-8.948-2.284,18.943,18.943,0,0,0-4.711.6A18.924,18.924,0,0,1,47.387,63.5a4.523,4.523,0,0,1,2.262,3.839v31.07Z" transform="translate(-29.292 -61.218)"/><path class="j" d="M440.2,116.011V209h9.445V116.011Z" transform="translate(-271.782 -94.684)"/><path class="j" d="M428.217,68.842v13.7h9.445v-13.7a7.647,7.647,0,0,0-7.624-7.624h-9.456A7.649,7.649,0,0,1,428.217,68.842Z" transform="translate(-259.801 -61.218)"/></g><path d="M177.871,75.043V64.253a4.747,4.747,0,0,0-4.711-4.711h-9.687a4.728,4.728,0,0,0-4.712,4.711V75.043h19.11ZM55.841,127.506a2.918,2.918,0,1,1,4.127-4.127l2.659,2.659,7.381-7.392a2.922,2.922,0,0,1,4.127,4.138l-9.444,9.445a2.924,2.924,0,0,1-4.127,0ZM165.392,93.822a2.918,2.918,0,1,1,5.837,0V155.09a2.918,2.918,0,1,1-5.837,0Zm-46.021,98.771h17.963V180.07H119.372Zm20.875,5.837H45.039a2.929,2.929,0,0,1-2.924-2.924V177.146a2.919,2.919,0,0,1,2.924-2.913H65.925V157.595a2.91,2.91,0,0,1,2.913-2.912h23.81a2.91,2.91,0,0,1,2.913,2.912v5.186h20.886a2.929,2.929,0,0,1,2.924,2.924v8.529h20.875a2.919,2.919,0,0,1,2.924,2.913v18.359a2.929,2.929,0,0,1-2.924,2.924Zm-44.686-5.837h17.963V168.628H95.561Zm-23.8,0H89.724V160.519H71.762Zm-23.811,0H65.926V180.07H47.952ZM35.638,90.9H152.914V64.253A10.586,10.586,0,0,1,163.473,53.7h9.687a10.586,10.586,0,0,1,10.548,10.548V90.9h12.666a2.919,2.919,0,0,1,2.913,2.924V208.271a2.91,2.91,0,0,1-2.913,2.913h-80.82a2.918,2.918,0,0,1,0-5.837h77.9V96.735h-9.743v21.107a2.918,2.918,0,1,1-5.837,0V80.88h-19.11v87.152h19.11V131.071a2.918,2.918,0,1,1,5.837,0v39.875a3.1,3.1,0,0,1-.5,1.655L170.92,196.807a2.968,2.968,0,0,1-1.3,1.3,2.906,2.906,0,0,1-3.906-1.291l-12.336-24.273a3.106,3.106,0,0,1-.463-1.6V96.735H35.638v22.089a2.918,2.918,0,1,1-5.837,0V61.9a15.483,15.483,0,0,0-8.286-2.361A15.671,15.671,0,0,0,5.836,75.22v99.72c.155-.166.309-.331.463-.485a21.456,21.456,0,0,1,15.216-6.3,21.787,21.787,0,0,1,6.841,1.114c.486.165.971.353,1.445.552V132.053a2.918,2.918,0,1,1,5.837,0v42.776a2.919,2.919,0,0,1-4.678,2.317A15.286,15.286,0,0,0,26.5,174.8a15.683,15.683,0,1,0-4.987,30.551h80.82a2.918,2.918,0,0,1,0,5.837H21.515A21.509,21.509,0,0,1,0,189.669V75.22A21.515,21.515,0,0,1,34.336,57.941a2.94,2.94,0,0,1,1.3,2.439V90.9Zm140.4,82.971H160.582l7.734,15.215Zm-39.014-65.285a2.918,2.918,0,0,1,0,5.837H97.514a2.918,2.918,0,0,1,0-5.837ZM120.6,136.455a2.918,2.918,0,1,1,0,5.837H97.515a2.918,2.918,0,0,1,0-5.837Zm16.429-13.935a2.918,2.918,0,0,1,0,5.837H97.514a2.918,2.918,0,0,1,0-5.837ZM48.271,105.793H81.714a2.919,2.919,0,0,1,2.913,2.924v33.442a2.919,2.919,0,0,1-2.913,2.924H48.271a2.922,2.922,0,0,1-2.924-2.924V108.717a2.922,2.922,0,0,1,2.924-2.924Zm30.519,5.848H51.184v27.606H78.79Z"/></g></g></svg>