<svg xmlns="http://www.w3.org/2000/svg" width="209" height="209" viewBox="0 0 209 209"><defs><style>.a{fill:#fff;}.b{fill:#fff9df;}.b,.c,.d,.e,.f,.g,.h,.i,.j,.k{fill-rule:evenodd;}.c{fill:#f4fbff;}.d{fill:#fc7070;}.e{fill:#95d6a4;}.f{fill:#90d8f9;}.g{fill:#ffe07d;}.h{fill:#ffd064;}.i{fill:#365e7d;}.j{fill:#6bbef6;}.k{fill:#2b4d66;}</style></defs><g transform="translate(-859 -3379)"><rect class="a" width="209" height="209" rx="19" transform="translate(859 3379)"/><g transform="translate(890 3405.652)"><g transform="translate(2.146 8.495)"><path class="b" d="M32.423,13.861c13.76,0,24.911,8.488,24.911,18.951,0,8.479-7.313,15.663-17.412,18.084l-6.462,8.69c-.729.972-1.3,1.045-2.073,0L24.924,50.9c-10.1-2.422-17.412-9.6-17.412-18.084,0-10.463,11.152-18.951,24.911-18.951Z" transform="translate(-7.512 -13.861)"/><path class="c" d="M247.746,82.125h70.5a1.669,1.669,0,0,0,1.668-1.66V15.521a1.669,1.669,0,0,0-1.668-1.66h-70.5a1.669,1.669,0,0,0-1.668,1.66V80.464A1.67,1.67,0,0,0,247.746,82.125Z" transform="translate(-177.92 -13.861)"/><path class="d" d="M276.737,143.545h9.289a1.669,1.669,0,0,0,1.668-1.66V113.458a1.67,1.67,0,0,0-1.668-1.66h-9.289a1.663,1.663,0,0,0-1.66,1.66v28.426A1.662,1.662,0,0,0,276.737,143.545Z" transform="translate(-198.634 -83.818)"/><path class="e" d="M354.868,58.4h9.289a1.676,1.676,0,0,1,1.668,1.668v43.676a1.669,1.669,0,0,1-1.668,1.66h-9.289a1.669,1.669,0,0,1-1.669-1.66V60.063A1.677,1.677,0,0,1,354.868,58.4Z" transform="translate(-254.438 -45.672)"/><path class="f" d="M433.021,87.506h9.289a1.67,1.67,0,0,1,1.661,1.668v35.359a1.663,1.663,0,0,1-1.661,1.66h-9.289a1.669,1.669,0,0,1-1.669-1.66V89.174A1.677,1.677,0,0,1,433.021,87.506Z" transform="translate(-310.262 -66.466)"/><path class="g" d="M160.448,138.5a34.256,34.256,0,0,1,16.837,64.085,4.4,4.4,0,0,0-2.551,4.073v8.382l-13.929,2.7-14.635-2.7V206.66a4.628,4.628,0,0,0-2.567-4.082A34.253,34.253,0,0,1,160.448,138.5Z" transform="translate(-92.29 -102.892)"/><path class="h" d="M235.691,138.5a34.256,34.256,0,0,1,16.837,64.085,4.4,4.4,0,0,0-2.551,4.073v8.382h-8.317V206.66a4.4,4.4,0,0,1,2.543-4.073,34.255,34.255,0,0,0-12.666-63.833,33.49,33.49,0,0,1,4.155-.251Z" transform="translate(-167.533 -102.892)"/><path class="f" d="M224.666,443.984a14.282,14.282,0,1,1-28.564,0l14.837-1.66Z" transform="translate(-142.222 -319.913)"/><path class="i" d="M196.1,406.408h28.564v11.921H196.1Z" transform="translate(-142.222 -294.258)"/><path class="j" d="M249.977,448.135a14.292,14.292,0,0,1-18.441,13.671,14.294,14.294,0,0,0,10.123-13.671Z" transform="translate(-167.533 -324.064)"/><path class="k" d="M266.97,406.408h8.317v11.921H266.97Z" transform="translate(-192.843 -294.258)"/></g><path d="M27.057,6.349a31.433,31.433,0,0,1,18.919,5.993c5.029,3.831,8.139,9.168,8.139,15.1A18.188,18.188,0,0,1,48.7,40.121,27.734,27.734,0,0,1,35.82,47.41l-7.046,9.475a2.142,2.142,0,0,1-3.458-.033L18.295,47.41A27.731,27.731,0,0,1,5.41,40.121,18.188,18.188,0,0,1,0,27.446c0-5.936,3.11-11.273,8.147-15.1a31.389,31.389,0,0,1,18.91-5.993ZM133.716,31.682h-8.334v34.4h8.334ZM123.237,27.4h12.618A2.143,2.143,0,0,1,138,29.535V68.223a2.145,2.145,0,0,1-2.146,2.146H123.237a2.138,2.138,0,0,1-2.138-2.146V29.535A2.136,2.136,0,0,1,123.237,27.4ZM89.06,47.158V38.614H80.727v4.859A36.3,36.3,0,0,1,89.06,47.158ZM76.443,42.477V36.468a2.143,2.143,0,0,1,2.146-2.138H91.206a2.136,2.136,0,0,1,2.138,2.138V50.179q1.409,1.154,2.7,2.438A36.186,36.186,0,0,1,98.77,55.67V21.218a2.143,2.143,0,0,1,2.138-2.146h12.626a2.143,2.143,0,0,1,2.138,2.146v47a2.138,2.138,0,0,1-2.138,2.146h-7.71a36.424,36.424,0,0,1,.688,4.252h35.48V10.633H112.077a2.142,2.142,0,1,1,0-4.284h32.062A2.143,2.143,0,0,1,146.277,8.5V76.759a2.143,2.143,0,0,1-2.138,2.146H106.7a37.34,37.34,0,0,1-.348,4.446,35.5,35.5,0,0,1-1.02,4.9,2.137,2.137,0,1,1-4.115-1.158,32.214,32.214,0,0,0,.9-4.308,32.688,32.688,0,0,0,.3-4.43A32.108,32.108,0,0,0,41.19,64.805,2.143,2.143,0,0,1,37.3,63,36.534,36.534,0,0,1,50.778,47.652a36.163,36.163,0,0,1,17.388-5.629V8.5A2.143,2.143,0,0,1,70.3,6.349h32.062a2.142,2.142,0,1,1,0,4.284H72.45v31.39a34.05,34.05,0,0,1,3.993.454Zm28.135,23.608h6.811V23.364h-8.334V62.456a35.858,35.858,0,0,1,1.523,3.628ZM124.33,99.629A2.142,2.142,0,0,1,121.3,96.6l6.722-6.722a2.132,2.132,0,0,1,3.045,0L137.79,96.6a2.142,2.142,0,0,1-3.029,3.029l-3.069-3.069v19.1A13.273,13.273,0,0,1,118.45,128.89H96.859a2.142,2.142,0,1,1,0-4.284H118.45a8.987,8.987,0,0,0,8.957-8.949V96.56ZM35.3,121.39a2.142,2.142,0,0,1,3.029-3.029l6.722,6.722a2.151,2.151,0,0,1-.008,3.053L38.33,134.85a2.142,2.142,0,1,1-3.029-3.029l3.069-3.069H21.947A13.272,13.272,0,0,1,8.714,115.51v-61.7a2.142,2.142,0,1,1,4.284,0v61.7a8.986,8.986,0,0,0,8.949,8.957H38.371Zm-17.614-91.8a2.142,2.142,0,1,1,0-4.284h18.74a2.142,2.142,0,1,1,0,4.284Zm0,7.945a2.142,2.142,0,1,1,0-4.284H31.666a2.142,2.142,0,0,1,0,4.284Zm0-15.89a2.142,2.142,0,1,1,0-4.284h18.74a2.142,2.142,0,1,1,0,4.284ZM72.45,109.218V118.5h9.994v-9.006a2.139,2.139,0,0,1,1.255-1.944,32.036,32.036,0,0,0,7.8-5.07,32.5,32.5,0,0,0,6.042-7.094,2.135,2.135,0,1,1,3.612,2.276,36.376,36.376,0,0,1-14.424,13.16v21.745a16.424,16.424,0,1,1-32.848,0V110.821A36.353,36.353,0,0,1,33.917,78.354c0-.907.032-1.83.105-2.762s.17-1.846.308-2.737a2.141,2.141,0,0,1,4.236.631c-.121.81-.219,1.62-.275,2.422-.065.785-.089,1.6-.089,2.446A31.963,31.963,0,0,0,43.255,95.66a32.286,32.286,0,0,0,13.5,11.816,2.129,2.129,0,0,1,1.409,2.016V118.5h10v-9.281L52.326,78.232l-.632.364A2.131,2.131,0,0,1,49.54,74.92l6.56-3.839a2.134,2.134,0,0,1,2.2.016l5.45,3.191,5.483-3.207a2.133,2.133,0,0,1,2.195.016l5.45,3.191,5.483-3.207a2.118,2.118,0,0,1,2.187.016l6.536,3.823A2.133,2.133,0,1,1,88.915,78.6l-.624-.364ZM57.176,75.39l-1.158.68L70.3,104.035,84.6,76.07l-1.167-.68-5.45,3.191a2.134,2.134,0,0,1-2.2.016L70.3,75.39l-5.45,3.191a2.119,2.119,0,0,1-2.186.016Zm21.712,65.761a12.115,12.115,0,0,0,3.369-6.438h-23.9a12.13,12.13,0,0,0,20.53,6.438Zm-20.724-18.36v7.637H82.444v-7.637ZM43.376,15.744a27.039,27.039,0,0,0-16.319-5.11,27.04,27.04,0,0,0-16.319,5.11c-3.984,3.037-6.454,7.175-6.454,11.7a13.986,13.986,0,0,0,4.2,9.71,23.628,23.628,0,0,0,11.476,6.277,2.129,2.129,0,0,1,1.312.826l5.782,7.775,5.791-7.775a2.119,2.119,0,0,1,1.215-.8,23.717,23.717,0,0,0,11.564-6.3,13.987,13.987,0,0,0,4.2-9.71c0-4.527-2.47-8.666-6.455-11.7Z"/></g></g></svg>