<svg xmlns="http://www.w3.org/2000/svg" width="209" height="209" viewBox="0 0 209 209"><defs><style>.a{fill:#fff;}.b{fill:#5392f9;}.c{fill:#91dafa;}.d{fill:#6cbff8;}.e{fill:#f7f3f1;}.f{fill:#ebe1dc;}.g{fill:#e9a52d;}.h{fill:#de5791;}.i{fill:#e38523;}</style></defs><g transform="translate(6795 7567)"><rect class="a" width="209" height="209" rx="19" transform="translate(-6795 -7567)"/><g transform="translate(-6761.704 -7545.471)"><g transform="translate(2.145 15.823)"><path class="b" d="M402.986,452.4v10.987h27.592a1.437,1.437,0,0,0,1.437-1.437v-8.114a1.437,1.437,0,0,0-1.437-1.437H402.986Z" transform="translate(-289.895 -329.091)"/><path class="c" d="M7.5,248.39v8.242a1.411,1.411,0,0,0,.351.931l10.415,11.85a1.411,1.411,0,0,1,.351.931v12.207a1.41,1.41,0,0,0,1.41,1.41H32.409a1.41,1.41,0,0,0,1.41-1.41V270.345a1.409,1.409,0,0,1,.351-.931l10.414-11.85a1.411,1.411,0,0,0,.351-.931V248.39a1.41,1.41,0,0,0-1.41-1.41H8.91a1.41,1.41,0,0,0-1.41,1.41Z" transform="translate(-7.5 -182.411)"/><path class="d" d="M87.162,246.979H79.727a1.41,1.41,0,0,1,1.41,1.41v8.242a1.411,1.411,0,0,1-.351.931l-10.414,11.85a1.411,1.411,0,0,0-.351.931v12.207a1.41,1.41,0,0,1-1.41,1.41h7.435a1.41,1.41,0,0,0,1.41-1.41V270.344a1.409,1.409,0,0,1,.351-.931l10.414-11.85a1.411,1.411,0,0,0,.351-.931v-8.242A1.41,1.41,0,0,0,87.162,246.979Z" transform="translate(-51.136 -182.41)"/><path class="b" d="M50.989,379.9V365.282a2.073,2.073,0,0,0-2.073-2.073H23.71a2.073,2.073,0,0,0-2.073,2.073v30.343a4.076,4.076,0,0,0,4.076,4.076H74.377v-17.1H53.691A2.7,2.7,0,0,1,50.989,379.9Z" transform="translate(-17.594 -265.404)"/><path class="e" d="M195.388,293.355a41.74,41.74,0,0,0-41.74,41.743v14.725h83.483V335.1A41.741,41.741,0,0,0,195.388,293.355Z" transform="translate(-111.856 -215.525)"/><path class="f" d="M289.976,293.355c-1.3,0-2.589.063-3.86.179A41.743,41.743,0,0,1,324,335.1v14.725h7.721V335.1A41.741,41.741,0,0,0,289.976,293.355Z" transform="translate(-206.445 -215.525)"/><circle class="b" cx="4.885" cy="4.885" r="4.885" transform="matrix(0.16, -0.987, 0.987, 0.16, 77.902, 123.596)"/><path class="g" d="M205.377,365.519a20.431,20.431,0,1,1,40.861,0h9.127a29.558,29.558,0,1,0-59.117,0Z" transform="translate(-142.276 -245.947)"/><path class="c" d="M215.591,357.708a20.416,20.416,0,0,0-10.214,17.7h-9.128a29.536,29.536,0,0,1,14.779-25.6Z" transform="translate(-142.276 -255.831)"/><path class="h" d="M354.691,375.4h-9.127a20.419,20.419,0,0,0-10.213-17.7l4.563-7.905a29.6,29.6,0,0,1,14.777,25.6Z" transform="translate(-241.601 -255.83)"/><g transform="translate(25.701 0)"><circle class="g" cx="22.162" cy="22.162" r="22.162" transform="translate(0 0)"/><path class="i" d="M165.241,21.178a22.273,22.273,0,0,0-3.86.342,22.158,22.158,0,0,1,0,43.641,22.161,22.161,0,1,0,3.86-43.983Z" transform="translate(-143.079 -21.178)"/></g><circle class="c" cx="22.162" cy="22.162" r="22.162" transform="translate(97.04 0)"/><path class="d" d="M414.718,21.178a22.273,22.273,0,0,0-3.86.342,22.158,22.158,0,0,1,0,43.641,22.161,22.161,0,1,0,3.86-43.983Z" transform="translate(-295.516 -21.178)"/></g><g transform="translate(0 13.678)"><path d="M142.828,298.223H129.563V296.63a43.887,43.887,0,0,0-87.541-4.515H38.241a.558.558,0,0,1-.558-.558V276.936a4.223,4.223,0,0,0-4.218-4.218H30.608v-7.45l10.234-11.644a3.558,3.558,0,0,0,.884-2.347v-8.241a3.558,3.558,0,0,0-3.554-3.554H3.554A3.558,3.558,0,0,0,0,243.036v8.241a3.557,3.557,0,0,0,.886,2.348l10.232,11.643v7.45H8.261a4.223,4.223,0,0,0-4.218,4.218v30.343a6.227,6.227,0,0,0,6.219,6.219h8.356a2.145,2.145,0,0,0,0-4.289H10.263a1.932,1.932,0,0,1-1.93-1.93V277.008H33.394v14.549a4.852,4.852,0,0,0,4.847,4.847h3.554c0,.075,0,12.8,0,12.8H28.627a2.145,2.145,0,0,0,0,4.289h114.2a3.584,3.584,0,0,0,3.58-3.58V301.8a3.584,3.584,0,0,0-3.58-3.58ZM14.522,262.644,4.289,251v-7.23H37.437V251L27.2,262.645a3.556,3.556,0,0,0-.885,2.347v7.726H15.407v-7.726a3.556,3.556,0,0,0-.886-2.348ZM46.081,296.63a39.6,39.6,0,1,1,79.193,0v3.726s0,.007,0,.011,0,.007,0,.011v8.831H46.081Zm96.038,12.579H129.563v-6.7h12.556Z" transform="translate(0 -174.912)"/><path d="M284.208,397.077v-5.4a2.145,2.145,0,0,0-4.289,0v5.4a7.03,7.03,0,1,0,4.289,0Zm-2.145,9.435a2.741,2.741,0,1,1,2.741-2.741A2.744,2.744,0,0,1,282.063,406.512Z" transform="translate(-196.386 -282.055)"/><path d="M202.166,360.163a18.286,18.286,0,1,1,36.572,0,2.145,2.145,0,0,0,2.145,2.145h9.127a2.145,2.145,0,0,0,2.145-2.145,31.7,31.7,0,1,0-63.406,0,2.145,2.145,0,0,0,2.145,2.145h9.128a2.145,2.145,0,0,0,2.145-2.145Zm45.616-2.145h-4.856a22.58,22.58,0,0,0-9.386-16.234l2.429-4.208A27.423,27.423,0,0,1,247.782,358.019Zm-15.524-22.593-2.428,4.206a22.524,22.524,0,0,0-18.757,0l-2.428-4.207a27.383,27.383,0,0,1,23.613,0Zm-39.138,22.593a27.423,27.423,0,0,1,11.814-20.443l2.429,4.208a22.581,22.581,0,0,0-9.386,16.234h-4.857Z" transform="translate(-134.775 -238.447)"/><path d="M114.185,62.292a24.353,24.353,0,0,0,15.4-5.5,2.145,2.145,0,1,0-2.719-3.318A20.018,20.018,0,1,1,134.2,37.985a19.849,19.849,0,0,1-1.836,8.386,2.145,2.145,0,1,0,3.894,1.8,24.311,24.311,0,1,0-22.076,14.122Z" transform="translate(-64.177 -13.678)"/><path d="M154.2,75.764a2.145,2.145,0,0,0,2.145-2.145V71.884a7.333,7.333,0,0,0,6.045-5.7c.455-2.549-.713-5.883-5.356-7.6l-.837-.308a33.52,33.52,0,0,1-4.379-1.793,1.218,1.218,0,0,1-.6-1.26,2.261,2.261,0,0,1,1.72-1.877c2.782-.837,5.337,1.189,5.4,1.243a2.145,2.145,0,0,0,2.75-3.292,11.778,11.778,0,0,0-4.749-2.232v-1.78a2.145,2.145,0,1,0-4.289,0V49.15c-.117.03-.235.061-.353.1a6.571,6.571,0,0,0-4.749,5.543,5.465,5.465,0,0,0,2.813,5.469,36.3,36.3,0,0,0,4.95,2.052l.833.307c.88.325,2.9,1.249,2.618,2.817a3.408,3.408,0,0,1-3.518,2.33,6.8,6.8,0,0,1-5-2.1,2.145,2.145,0,1,0-3.178,2.88,10.882,10.882,0,0,0,5.583,3.2v1.871A2.144,2.144,0,0,0,154.2,75.764Z" transform="translate(-104.19 -36.149)"/><path d="M363.661,62.293a24.353,24.353,0,0,0,15.4-5.5,2.145,2.145,0,0,0-2.719-3.318,20.018,20.018,0,1,1,7.34-15.492,19.843,19.843,0,0,1-1.836,8.386,2.145,2.145,0,1,0,3.894,1.8,24.311,24.311,0,1,0-22.076,14.121Z" transform="translate(-242.314 -13.679)"/><path d="M374.253,204.236a2.146,2.146,0,0,0,2.016-1.412l.293-.806a2.145,2.145,0,0,0-4.031-1.467l-.293.806a2.146,2.146,0,0,0,2.015,2.879Z" transform="translate(-265.703 -146.106)"/><path d="M362.879,235.485a2.146,2.146,0,0,0,2.016-1.412l.293-.806a2.145,2.145,0,0,0-4.031-1.467l-.293.806a2.146,2.146,0,0,0,2.015,2.879Z" transform="translate(-257.581 -168.419)"/><path d="M352.533,261.769a2.145,2.145,0,0,0-2.748,1.282l-.293.806a2.144,2.144,0,1,0,4.031,1.466l.293-.806a2.144,2.144,0,0,0-1.282-2.749Z" transform="translate(-249.461 -190.734)"/><path d="M215.554,201.357l-.293-.806a2.145,2.145,0,1,0-4.031,1.467l.293.806a2.145,2.145,0,0,0,4.031-1.467Z" transform="translate(-150.735 -146.106)"/><path d="M222.9,234.072a2.145,2.145,0,1,0,4.031-1.467l-.293-.806a2.145,2.145,0,1,0-4.031,1.467Z" transform="translate(-158.856 -168.418)"/><path d="M234.272,265.322a2.145,2.145,0,1,0,4.031-1.467l-.293-.806a2.145,2.145,0,0,0-4.031,1.467Z" transform="translate(-166.979 -190.732)"/><path d="M419,45.7a2.145,2.145,0,0,0-2.145,2.145v13A2.145,2.145,0,0,0,419,63h7.443a2.145,2.145,0,0,0,0-4.289h-5.3V47.85A2.145,2.145,0,0,0,419,45.7Z" transform="translate(-297.655 -36.547)"/></g></g></g></svg>