<svg xmlns="http://www.w3.org/2000/svg" width="209" height="209" viewBox="0 0 209 209"><defs><style>.a{fill:#fff;}.b{fill:#969faa;}.c{fill:#69d6f4;}.d{fill:#dfb28b;}.e{fill:#ccd1d9;}.f{fill:#e6e9ed;}.g{fill:#b4dd7f;}.h{fill:#ffc729;}.i{fill:#fcd770;}.j{fill:#f0d0b4;}</style></defs><g transform="translate(6795 7322)"><rect class="a" width="209" height="209" rx="19" transform="translate(-6795 -7322)"/><g transform="translate(-6761 -7288)"><g transform="translate(2.261 2.261)"><g transform="translate(13.568 22.613)"><path class="b" d="M124.586,87.883H11.523A4.521,4.521,0,0,1,7,83.361V15.523A4.521,4.521,0,0,1,11.523,11H124.586a4.521,4.521,0,0,1,4.523,4.523V83.361A4.521,4.521,0,0,1,124.586,87.883Z" transform="translate(-7 -11)"/></g><g transform="translate(31.658 31.658)"><path class="c" d="M15,15h94.974V73.793H15Z" transform="translate(-15 -15)"/></g><g transform="translate(40.703 54.271)"><path class="d" d="M19,25h9.045V52.135H19Z" transform="translate(-19 -25)"/></g><g transform="translate(49.748 45.226)"><path class="e" d="M41.09,25.523v9.045H32.045V57.18H23V21l4.523,1.131Z" transform="translate(-23 -21)"/></g><g transform="translate(58.793 58.793)"><path class="f" d="M31.523,48.753a3.576,3.576,0,0,0,.09.859H27V27H40.568V46.877a8.944,8.944,0,0,0-5.382-1.786A3.648,3.648,0,0,0,31.523,48.753Z" transform="translate(-27 -27)"/></g><g transform="translate(76.883 122.109)"><path class="g" d="M35,55H71.18V68.568H35Z" transform="translate(-35 -55)"/></g><g transform="translate(4.523 122.109)"><path class="g" d="M30.135,55V68.568H3V57.261A2.268,2.268,0,0,1,5.261,55H30.135Z" transform="translate(-3 -55)"/></g><g transform="translate(58.793)"><path class="h" d="M81.271,23.613v9.045a7.572,7.572,0,0,0-4.749,11.465l-6.4,6.4a7.572,7.572,0,0,0-11.465,4.749,4.555,4.555,0,0,0-4.523-4.523,4.536,4.536,0,0,0-4.523,4.523,7.554,7.554,0,0,0-11.465-4.749l-6.4-6.4A7.554,7.554,0,0,0,27,32.658V23.613a7.554,7.554,0,0,0,4.749-11.465l6.4-6.4a7.57,7.57,0,0,0,4.048,1.2A7.6,7.6,0,0,0,49.613,1h9.045a7.6,7.6,0,0,0,7.417,5.947,7.57,7.57,0,0,0,4.048-1.2l6.4,6.4a7.554,7.554,0,0,0,4.749,11.465ZM67.7,28.135A13.568,13.568,0,1,0,54.135,41.7,13.578,13.578,0,0,0,67.7,28.135Z" transform="translate(-27 -1)"/></g><g transform="translate(72.361 13.568)"><path class="i" d="M46.568,7A13.568,13.568,0,1,1,33,20.568,13.578,13.578,0,0,1,46.568,7ZM51.09,20.568a4.523,4.523,0,1,0-4.523,4.523A4.536,4.536,0,0,0,51.09,20.568Z" transform="translate(-33 -7)"/></g><g transform="translate(63.316 49.748)"><path class="j" d="M74.226,54.658a4.536,4.536,0,0,1,4.523-4.523,4.555,4.555,0,0,1,4.523,4.523v21.55a42.68,42.68,0,0,1-4.523,19.153H42.568a22.6,22.6,0,0,1-9.045-18.09v-2.6c0-.633-.023-1.289-.045-1.922A45.23,45.23,0,0,0,32.166,63.7a48.658,48.658,0,0,0-1.877-5.834l-.972-2.42a4.553,4.553,0,0,1-.226-.791A3.576,3.576,0,0,1,29,53.8a3.648,3.648,0,0,1,3.663-3.663,8.944,8.944,0,0,1,5.382,1.786,3.524,3.524,0,0,1,.452.362,9.012,9.012,0,0,1,3.075,5.4l.656,3.98a2.448,2.448,0,0,0,4.862-.407V27.523A4.536,4.536,0,0,1,51.613,23a4.555,4.555,0,0,1,4.523,4.523V50.135a4.536,4.536,0,0,1,4.523-4.523,4.555,4.555,0,0,1,4.523,4.523A4.536,4.536,0,0,1,69.7,45.613a4.555,4.555,0,0,1,4.523,4.523Z" transform="translate(-29 -23)"/></g><g transform="translate(0 63.316)"><path class="j" d="M14.568,52.585a5.5,5.5,0,0,1,5.495-5.495h.181a2.227,2.227,0,0,1,1.786.882L34.354,63.8a11.309,11.309,0,0,1,.927,1.379H35.3a13.524,13.524,0,0,1,1.2,11.1l-3.844,11.51H10.045L1.5,53.625A16.625,16.625,0,0,1,1,49.532,16.808,16.808,0,0,1,5.93,37.638L14.568,29Z" transform="translate(-1 -29)"/></g></g><g transform="translate(0 0)"><path d="M47.829,37.658A15.829,15.829,0,1,0,32,21.829,15.848,15.848,0,0,0,47.829,37.658Zm0-27.135A11.306,11.306,0,1,1,36.523,21.829,11.319,11.319,0,0,1,47.829,10.523Z" transform="translate(40.361 7.568)"/><path d="M42.784,23.568A6.784,6.784,0,1,0,36,16.784,6.792,6.792,0,0,0,42.784,23.568Zm0-9.045a2.261,2.261,0,1,1-2.261,2.261A2.264,2.264,0,0,1,42.784,14.523Z" transform="translate(45.406 12.613)"/><path d="M122.109,105.213v-1.194h11.306a6.792,6.792,0,0,0,6.784-6.784V29.4a6.792,6.792,0,0,0-6.784-6.784H115.66a5.3,5.3,0,0,1-3.179-7.994l.975-1.531-8.961-8.959-1.531.975a5.247,5.247,0,0,1-4.891.425,5.245,5.245,0,0,1-3.154-3.758L94.528,0H81.854L81.46,1.771a5.245,5.245,0,0,1-3.154,3.758A5.256,5.256,0,0,1,73.415,5.1l-1.531-.975-8.961,8.959.975,1.531a5.3,5.3,0,0,1-3.177,7.994H20.351A6.792,6.792,0,0,0,13.568,29.4V64.641L5.594,72.616A19.073,19.073,0,0,0,.572,90.747L8.428,122.17a4.519,4.519,0,0,0-3.905,4.461v9.045H0V140.2H140.2v-4.523H117.586V124.868a45.348,45.348,0,0,0,4.523-19.655Zm-4.523,0a40.768,40.768,0,0,1-3.7,16.9H79.968a20.438,20.438,0,0,1-7.607-15.829v-2.6a47.3,47.3,0,0,0-3.4-17.636l-.97-2.42a2.23,2.23,0,0,1-.156-.825,1.4,1.4,0,0,1,1.4-1.4,6.741,6.741,0,0,1,6.673,5.655l.665,3.975a4.709,4.709,0,0,0,9.355-.773V56.532a2.261,2.261,0,0,1,4.523,0V90.451h4.523V79.145a2.261,2.261,0,1,1,4.523,0V90.451h4.523V79.145a2.261,2.261,0,1,1,4.523,0V90.451h4.523V83.667a2.261,2.261,0,0,1,4.523,0Zm-45.226-41.9v4.523H63.316V63.316ZM63.5,81.406h-.185V72.361h9.045v5a11.265,11.265,0,0,0-3.125-.479A5.917,5.917,0,0,0,63.5,81.406Zm8.86-22.613V54.361l1.054-.669a5.3,5.3,0,0,1,7.991,3.182V90.266c0,.192-.337.226-.371.032L80.37,86.32A11.242,11.242,0,0,0,76.883,79.9v-21.1Zm-4.523,0H58.793V81.406H54.271V50.384l13.568,3.392Zm-18.09,4.523H45.226V58.793h4.523Zm-4.523,4.523h4.523v4.523H45.226Zm0,9.045h4.523v4.523H45.226ZM49.748,44.59v9.681H40.7V85.929H64.044l.719,1.8c.36.9.647,1.811.943,2.725H36.18V36.18h18.09v9.54ZM66.925,94.974A42.346,42.346,0,0,1,67.63,99.5h-29.9c-.118-.163-.2-.344-.328-.5l-3.127-4.021ZM39.9,113.586a15.295,15.295,0,0,0,.075-9.567H67.838v2.261a24.971,24.971,0,0,0,9.045,19.133v10.264H36.18v-10.94ZM135.677,29.4V97.235a2.264,2.264,0,0,1-2.261,2.261H122.109V94.974h9.045V31.658H117.586V27.135h15.829A2.264,2.264,0,0,1,135.677,29.4ZM115.66,36.18h10.972V90.451h-4.523V83.667a6.762,6.762,0,0,0-9.307-6.286,6.724,6.724,0,0,0-11.044-3.256,6.575,6.575,0,0,0-6.784-1.348V56.871a5.3,5.3,0,0,1,7.991-3.182l1.531.975,8.961-8.961-.975-1.531a5.3,5.3,0,0,1,3.177-7.991ZM63.316,26.507a9.841,9.841,0,0,0,5.242-12.659l4.086-4.086a9.844,9.844,0,0,0,7.394-.057A9.864,9.864,0,0,0,85.3,4.523H91.08a9.839,9.839,0,0,0,12.659,5.242l4.086,4.086a9.841,9.841,0,0,0,5.242,12.659v5.78a9.84,9.84,0,0,0-5.242,12.656l-4.086,4.086A9.788,9.788,0,0,0,92.814,51.6a6.708,6.708,0,0,0-9.249,0,9.788,9.788,0,0,0-10.924-2.567l-4.086-4.086a9.84,9.84,0,0,0-5.242-12.656v-5.78Zm1.006,12.776a5.251,5.251,0,0,1-.425,4.889L62.922,45.7l2.91,2.91-7.039-1.762V36.18H60.72a5.236,5.236,0,0,1,3.6,3.1ZM20.351,27.135H58.793v4.523H31.658V91.613l-6.583-8.462a4.6,4.6,0,0,0-3.758-1.746,7.675,7.675,0,0,0-3.227.726V29.4A2.264,2.264,0,0,1,20.351,27.135ZM4.523,86.116a14.476,14.476,0,0,1,4.269-10.3l4.776-4.776v18.12a7.84,7.84,0,0,0,.816,3.467l8.466,16.93,4.045-2.024L18.432,90.6a3.24,3.24,0,0,1-.341-1.445A3.277,3.277,0,0,1,21.5,85.929h0l12.322,15.84a11.167,11.167,0,0,1,1.78,10.384l-3.32,9.956H13.07L4.957,89.651a14.491,14.491,0,0,1-.434-3.534Zm4.523,40.515H31.658v9.045H9.045Zm72.361,9.045v-9.045h31.658v9.045Z" transform="translate(0 0)"/><path d="M10,24h4.523V42.09H10Z" transform="translate(12.613 30.271)"/><path d="M44,28h4.523v4.523H44Z" transform="translate(55.496 35.316)"/><path d="M48,28H61.568v4.523H48Z" transform="translate(60.541 35.316)"/><path d="M48,24H61.568v4.523H48Z" transform="translate(60.541 30.271)"/></g></g></g></svg>