<svg xmlns="http://www.w3.org/2000/svg" width="209" height="209" viewBox="0 0 209 209"><defs><style>.a{fill:#fff;}.b{fill:#d2c100;}.c{fill:#d63030;}.d{fill:#ffd947;}.e{fill:#ea7596;}.f{fill:#ffea06;}</style></defs><g transform="translate(6357 7230)"><rect class="a" width="209" height="209" rx="19" transform="translate(-6357 -7230)"/><g transform="translate(-6322 -7251.997)"><path class="b" d="M42.618,119.055A20.053,20.053,0,1,1,21.168,86.711a19.5,19.5,0,0,1,1.914-.551,20.054,20.054,0,0,1,19.536,32.9Z" transform="translate(-5.552 -5.555)"/><path class="c" d="M42.618,312.032a20.053,20.053,0,1,1-21.449-32.344,19.505,19.505,0,0,1,1.914-.551,20.054,20.054,0,0,1,19.536,32.9Z" transform="translate(-5.552 -146.142)"/><path class="d" d="M59.547,119.729a20.11,20.11,0,0,1-11.788,6.425,20.053,20.053,0,0,1-3.353-38.768,19.5,19.5,0,0,1,1.914-.551c.482-.116.965-.21,1.448-.287a20.059,20.059,0,0,1,11.779,33.182Z" transform="translate(-22.481 -6.229)"/><path class="e" d="M59.547,312.706a20.11,20.11,0,0,1-11.788,6.425,20.053,20.053,0,0,1-3.353-38.768,19.505,19.505,0,0,1,1.914-.551c.482-.116.965-.21,1.448-.287a20.059,20.059,0,0,1,11.779,33.182Z" transform="translate(-22.481 -146.816)"/><path class="d" d="M266.192,127.609A11.918,11.918,0,0,1,254.31,139.49h-65a11.882,11.882,0,0,1,0-23.763h65A11.916,11.916,0,0,1,266.192,127.609Z" transform="translate(-129.26 -27.487)"/><path class="f" d="M451.151,127.609A11.918,11.918,0,0,1,439.27,139.49h-7.955V115.727h7.955A11.916,11.916,0,0,1,451.151,127.609Z" transform="translate(-314.219 -27.487)"/><path class="e" d="M266.192,320.585a11.918,11.918,0,0,1-11.882,11.882h-65a11.882,11.882,0,0,1,0-23.763h65A11.916,11.916,0,0,1,266.192,320.585Z" transform="translate(-129.26 -168.073)"/><path class="c" d="M198,308.7v23.763h-8.686a11.882,11.882,0,0,1,0-23.763Z" transform="translate(-129.26 -168.073)"/><path d="M14.945,79.2a22.118,22.118,0,1,0,28.1,13.74A22.115,22.115,0,0,0,14.945,79.2ZM27.963,117.13a17.982,17.982,0,1,1,12.15-17.007A17.976,17.976,0,0,1,27.963,117.13Z" transform="translate(0)"/><circle cx="1.919" cy="1.919" r="1.919" transform="translate(15.817 89.806)"/><circle cx="1.919" cy="1.919" r="1.919" transform="translate(24.596 89.806)"/><path d="M58.537,136.459a2.068,2.068,0,0,0-2.068,2.068,8.275,8.275,0,1,1-16.549,0,2.068,2.068,0,0,0-4.136,0,12.411,12.411,0,1,0,24.821,0A2.069,2.069,0,0,0,58.537,136.459Z" transform="translate(-26.069 -42.591)"/><path d="M181.763,135.863a2.068,2.068,0,1,0,.594-4.093,9.814,9.814,0,0,1,1.406-19.527H238.74v6.2a2.068,2.068,0,0,0,4.136,0v-6.2h5.886a9.814,9.814,0,1,1,0,19.627h-5.886V126.72a2.068,2.068,0,0,0-4.136,0v5.151H190.325a2.068,2.068,0,0,0,0,4.136h58.437a13.95,13.95,0,0,0,0-27.9h-65a13.95,13.95,0,0,0-2,27.755Z" transform="translate(-123.712 -21.937)"/><path d="M22.128,270.975a22.122,22.122,0,1,0,20.919,14.943A22.143,22.143,0,0,0,22.128,270.975Zm5.836,39.132A17.962,17.962,0,1,1,40.115,293.1,17.976,17.976,0,0,1,27.965,310.107Z" transform="translate(-0.002 -140.588)"/><circle cx="1.919" cy="1.919" r="1.919" transform="translate(15.817 142.196)"/><circle cx="1.919" cy="1.919" r="1.919" transform="translate(24.596 142.196)"/><path d="M48.193,336.545a12.424,12.424,0,0,0-12.411,12.411,2.068,2.068,0,1,0,4.136,0,8.275,8.275,0,0,1,16.549,0,2.068,2.068,0,1,0,4.136,0A12.424,12.424,0,0,0,48.193,336.545Z" transform="translate(-26.068 -188.357)"/><path d="M248.762,301.084h-65a13.95,13.95,0,0,0,0,27.9h65a13.95,13.95,0,1,0,0-27.9Zm0,23.764H194.515v-5.1a2.068,2.068,0,1,0-4.136,0v5.1h-6.616a9.814,9.814,0,1,1,0-19.627h6.616v6.254a2.068,2.068,0,1,0,4.136,0V305.22h54.247a9.814,9.814,0,0,1,0,19.627Z" transform="translate(-123.712 -162.523)"/></g></g></svg>