<svg xmlns="http://www.w3.org/2000/svg" width="132" height="132" viewBox="0 0 132 132"><defs><style>.a{fill:none;}.b{fill:#eaf6ff;}.c{fill:#c8effe;}.d{fill:#f07281;}.e{fill:#eb5569;}.f{fill:#ffd15b;}.g{fill:#feb137;}.h{fill:#99e6fc;}.i{fill:#62dbfb;}</style></defs><g transform="translate(-223 -2395)"><rect class="a" width="132" height="132" transform="translate(223 2395)"/><g transform="translate(206.041 2403.458)"><g transform="translate(18.434 1.475)"><path class="b" d="M91.6,72.13v81.563a3.448,3.448,0,0,1-3.449,3.449H27.906a3.448,3.448,0,0,1-3.447-3.449V72.13Z" transform="translate(-24.459 -59.423)"/><g transform="translate(41.183 12.707)"><path class="c" d="M259.871,72.13V96.749h-5.956l-2.311,8.633-5.218-.014s-1.014-.519-1.014-1.17v-7.45h-4.939A6.51,6.51,0,0,1,235,86.66l9.566-14.53Z" transform="translate(-233.912 -72.13)"/></g><path class="c" d="M327.344,72.131v81.564a3.448,3.448,0,0,1-3.448,3.448h4.818a3.448,3.448,0,0,0,3.448-3.448V72.131Z" transform="translate(-265.021 -59.423)"/><path class="d" d="M91.6,53.818V64.1H24.459V53.818A2.438,2.438,0,0,1,26.9,51.38H89.162A2.438,2.438,0,0,1,91.6,53.818Z" transform="translate(-24.459 -42.752)"/><g transform="translate(46.143 8.628)"><path class="e" d="M280.138,53.818V64.1h-21l8.374-12.719H277.7a2.438,2.438,0,0,1,2.438,2.438Z" transform="translate(-259.139 -51.38)"/></g><g transform="translate(46.001)"><path class="f" d="M296.943,44.827H278.424l-6.433,8.18a1.181,1.181,0,0,1-2.11-.73V44.827h-4.939A6.51,6.51,0,0,1,259.5,34.739l16-24.308a6.509,6.509,0,0,1,10.875,0l16,24.308A6.508,6.508,0,0,1,296.943,44.827Z" transform="translate(-258.421 -7.501)"/></g><g transform="translate(57.461 0.002)"><path class="g" d="M316.707,202.077v2.713a1.181,1.181,0,0,0,2.11.73l6.433-8.18h-3.026a3.689,3.689,0,0,0-2.9,1.409Z" transform="translate(-316.707 -160.017)"/><path class="g" d="M384.557,34.747l-16-24.308a6.507,6.507,0,0,0-7.846-2.471,6.44,6.44,0,0,1,3.028,2.471l16,24.308A6.508,6.508,0,0,1,374.3,44.835h4.818A6.508,6.508,0,0,0,384.557,34.747Z" transform="translate(-352.059 -7.511)"/></g><path class="c" d="M142.149,188.593l1.692,3.428a3.283,3.283,0,0,0,2.472,1.8l3.783.55a3.282,3.282,0,0,1,1.819,5.6l-2.737,2.668a3.282,3.282,0,0,0-.944,2.905l.646,3.767a3.282,3.282,0,0,1-4.763,3.46l-3.383-1.779a3.282,3.282,0,0,0-3.055,0l-3.383,1.779a3.282,3.282,0,0,1-4.763-3.46l.646-3.767a3.283,3.283,0,0,0-.944-2.905l-2.737-2.668a3.282,3.282,0,0,1,1.819-5.6l3.783-.55a3.282,3.282,0,0,0,2.471-1.8l1.692-3.428A3.282,3.282,0,0,1,142.149,188.593Z" transform="translate(-105.635 -151.517)"/><g transform="translate(30.688 35.247)"><path class="h" d="M194.31,194.368l-3.783-.55a3.282,3.282,0,0,1-2.472-1.8l-1.692-3.428a3.281,3.281,0,0,0-5.825-.114c2.51.816,2.187,5.123,5.17,5.337l3.783.55a3.282,3.282,0,0,1,1.819,5.6l-2.737,2.668a3.282,3.282,0,0,0-.944,2.905l.646,3.767a3.231,3.231,0,0,1-.963,2.925l1.019.536a3.282,3.282,0,0,0,4.763-3.46l-.646-3.767a3.283,3.283,0,0,1,.944-2.905l2.737-2.668a3.282,3.282,0,0,0-1.819-5.6Z" transform="translate(-180.539 -186.767)"/></g><path class="h" d="M88.745,371.194H85.1a1.982,1.982,0,0,1-1.983-1.982v-3.646a1.982,1.982,0,0,1,1.983-1.983h3.646a1.982,1.982,0,0,1,1.982,1.983v3.646A1.983,1.983,0,0,1,88.745,371.194Z" transform="translate(-71.584 -293.57)"/><path class="i" d="M96.056,363.584H92.411c-.065,0-.13,0-.193.01a1.982,1.982,0,0,1,1.789,1.973v3.646a1.982,1.982,0,0,1-1.789,1.973c.064.006.128.01.193.01h3.646a1.982,1.982,0,0,0,1.983-1.983v-3.646a1.983,1.983,0,0,0-1.983-1.983Z" transform="translate(-78.895 -293.571)"/><path class="h" d="M88.745,441.652H85.1a1.982,1.982,0,0,1-1.983-1.982v-3.646a1.982,1.982,0,0,1,1.983-1.983h3.646a1.982,1.982,0,0,1,1.982,1.983v3.646A1.983,1.983,0,0,1,88.745,441.652Z" transform="translate(-71.584 -350.176)"/><path class="i" d="M96.056,434.042H92.411c-.065,0-.13,0-.193.01a1.982,1.982,0,0,1,1.789,1.973v3.646a1.982,1.982,0,0,1-1.789,1.973c.064.006.128.01.193.01h3.646a1.982,1.982,0,0,0,1.983-1.983v-3.646A1.983,1.983,0,0,0,96.056,434.042Z" transform="translate(-78.895 -350.176)"/></g><g transform="translate(16.959 0)"><path d="M109.625,27.9l-16-24.308A7.962,7.962,0,0,0,86.956,0h0a7.963,7.963,0,0,0-6.669,3.595L76.974,8.628h-10V5.255a1.475,1.475,0,1,0-2.949,0V8.628H41.064a1.475,1.475,0,0,0,0,2.949H64.026v2.77a1.475,1.475,0,1,0,2.949,0v-2.77h8.057L68.6,21.347H19.908V12.54a.964.964,0,0,1,.963-.963H32.691v2.77a1.475,1.475,0,0,0,2.949,0V5.255a1.475,1.475,0,1,0-2.949,0V8.628H20.872a3.917,3.917,0,0,0-3.913,3.913V95.746a4.928,4.928,0,0,0,4.921,4.923H82.126a4.929,4.929,0,0,0,4.923-4.923V45.709a1.475,1.475,0,1,0-2.949,0V95.746a1.976,1.976,0,0,1-1.974,1.974H21.88a1.975,1.975,0,0,1-1.972-1.974V24.3H66.66L64.286,27.9a7.984,7.984,0,0,0,6.67,12.373h3.465V46.25a2.624,2.624,0,0,0,1.787,2.51,2.773,2.773,0,0,0,2.957-.868l5.99-7.617h17.8A7.983,7.983,0,0,0,109.625,27.9Zm-2.232,6.77a5.135,5.135,0,0,1-4.54,2.654H84.438a1.475,1.475,0,0,0-1.159.563l-5.426,6.9a.27.27,0,0,1-.483-.167V32.869a1.475,1.475,0,0,0-1.52-1.474,1.515,1.515,0,0,0-1.429,1.536v4.4H71.06a5.136,5.136,0,0,1-4.541-2.654,4.963,4.963,0,0,1,.23-5.148L82.7,5.291a5.124,5.124,0,0,1,4.124-2.341,4.961,4.961,0,0,1,4.337,2.265l16,24.308a4.963,4.963,0,0,1,.231,5.149Z" transform="translate(-16.959 0)"/><path d="M366.166,153.856a1.5,1.5,0,1,0,1.5,1.5A1.5,1.5,0,0,0,366.166,153.856Z" transform="translate(-296.299 -123.605)"/><path d="M366.276,62.006a1.475,1.475,0,0,0,1.475-1.475V44.739a1.475,1.475,0,0,0-2.949,0V60.531A1.475,1.475,0,0,0,366.276,62.006Z" transform="translate(-296.409 -34.757)"/><path d="M122.053,203.03a4.728,4.728,0,0,0,1.892,4.653,4.8,4.8,0,0,0,5.01.362l3.383-1.779a1.807,1.807,0,0,1,1.682,0l3.383,1.779a4.757,4.757,0,0,0,6.9-5.015l-.646-3.767a1.807,1.807,0,0,1,.52-1.6l2.737-2.668a4.757,4.757,0,0,0-2.636-8.114l-3.783-.55a1.808,1.808,0,0,1-1.361-.989l-1.692-3.428a4.757,4.757,0,0,0-8.532,0l-1.692,3.428a1.808,1.808,0,0,1-1.361.989l-3.783.55a4.757,4.757,0,0,0-2.636,8.114l2.737,2.668a1.808,1.808,0,0,1,.52,1.6Zm-.552-10.148a1.808,1.808,0,0,1,1-3.084l3.783-.55a4.756,4.756,0,0,0,3.582-2.6l1.692-3.428a1.808,1.808,0,0,1,3.242,0l1.692,3.428a4.756,4.756,0,0,0,3.582,2.6l3.783.55a1.808,1.808,0,0,1,1,3.084l-2.737,2.668a4.757,4.757,0,0,0-1.368,4.211l.646,3.767a1.808,1.808,0,0,1-2.623,1.906l-3.383-1.779a4.755,4.755,0,0,0-4.427,0l-3.383,1.779a1.808,1.808,0,0,1-2.623-1.906l.646-3.767a4.757,4.757,0,0,0-1.368-4.211Z" transform="translate(-98.135 -144.016)"/><path d="M86.177,359.541a3.461,3.461,0,0,0-3.457-3.457H79.074a3.461,3.461,0,0,0-3.457,3.457v3.646a3.461,3.461,0,0,0,3.457,3.457H82.72a3.461,3.461,0,0,0,3.457-3.457v-3.646Zm-2.949,3.646a.509.509,0,0,1-.508.508H79.074a.509.509,0,0,1-.508-.508v-3.646a.509.509,0,0,1,.508-.508H82.72a.509.509,0,0,1,.508.508v3.646Z" transform="translate(-64.084 -286.071)"/><path d="M189.22,375.437H163.149a1.475,1.475,0,0,0,0,2.949H189.22a1.475,1.475,0,1,0,0-2.949Z" transform="translate(-133.22 -301.619)"/><path d="M82.719,426.542H79.074A3.461,3.461,0,0,0,75.617,430v3.646a3.461,3.461,0,0,0,3.457,3.457H82.72a3.461,3.461,0,0,0,3.457-3.457V430A3.461,3.461,0,0,0,82.719,426.542Zm.508,7.1a.508.508,0,0,1-.508.508H79.074a.508.508,0,0,1-.508-.508V430a.509.509,0,0,1,.508-.508H82.72a.509.509,0,0,1,.508.508v3.646Z" transform="translate(-64.084 -342.676)"/><path d="M279.549,445.9h-3.964a1.475,1.475,0,1,0,0,2.949h3.965a1.475,1.475,0,1,0,0-2.949Z" transform="translate(-223.549 -358.224)"/><path d="M163.149,445.9a1.475,1.475,0,0,0,0,2.949h15.183a1.475,1.475,0,0,0,0-2.949Z" transform="translate(-133.22 -358.224)"/></g></g></g></svg>