<svg xmlns="http://www.w3.org/2000/svg" width="132" height="132" viewBox="0 0 132 132"><defs><style>.a{fill:#ffed99;}.b{fill:#b3f1ff;}.c{fill:#fff5f5;}.d{fill:none;}</style></defs><g transform="translate(-223 -2814)"><g transform="translate(223 2836)"><g transform="translate(1.734 1.734)"><path class="a" d="M77.4,87.4A42.66,42.66,0,1,1,95.3,52.651,42.465,42.465,0,0,1,77.4,87.4Z" transform="translate(-10 -10)"/><path class="b" d="M261.6,167.208a15.6,15.6,0,1,1,15.6-15.6A15.6,15.6,0,0,1,261.6,167.208Z" transform="translate(-205.083 -114.154)"/><g transform="translate(18.378 28.781)"><path class="c" d="M302.935,176c3.83,0,6.935,3.882,6.935,8.669s-3.105,8.669-6.935,8.669S296,189.456,296,184.669,299.105,176,302.935,176Z" transform="translate(-264.792 -176)"/><path class="c" d="M122.935,176c3.83,0,6.935,3.882,6.935,8.669s-3.105,8.669-6.935,8.669S116,189.456,116,184.669,119.105,176,122.935,176Z" transform="translate(-116 -176)"/></g></g><circle cx="1.818" cy="1.818" r="1.818" transform="translate(56.372 38.763)"/><circle cx="1.818" cy="1.818" r="1.818" transform="translate(25.458 38.763)"/><path d="M294.669,166c-4.78,0-8.669,4.667-8.669,10.4s3.889,10.4,8.669,10.4,8.669-4.667,8.669-10.4S299.449,166,294.669,166Zm0,17.338c-2.868,0-5.2-3.111-5.2-6.935s2.333-6.935,5.2-6.935,5.2,3.111,5.2,6.935S297.537,183.338,294.669,183.338Z" transform="translate(-236.414 -137.219)"/><path d="M114.669,186.805c4.78,0,8.669-4.667,8.669-10.4s-3.889-10.4-8.669-10.4S106,170.667,106,176.4,109.889,186.805,114.669,186.805Zm0-17.338c2.868,0,5.2,3.111,5.2,6.935s-2.333,6.935-5.2,6.935-5.2-3.111-5.2-6.935S111.8,169.468,114.669,169.468Z" transform="translate(-87.622 -137.219)"/><path d="M108.68,131.28a10.8,10.8,0,0,1,11.975,0,1.734,1.734,0,0,0,1.9-2.9,14.263,14.263,0,0,0-15.765,0,1.734,1.734,0,0,0,1.9,2.9Z" transform="translate(-87.621 -104.154)"/><path d="M166.507,332.427a1.734,1.734,0,0,0,2.452,0c.768-.768,3.465-2.96,5.709-2.96s4.881,2.138,5.709,2.96c.407.407,4.093,3.975,8.161,3.975s7.754-3.568,8.161-3.975a1.734,1.734,0,0,0-2.452-2.452c-.768.768-3.465,2.96-5.709,2.96s-4.881-2.138-5.709-2.96c-.407-.407-4.093-3.975-8.161-3.975s-7.754,3.568-8.161,3.975A1.734,1.734,0,0,0,166.507,332.427Z" transform="translate(-137.219 -269.479)"/><path d="M288.266,90.475a20.826,20.826,0,0,1,12.8,0,1.734,1.734,0,0,0,1.07-3.3,24.3,24.3,0,0,0-14.94,0,1.734,1.734,0,1,0,1.07,3.3Z" transform="translate(-236.411 -71.09)"/><circle cx="1.818" cy="1.818" r="1.818" transform="translate(12.729 72.404)"/><path d="M44.385,0A44.4,44.4,0,0,0,7.8,69.54a1.734,1.734,0,0,0,2.856-1.966,40.923,40.923,0,1,1,59.742,8.4q-.007-.193-.007-.382c0-4.6,3.146-9.4,3.176-9.441.154-.23,3.759-5.7,3.759-11.364a21.575,21.575,0,0,0-2.773-9.679,17.343,17.343,0,1,0-2,3.886,15.825,15.825,0,0,1,1.3,5.793c0,4.6-3.146,9.4-3.176,9.441-.154.23-3.759,5.7-3.759,11.364a15.472,15.472,0,0,0,.266,2.778A40.986,40.986,0,0,1,21.2,78.112a1.734,1.734,0,1,0-1.966,2.856,44.461,44.461,0,0,0,48.938.907,26.63,26.63,0,0,0,2.516,5.083,1.734,1.734,0,0,0,2.886-1.922,23.635,23.635,0,0,1-2.442-5.214A44.393,44.393,0,0,0,44.385,0Zm13.87,53.054a13.857,13.857,0,1,1,12.792-8.5l-.006.014A13.848,13.848,0,0,1,58.255,53.054Z"/></g><rect class="d" width="132" height="132" transform="translate(223 2814)"/></g></svg>