<svg xmlns="http://www.w3.org/2000/svg" width="132" height="132" viewBox="0 0 132 132"><defs><style>.a{fill:none;}.b{fill:#8ad24a;}.c{fill:#ffd947;}.d{fill:#fac600;}.e{fill:#b3ddff;}.f{fill:#ffb401;}</style></defs><g transform="translate(-1067 -2395)"><rect class="a" width="132" height="132" transform="translate(1067 2395)"/><g transform="translate(1051 2406)"><rect class="b" width="11" height="19" transform="translate(56 60)"/><rect class="b" width="15" height="12" transform="translate(41 67)"/><path class="c" d="M85.088,70.933A19.068,19.068,0,1,0,66.533,85.6H98.045l4.787,4.787L90.387,102.831,81.053,93.5l-5.72,2.369v13.2h-17.6v-13.2L52.013,93.5l-9.333,9.333L30.235,90.387l9.333-9.333L37.2,75.333H24v-17.6H37.2l2.369-5.72L30.235,42.68,42.68,30.235l9.333,9.333,5.72-2.369V24h17.6V37.2l5.72,2.369,9.333-9.333L102.831,42.68,93.5,52.013l2.369,5.72h13.2v13.2Z" transform="translate(-6.533 -6.533)"/><path class="d" d="M298.533,57.733v13.2H279.054A23.484,23.484,0,0,0,256,43.067V24h8.8V37.2l5.72,2.369,9.333-9.333L292.3,42.68l-9.333,9.333,2.369,5.72Z" transform="translate(-196 -6.533)"/><rect class="e" width="12" height="29" transform="translate(67 50)"/><rect class="e" width="12" height="38" transform="translate(79 41)"/><rect class="e" width="12" height="50" transform="translate(91 29)"/><path class="c" d="M98.045,275.067l4.787,4.787L90.387,292.3l-9.333-9.333-5.72,2.369v13.2h-17.6v-13.2l-5.72-2.369L42.68,292.3,30.235,279.853l9.333-9.333L37.2,264.8H24V256H43.067a23.467,23.467,0,0,0,37.147,19.067Z" transform="translate(-6.533 -196)"/><rect class="f" width="5" height="6" transform="translate(56 45)"/><rect class="f" width="6" height="5" transform="translate(67 34)"/><rect class="f" width="6" height="6" transform="translate(79 22)"/><path d="M88.3,16.43l-3.97,3.97H79.067A1.467,1.467,0,0,0,77.6,21.867v5.259l-5.008,5.008H67.333A1.467,1.467,0,0,0,65.867,33.6v5.259l-5.008,5.008H55.6a1.467,1.467,0,0,0-1.467,1.467v5.259l-6.474,6.474H42.645a17.535,17.535,0,0,1,7.88-11.9L48.943,42.7A20.535,20.535,0,0,0,60,80.533H78.838A27.865,27.865,0,0,1,32.133,60H29.2a30.762,30.762,0,0,0,.884,7.333H18.933V52.667H30.667a1.467,1.467,0,0,0,1.355-.905l2.369-5.719a1.467,1.467,0,0,0-.318-1.6l-8.3-8.3L36.147,25.776l8.3,8.3a1.466,1.466,0,0,0,1.6.318l5.719-2.369a1.467,1.467,0,0,0,.905-1.355V18.933H67.333v8.8h2.933V17.467A1.467,1.467,0,0,0,68.8,16H51.2a1.467,1.467,0,0,0-1.467,1.467v12.22l-3.909,1.619-8.641-8.641a1.467,1.467,0,0,0-2.074,0L22.665,35.11a1.467,1.467,0,0,0,0,2.074l8.641,8.641-1.619,3.909H17.467A1.467,1.467,0,0,0,16,51.2V68.8a1.467,1.467,0,0,0,1.467,1.467h12.22l1.619,3.909-8.641,8.641a1.467,1.467,0,0,0,0,2.074L35.11,97.335a1.467,1.467,0,0,0,2.074,0l8.641-8.641,3.909,1.619v12.22A1.467,1.467,0,0,0,51.2,104H68.8a1.467,1.467,0,0,0,1.467-1.467V90.313l3.909-1.619,8.641,8.641a1.467,1.467,0,0,0,2.074,0L97.335,84.89a1.467,1.467,0,0,0,0-2.074l-2.283-2.283h7.481A1.467,1.467,0,0,0,104,79.067V29.2a1.467,1.467,0,0,0-1.467-1.467H90.8A1.467,1.467,0,0,0,89.333,29.2V39.467H79.067A1.467,1.467,0,0,0,77.6,40.933v7.333H67.333a1.467,1.467,0,0,0-1.467,1.467v8.8H55.6A1.467,1.467,0,0,0,54.133,60v5.867H43.407A17.52,17.52,0,0,1,42.4,60h5.867a1.467,1.467,0,0,0,1.037-.429l6.9-6.9h5.259A1.467,1.467,0,0,0,62.933,51.2V45.941l5.008-5.008H73.2a1.467,1.467,0,0,0,1.467-1.467V34.208L79.674,29.2h5.259A1.467,1.467,0,0,0,86.4,27.733V22.474l3.541-3.541H104V16H89.333a1.467,1.467,0,0,0-1.037.429ZM36.147,94.224,25.776,83.853l7.891-7.891A31.039,31.039,0,0,0,44.038,86.333Zm16.52,6.843V89.916a30.8,30.8,0,0,0,14.667,0v11.154ZM94.224,83.853,83.853,94.224l-7.889-7.89a30.81,30.81,0,0,0,6.991-5.8H90.9ZM92.267,30.667h8.8V77.6h-8.8ZM80.533,42.4h8.8V77.6h-8.8ZM68.8,51.2h8.8V77.6H68.8ZM57.067,61.467h8.8V77.6H60a17.635,17.635,0,0,1-2.932-.246ZM54.133,68.8v7.793A17.7,17.7,0,0,1,44.763,68.8ZM60,49.733H57.067V46.8H60ZM71.733,38H68.8V35.067h2.933ZM83.467,26.267H80.533V23.333h2.933Z"/></g></g></svg>